%TF.GenerationSoftware,KiCad,Pcbnew,6.0.10-86aedd382b~118~ubuntu18.04.1*%
%TF.CreationDate,2024-06-09T22:46:35-03:00*%
%TF.ProjectId,salt,73616c74-2e6b-4696-9361-645f70636258,1.5*%
%TF.SameCoordinates,Original*%
%TF.FileFunction,Paste,Top*%
%TF.FilePolarity,Positive*%
%FSLAX46Y46*%
G04 Gerber Fmt 4.6, Leading zero omitted, Abs format (unit mm)*
G04 Created by KiCad (PCBNEW 6.0.10-86aedd382b~118~ubuntu18.04.1) date 2024-06-09 22:46:35*
%MOMM*%
%LPD*%
G01*
G04 APERTURE LIST*
G04 Aperture macros list*
%AMRoundRect*
0 Rectangle with rounded corners*
0 $1 Rounding radius*
0 $2 $3 $4 $5 $6 $7 $8 $9 X,Y pos of 4 corners*
0 Add a 4 corners polygon primitive as box body*
4,1,4,$2,$3,$4,$5,$6,$7,$8,$9,$2,$3,0*
0 Add four circle primitives for the rounded corners*
1,1,$1+$1,$2,$3*
1,1,$1+$1,$4,$5*
1,1,$1+$1,$6,$7*
1,1,$1+$1,$8,$9*
0 Add four rect primitives between the rounded corners*
20,1,$1+$1,$2,$3,$4,$5,0*
20,1,$1+$1,$4,$5,$6,$7,0*
20,1,$1+$1,$6,$7,$8,$9,0*
20,1,$1+$1,$8,$9,$2,$3,0*%
G04 Aperture macros list end*
%ADD10RoundRect,0.250000X-0.450000X0.350000X-0.450000X-0.350000X0.450000X-0.350000X0.450000X0.350000X0*%
%ADD11RoundRect,0.250000X-0.350000X-0.450000X0.350000X-0.450000X0.350000X0.450000X-0.350000X0.450000X0*%
%ADD12R,0.880000X2.810000*%
%ADD13RoundRect,0.250000X-0.450000X0.325000X-0.450000X-0.325000X0.450000X-0.325000X0.450000X0.325000X0*%
%ADD14RoundRect,0.250000X0.350000X0.450000X-0.350000X0.450000X-0.350000X-0.450000X0.350000X-0.450000X0*%
%ADD15RoundRect,0.250000X0.450000X-0.350000X0.450000X0.350000X-0.450000X0.350000X-0.450000X-0.350000X0*%
%ADD16R,2.500000X1.600000*%
%ADD17RoundRect,0.250000X-0.325000X-0.450000X0.325000X-0.450000X0.325000X0.450000X-0.325000X0.450000X0*%
%ADD18R,1.450000X0.450000*%
%ADD19RoundRect,0.250000X-0.337500X-0.475000X0.337500X-0.475000X0.337500X0.475000X-0.337500X0.475000X0*%
%ADD20R,1.525000X0.650000*%
%ADD21RoundRect,0.250000X0.337500X0.475000X-0.337500X0.475000X-0.337500X-0.475000X0.337500X-0.475000X0*%
%ADD22R,1.200000X0.700000*%
%ADD23R,1.200000X1.000000*%
%ADD24R,0.800000X1.000000*%
%ADD25R,2.800000X1.000000*%
%ADD26R,1.900000X1.300000*%
%ADD27R,2.150000X2.250000*%
%ADD28R,1.600000X2.500000*%
%ADD29R,2.880000X1.120000*%
%ADD30RoundRect,0.250000X0.475000X-0.337500X0.475000X0.337500X-0.475000X0.337500X-0.475000X-0.337500X0*%
%ADD31R,0.600000X1.300000*%
%ADD32R,1.528000X0.650000*%
%ADD33RoundRect,0.250000X0.450000X-0.325000X0.450000X0.325000X-0.450000X0.325000X-0.450000X-0.325000X0*%
%ADD34RoundRect,0.250000X-0.475000X0.337500X-0.475000X-0.337500X0.475000X-0.337500X0.475000X0.337500X0*%
%ADD35R,0.650000X1.525000*%
%ADD36R,0.650000X1.528000*%
G04 APERTURE END LIST*
D10*
%TO.C,R19*%
X261000000Y-51250000D03*
X261000000Y-53250000D03*
%TD*%
%TO.C,R2*%
X271750000Y-107800000D03*
X271750000Y-109800000D03*
%TD*%
D11*
%TO.C,R93*%
X57875000Y-89250000D03*
X59875000Y-89250000D03*
%TD*%
D12*
%TO.C,F2*%
X272365000Y-88500000D03*
X275635000Y-88500000D03*
%TD*%
D10*
%TO.C,R17*%
X261000000Y-94500000D03*
X261000000Y-96500000D03*
%TD*%
D13*
%TO.C,D14*%
X110750000Y-190795000D03*
X110750000Y-192845000D03*
%TD*%
D14*
%TO.C,R76*%
X59750000Y-80000000D03*
X57750000Y-80000000D03*
%TD*%
D15*
%TO.C,R37*%
X110750000Y-187820000D03*
X110750000Y-185820000D03*
%TD*%
D11*
%TO.C,R7*%
X250500000Y-88000000D03*
X252500000Y-88000000D03*
%TD*%
%TO.C,R73*%
X57750000Y-140250000D03*
X59750000Y-140250000D03*
%TD*%
D16*
%TO.C,C5*%
X199250000Y-56477064D03*
X202750000Y-56477064D03*
%TD*%
D11*
%TO.C,R60*%
X57625000Y-204375000D03*
X59625000Y-204375000D03*
%TD*%
D15*
%TO.C,R3*%
X244500000Y-79700000D03*
X244500000Y-77700000D03*
%TD*%
D17*
%TO.C,D25*%
X175850000Y-243500000D03*
X177900000Y-243500000D03*
%TD*%
D15*
%TO.C,R1*%
X275200000Y-111800000D03*
X275200000Y-109800000D03*
%TD*%
D18*
%TO.C,IC11*%
X62550000Y-140600000D03*
X62550000Y-141250000D03*
X62550000Y-141900000D03*
X62550000Y-142550000D03*
X66950000Y-142550000D03*
X66950000Y-141900000D03*
X66950000Y-141250000D03*
X66950000Y-140600000D03*
%TD*%
D15*
%TO.C,R23*%
X195000000Y-51977064D03*
X195000000Y-49977064D03*
%TD*%
D19*
%TO.C,C9*%
X137212500Y-186086000D03*
X139287500Y-186086000D03*
%TD*%
D13*
%TO.C,D20*%
X110250000Y-110225000D03*
X110250000Y-112275000D03*
%TD*%
D20*
%TO.C,IC4*%
X139167000Y-197311000D03*
X139167000Y-196041000D03*
X139167000Y-194771000D03*
X139167000Y-193501000D03*
X139167000Y-192231000D03*
X139167000Y-190961000D03*
X139167000Y-189691000D03*
X139167000Y-188421000D03*
X133743000Y-188421000D03*
X133743000Y-189691000D03*
X133743000Y-190961000D03*
X133743000Y-192231000D03*
X133743000Y-193501000D03*
X133743000Y-194771000D03*
X133743000Y-196041000D03*
X133743000Y-197311000D03*
%TD*%
D14*
%TO.C,R82*%
X59750000Y-175750000D03*
X57750000Y-175750000D03*
%TD*%
%TO.C,R92*%
X59875000Y-96750000D03*
X57875000Y-96750000D03*
%TD*%
D11*
%TO.C,R83*%
X57750000Y-168250000D03*
X59750000Y-168250000D03*
%TD*%
D21*
%TO.C,C30*%
X65787500Y-191750000D03*
X63712500Y-191750000D03*
%TD*%
D11*
%TO.C,R99*%
X57750000Y-184750000D03*
X59750000Y-184750000D03*
%TD*%
D21*
%TO.C,C2*%
X252537500Y-41700000D03*
X250462500Y-41700000D03*
%TD*%
D19*
%TO.C,C6*%
X199962500Y-51977064D03*
X202037500Y-51977064D03*
%TD*%
D21*
%TO.C,C29*%
X65787500Y-184750000D03*
X63712500Y-184750000D03*
%TD*%
D17*
%TO.C,D24*%
X156325000Y-243500000D03*
X158375000Y-243500000D03*
%TD*%
D10*
%TO.C,R50*%
X279088000Y-178175000D03*
X279088000Y-180175000D03*
%TD*%
D22*
%TO.C,J21*%
X277176000Y-187400000D03*
X277176000Y-188500000D03*
X277176000Y-189600000D03*
X277176000Y-190700000D03*
X277176000Y-191800000D03*
X277176000Y-192900000D03*
X277176000Y-194000000D03*
X277176000Y-195100000D03*
D23*
X277176000Y-185850000D03*
D22*
X277176000Y-196050000D03*
D23*
X281476000Y-197000000D03*
D24*
X287675000Y-197000000D03*
D25*
X291825000Y-197000000D03*
D26*
X292276000Y-183500000D03*
%TD*%
D18*
%TO.C,IC12*%
X62550000Y-170775000D03*
X62550000Y-171425000D03*
X62550000Y-172075000D03*
X62550000Y-172725000D03*
X66950000Y-172725000D03*
X66950000Y-172075000D03*
X66950000Y-171425000D03*
X66950000Y-170775000D03*
%TD*%
D14*
%TO.C,R53*%
X171875000Y-243500000D03*
X169875000Y-243500000D03*
%TD*%
D11*
%TO.C,R70*%
X57750000Y-110250000D03*
X59750000Y-110250000D03*
%TD*%
D15*
%TO.C,R39*%
X110250000Y-123000000D03*
X110250000Y-121000000D03*
%TD*%
D14*
%TO.C,R58*%
X157250000Y-229125000D03*
X155250000Y-229125000D03*
%TD*%
D27*
%TO.C,D6*%
X268000000Y-60700000D03*
X268000000Y-56300000D03*
%TD*%
D21*
%TO.C,C28*%
X65787500Y-175250000D03*
X63712500Y-175250000D03*
%TD*%
D14*
%TO.C,R56*%
X92350000Y-243500000D03*
X90350000Y-243500000D03*
%TD*%
D21*
%TO.C,C34*%
X65662500Y-224375000D03*
X63587500Y-224375000D03*
%TD*%
D28*
%TO.C,C14*%
X61750000Y-61650000D03*
X61750000Y-65150000D03*
%TD*%
D10*
%TO.C,R54*%
X288058000Y-178175000D03*
X288058000Y-180175000D03*
%TD*%
D12*
%TO.C,F3*%
X272365000Y-43200000D03*
X275635000Y-43200000D03*
%TD*%
D14*
%TO.C,R98*%
X59750000Y-192250000D03*
X57750000Y-192250000D03*
%TD*%
D21*
%TO.C,C4*%
X252537500Y-44200000D03*
X250462500Y-44200000D03*
%TD*%
D14*
%TO.C,R80*%
X59750000Y-145250000D03*
X57750000Y-145250000D03*
%TD*%
D21*
%TO.C,C23*%
X65825000Y-138250000D03*
X63750000Y-138250000D03*
%TD*%
D11*
%TO.C,R85*%
X57875000Y-91750000D03*
X59875000Y-91750000D03*
%TD*%
D18*
%TO.C,IC10*%
X62550000Y-108024999D03*
X62550000Y-108674999D03*
X62550000Y-109324999D03*
X62550000Y-109974999D03*
X66950000Y-109974999D03*
X66950000Y-109324999D03*
X66950000Y-108674999D03*
X66950000Y-108024999D03*
%TD*%
D10*
%TO.C,R15*%
X261000000Y-72000000D03*
X261000000Y-74000000D03*
%TD*%
D11*
%TO.C,R63*%
X72750000Y-65250000D03*
X74750000Y-65250000D03*
%TD*%
D14*
%TO.C,R94*%
X59750000Y-128250000D03*
X57750000Y-128250000D03*
%TD*%
D21*
%TO.C,C3*%
X252437500Y-78500000D03*
X250362500Y-78500000D03*
%TD*%
%TO.C,C22*%
X65787500Y-128250000D03*
X63712500Y-128250000D03*
%TD*%
D13*
%TO.C,D22*%
X110750000Y-174475000D03*
X110750000Y-176525000D03*
%TD*%
D21*
%TO.C,C18*%
X65912500Y-96250000D03*
X63837500Y-96250000D03*
%TD*%
D11*
%TO.C,R87*%
X57750000Y-123250000D03*
X59750000Y-123250000D03*
%TD*%
D29*
%TO.C,J11*%
X280640000Y-264000000D03*
X280640000Y-261500000D03*
X280640000Y-259500000D03*
X280640000Y-257000000D03*
%TD*%
D13*
%TO.C,D16*%
X110250000Y-126725000D03*
X110250000Y-128775000D03*
%TD*%
D11*
%TO.C,R95*%
X57750000Y-120750000D03*
X59750000Y-120750000D03*
%TD*%
D21*
%TO.C,C19*%
X65575000Y-105500000D03*
X63500000Y-105500000D03*
%TD*%
D27*
%TO.C,D2*%
X268000000Y-86200000D03*
X268000000Y-81800000D03*
%TD*%
D15*
%TO.C,R47*%
X110000000Y-203750000D03*
X110000000Y-201750000D03*
%TD*%
D17*
%TO.C,D13*%
X215975000Y-244000000D03*
X218025000Y-244000000D03*
%TD*%
%TO.C,D12*%
X199475000Y-244000000D03*
X201525000Y-244000000D03*
%TD*%
D13*
%TO.C,D18*%
X110250000Y-223250000D03*
X110250000Y-225300000D03*
%TD*%
D11*
%TO.C,R89*%
X57750000Y-156500000D03*
X59750000Y-156500000D03*
%TD*%
D15*
%TO.C,R27*%
X276500000Y-163000000D03*
X276500000Y-161000000D03*
%TD*%
D18*
%TO.C,IC8*%
X62425000Y-219900000D03*
X62425000Y-220550000D03*
X62425000Y-221200000D03*
X62425000Y-221850000D03*
X66825000Y-221850000D03*
X66825000Y-221200000D03*
X66825000Y-220550000D03*
X66825000Y-219900000D03*
%TD*%
D11*
%TO.C,R72*%
X57750000Y-142750000D03*
X59750000Y-142750000D03*
%TD*%
D14*
%TO.C,R32*%
X253000000Y-244000000D03*
X251000000Y-244000000D03*
%TD*%
D15*
%TO.C,R43*%
X110250000Y-138750000D03*
X110250000Y-136750000D03*
%TD*%
D30*
%TO.C,C7*%
X224000000Y-216037500D03*
X224000000Y-213962500D03*
%TD*%
D18*
%TO.C,IC16*%
X62550000Y-187275000D03*
X62550000Y-187925000D03*
X62550000Y-188575000D03*
X62550000Y-189225000D03*
X66950000Y-189225000D03*
X66950000Y-188575000D03*
X66950000Y-187925000D03*
X66950000Y-187275000D03*
%TD*%
D31*
%TO.C,IC1*%
X198050000Y-49527064D03*
X199950000Y-49527064D03*
X199000000Y-47427064D03*
%TD*%
D14*
%TO.C,R52*%
X152875000Y-243500000D03*
X150875000Y-243500000D03*
%TD*%
D11*
%TO.C,R71*%
X57750000Y-107750000D03*
X59750000Y-107750000D03*
%TD*%
D13*
%TO.C,D21*%
X110500000Y-77975000D03*
X110500000Y-80025000D03*
%TD*%
D21*
%TO.C,C27*%
X65787500Y-168485000D03*
X63712500Y-168485000D03*
%TD*%
%TO.C,C21*%
X65787500Y-121250000D03*
X63712500Y-121250000D03*
%TD*%
D27*
%TO.C,D5*%
X268000000Y-51200000D03*
X268000000Y-46800000D03*
%TD*%
D32*
%TO.C,U3*%
X248789000Y-46795000D03*
X248789000Y-48065000D03*
X248789000Y-49335000D03*
X248789000Y-50605000D03*
X254211000Y-50605000D03*
X254211000Y-49335000D03*
X254211000Y-48065000D03*
X254211000Y-46795000D03*
%TD*%
D17*
%TO.C,D26*%
X116375000Y-243225000D03*
X118425000Y-243225000D03*
%TD*%
D11*
%TO.C,R67*%
X57625000Y-217375000D03*
X59625000Y-217375000D03*
%TD*%
D10*
%TO.C,R18*%
X261000000Y-37750000D03*
X261000000Y-39750000D03*
%TD*%
D33*
%TO.C,D8*%
X229500000Y-231025000D03*
X229500000Y-228975000D03*
%TD*%
D21*
%TO.C,C1*%
X252387500Y-76000000D03*
X250312500Y-76000000D03*
%TD*%
D12*
%TO.C,F1*%
X272365000Y-77500000D03*
X275635000Y-77500000D03*
%TD*%
D14*
%TO.C,R36*%
X212500000Y-244000000D03*
X210500000Y-244000000D03*
%TD*%
D10*
%TO.C,R34*%
X188775000Y-234500000D03*
X188775000Y-236500000D03*
%TD*%
D17*
%TO.C,D28*%
X136625000Y-243250000D03*
X138675000Y-243250000D03*
%TD*%
D29*
%TO.C,J10*%
X280640000Y-243500000D03*
X280640000Y-241000000D03*
X280640000Y-239000000D03*
X280640000Y-236500000D03*
%TD*%
D17*
%TO.C,D27*%
X96350000Y-243500000D03*
X98400000Y-243500000D03*
%TD*%
D15*
%TO.C,R25*%
X206000000Y-51477064D03*
X206000000Y-49477064D03*
%TD*%
D13*
%TO.C,D17*%
X110250000Y-94725000D03*
X110250000Y-96775000D03*
%TD*%
D18*
%TO.C,IC15*%
X62550000Y-156775000D03*
X62550000Y-157425000D03*
X62550000Y-158075000D03*
X62550000Y-158725000D03*
X66950000Y-158725000D03*
X66950000Y-158075000D03*
X66950000Y-157425000D03*
X66950000Y-156775000D03*
%TD*%
D14*
%TO.C,R33*%
X224000000Y-218500000D03*
X222000000Y-218500000D03*
%TD*%
D10*
%TO.C,R16*%
X261000000Y-85500000D03*
X261000000Y-87500000D03*
%TD*%
D21*
%TO.C,C16*%
X65787500Y-80250000D03*
X63712500Y-80250000D03*
%TD*%
D10*
%TO.C,R30*%
X229500000Y-234500000D03*
X229500000Y-236500000D03*
%TD*%
D18*
%TO.C,IC14*%
X62550000Y-123775000D03*
X62550000Y-124425000D03*
X62550000Y-125075000D03*
X62550000Y-125725000D03*
X66950000Y-125725000D03*
X66950000Y-125075000D03*
X66950000Y-124425000D03*
X66950000Y-123775000D03*
%TD*%
D11*
%TO.C,R74*%
X57750000Y-173250000D03*
X59750000Y-173250000D03*
%TD*%
D15*
%TO.C,R45*%
X110500000Y-74750000D03*
X110500000Y-72750000D03*
%TD*%
D18*
%TO.C,IC6*%
X62425000Y-204400000D03*
X62425000Y-205050000D03*
X62425000Y-205700000D03*
X62425000Y-206350000D03*
X66825000Y-206350000D03*
X66825000Y-205700000D03*
X66825000Y-205050000D03*
X66825000Y-204400000D03*
%TD*%
D11*
%TO.C,R75*%
X57750000Y-170750000D03*
X59750000Y-170750000D03*
%TD*%
D34*
%TO.C,C11*%
X273588000Y-190712500D03*
X273588000Y-192787500D03*
%TD*%
D14*
%TO.C,R35*%
X196000000Y-244000000D03*
X194000000Y-244000000D03*
%TD*%
D13*
%TO.C,D15*%
X110250000Y-158250000D03*
X110250000Y-160300000D03*
%TD*%
D21*
%TO.C,C17*%
X65837500Y-89250000D03*
X63762500Y-89250000D03*
%TD*%
D10*
%TO.C,R13*%
X257000000Y-42200000D03*
X257000000Y-44200000D03*
%TD*%
D11*
%TO.C,R86*%
X57750000Y-125750000D03*
X59750000Y-125750000D03*
%TD*%
D10*
%TO.C,R11*%
X257000000Y-76500000D03*
X257000000Y-78500000D03*
%TD*%
D11*
%TO.C,R91*%
X57750000Y-187250000D03*
X59750000Y-187250000D03*
%TD*%
D14*
%TO.C,R22*%
X275000000Y-58700000D03*
X273000000Y-58700000D03*
%TD*%
D34*
%TO.C,C10*%
X271088000Y-190675000D03*
X271088000Y-192750000D03*
%TD*%
D14*
%TO.C,R31*%
X236500000Y-244000000D03*
X234500000Y-244000000D03*
%TD*%
D11*
%TO.C,R69*%
X57750000Y-75000000D03*
X59750000Y-75000000D03*
%TD*%
D10*
%TO.C,R20*%
X261000000Y-60200000D03*
X261000000Y-62200000D03*
%TD*%
D35*
%TO.C,IC2*%
X235945000Y-213038000D03*
X234675000Y-213038000D03*
X233405000Y-213038000D03*
X232135000Y-213038000D03*
X230865000Y-213038000D03*
X229595000Y-213038000D03*
X228325000Y-213038000D03*
X227055000Y-213038000D03*
X227055000Y-218462000D03*
X228325000Y-218462000D03*
X229595000Y-218462000D03*
X230865000Y-218462000D03*
X232135000Y-218462000D03*
X233405000Y-218462000D03*
X234675000Y-218462000D03*
X235945000Y-218462000D03*
%TD*%
D10*
%TO.C,R14*%
X257000000Y-56200000D03*
X257000000Y-58200000D03*
%TD*%
D14*
%TO.C,R96*%
X59750000Y-161500000D03*
X57750000Y-161500000D03*
%TD*%
D13*
%TO.C,D19*%
X110250000Y-142475000D03*
X110250000Y-144525000D03*
%TD*%
%TO.C,D23*%
X110000000Y-206975000D03*
X110000000Y-209025000D03*
%TD*%
D16*
%TO.C,C13*%
X69000000Y-54650000D03*
X65500000Y-54650000D03*
%TD*%
D15*
%TO.C,R5*%
X244500000Y-45700000D03*
X244500000Y-43700000D03*
%TD*%
D27*
%TO.C,D4*%
X268000000Y-42400000D03*
X268000000Y-38000000D03*
%TD*%
D15*
%TO.C,R29*%
X275750000Y-139800000D03*
X275750000Y-137800000D03*
%TD*%
D18*
%TO.C,IC9*%
X62550000Y-75675000D03*
X62550000Y-76325000D03*
X62550000Y-76975000D03*
X62550000Y-77625000D03*
X66950000Y-77625000D03*
X66950000Y-76975000D03*
X66950000Y-76325000D03*
X66950000Y-75675000D03*
%TD*%
D21*
%TO.C,C33*%
X65662500Y-217375000D03*
X63587500Y-217375000D03*
%TD*%
D14*
%TO.C,R66*%
X59625000Y-224875000D03*
X57625000Y-224875000D03*
%TD*%
D21*
%TO.C,C31*%
X65662500Y-201875000D03*
X63587500Y-201875000D03*
%TD*%
D33*
%TO.C,D7*%
X203000000Y-49477064D03*
X203000000Y-47427064D03*
%TD*%
D27*
%TO.C,D1*%
X268000000Y-76700000D03*
X268000000Y-72300000D03*
%TD*%
D21*
%TO.C,C20*%
X65787500Y-112250000D03*
X63712500Y-112250000D03*
%TD*%
D10*
%TO.C,R28*%
X271750000Y-135800000D03*
X271750000Y-137800000D03*
%TD*%
D11*
%TO.C,R64*%
X57625000Y-222375000D03*
X59625000Y-222375000D03*
%TD*%
D33*
%TO.C,D11*%
X188775000Y-231050000D03*
X188775000Y-229000000D03*
%TD*%
D11*
%TO.C,R59*%
X57625000Y-206875000D03*
X59625000Y-206875000D03*
%TD*%
%TO.C,R65*%
X57625000Y-219875000D03*
X59625000Y-219875000D03*
%TD*%
D14*
%TO.C,R9*%
X254400000Y-73500000D03*
X252400000Y-73500000D03*
%TD*%
D15*
%TO.C,R46*%
X110750000Y-171000000D03*
X110750000Y-169000000D03*
%TD*%
%TO.C,R40*%
X110250000Y-90750000D03*
X110250000Y-88750000D03*
%TD*%
D32*
%TO.C,U2*%
X248689000Y-81322064D03*
X248689000Y-82592064D03*
X248689000Y-83862064D03*
X248689000Y-85132064D03*
X254111000Y-85132064D03*
X254111000Y-83862064D03*
X254111000Y-82592064D03*
X254111000Y-81322064D03*
%TD*%
D36*
%TO.C,IC7*%
X70255000Y-60039000D03*
X68985000Y-60039000D03*
X67715000Y-60039000D03*
X66445000Y-60039000D03*
X66445000Y-65461000D03*
X67715000Y-65461000D03*
X68985000Y-65461000D03*
X70255000Y-65461000D03*
%TD*%
D14*
%TO.C,R10*%
X254500000Y-39200000D03*
X252500000Y-39200000D03*
%TD*%
D11*
%TO.C,R84*%
X57875000Y-94250000D03*
X59875000Y-94250000D03*
%TD*%
D35*
%TO.C,IC5*%
X168695000Y-223913000D03*
X167425000Y-223913000D03*
X166155000Y-223913000D03*
X164885000Y-223913000D03*
X163615000Y-223913000D03*
X162345000Y-223913000D03*
X161075000Y-223913000D03*
X159805000Y-223913000D03*
X159805000Y-229337000D03*
X161075000Y-229337000D03*
X162345000Y-229337000D03*
X163615000Y-229337000D03*
X164885000Y-229337000D03*
X166155000Y-229337000D03*
X167425000Y-229337000D03*
X168695000Y-229337000D03*
%TD*%
D17*
%TO.C,D10*%
X256475000Y-244000000D03*
X258525000Y-244000000D03*
%TD*%
D27*
%TO.C,D3*%
X268000000Y-95700000D03*
X268000000Y-91300000D03*
%TD*%
D21*
%TO.C,C32*%
X65700000Y-208875000D03*
X63625000Y-208875000D03*
%TD*%
D15*
%TO.C,R41*%
X110250000Y-219375000D03*
X110250000Y-217375000D03*
%TD*%
%TO.C,R48*%
X133750000Y-186086000D03*
X133750000Y-184086000D03*
%TD*%
D21*
%TO.C,C25*%
X65825000Y-154250000D03*
X63750000Y-154250000D03*
%TD*%
D11*
%TO.C,R8*%
X251000000Y-53700000D03*
X253000000Y-53700000D03*
%TD*%
D21*
%TO.C,C15*%
X65787500Y-73250000D03*
X63712500Y-73250000D03*
%TD*%
D10*
%TO.C,R49*%
X285088000Y-178175000D03*
X285088000Y-180175000D03*
%TD*%
D11*
%TO.C,R79*%
X57750000Y-105250000D03*
X59750000Y-105250000D03*
%TD*%
D14*
%TO.C,R21*%
X275000000Y-93000000D03*
X273000000Y-93000000D03*
%TD*%
D15*
%TO.C,R44*%
X110250000Y-106750000D03*
X110250000Y-104750000D03*
%TD*%
D17*
%TO.C,D9*%
X239975000Y-244000000D03*
X242025000Y-244000000D03*
%TD*%
D11*
%TO.C,R97*%
X57750000Y-154000000D03*
X59750000Y-154000000D03*
%TD*%
D30*
%TO.C,C12*%
X157250000Y-226625000D03*
X157250000Y-224550000D03*
%TD*%
D11*
%TO.C,R77*%
X57750000Y-72500000D03*
X59750000Y-72500000D03*
%TD*%
D10*
%TO.C,R24*%
X194985000Y-54250000D03*
X194985000Y-56250000D03*
%TD*%
D21*
%TO.C,C26*%
X65825000Y-161250000D03*
X63750000Y-161250000D03*
%TD*%
D11*
%TO.C,R68*%
X57750000Y-77500000D03*
X59750000Y-77500000D03*
%TD*%
D20*
%TO.C,IC3*%
X135962000Y-115945000D03*
X135962000Y-114675000D03*
X135962000Y-113405000D03*
X135962000Y-112135000D03*
X135962000Y-110865000D03*
X135962000Y-109595000D03*
X135962000Y-108325000D03*
X135962000Y-107055000D03*
X130538000Y-107055000D03*
X130538000Y-108325000D03*
X130538000Y-109595000D03*
X130538000Y-110865000D03*
X130538000Y-112135000D03*
X130538000Y-113405000D03*
X130538000Y-114675000D03*
X130538000Y-115945000D03*
%TD*%
D15*
%TO.C,R51*%
X282088000Y-178175000D03*
X282088000Y-176175000D03*
%TD*%
D14*
%TO.C,R55*%
X112875000Y-243225000D03*
X110875000Y-243225000D03*
%TD*%
D10*
%TO.C,R6*%
X247000000Y-39200000D03*
X247000000Y-41200000D03*
%TD*%
D12*
%TO.C,F4*%
X272365000Y-54200000D03*
X275635000Y-54200000D03*
%TD*%
D11*
%TO.C,R88*%
X57750000Y-159000000D03*
X59750000Y-159000000D03*
%TD*%
D14*
%TO.C,R57*%
X133125000Y-243250000D03*
X131125000Y-243250000D03*
%TD*%
D10*
%TO.C,R4*%
X247000000Y-73900000D03*
X247000000Y-75900000D03*
%TD*%
D18*
%TO.C,IC13*%
X62675000Y-91775000D03*
X62675000Y-92425000D03*
X62675000Y-93075000D03*
X62675000Y-93725000D03*
X67075000Y-93725000D03*
X67075000Y-93075000D03*
X67075000Y-92425000D03*
X67075000Y-91775000D03*
%TD*%
D11*
%TO.C,R90*%
X57750000Y-189750000D03*
X59750000Y-189750000D03*
%TD*%
%TO.C,R62*%
X57625000Y-201875000D03*
X59625000Y-201875000D03*
%TD*%
D10*
%TO.C,R26*%
X272500000Y-159000000D03*
X272500000Y-161000000D03*
%TD*%
D19*
%TO.C,C8*%
X133750000Y-104500000D03*
X135825000Y-104500000D03*
%TD*%
D11*
%TO.C,R81*%
X57750000Y-137750000D03*
X59750000Y-137750000D03*
%TD*%
D15*
%TO.C,R38*%
X110250000Y-154750000D03*
X110250000Y-152750000D03*
%TD*%
%TO.C,R42*%
X130500000Y-104500000D03*
X130500000Y-102500000D03*
%TD*%
D14*
%TO.C,R61*%
X59625000Y-209375000D03*
X57625000Y-209375000D03*
%TD*%
D21*
%TO.C,C24*%
X65787500Y-145250000D03*
X63712500Y-145250000D03*
%TD*%
D14*
%TO.C,R78*%
X59750000Y-112750000D03*
X57750000Y-112750000D03*
%TD*%
D10*
%TO.C,R12*%
X257000000Y-90500000D03*
X257000000Y-92500000D03*
%TD*%
M02*
