M48
; DRILL file {KiCad 6.0.10-86aedd382b~118~ubuntu18.04.1} date Sun 09 Jun 2024 10:46:18 PM -03
; FORMAT={-:-/ absolute / metric / decimal}
; #@! TF.CreationDate,2024-06-09T22:46:18-03:00
; #@! TF.GenerationSoftware,Kicad,Pcbnew,6.0.10-86aedd382b~118~ubuntu18.04.1
; #@! TF.FileFunction,MixedPlating,1,2
FMAT,2
METRIC
; #@! TA.AperFunction,Plated,PTH,ViaDrill
T1C0.400
; #@! TA.AperFunction,Plated,PTH,ComponentDrill
T2C0.800
; #@! TA.AperFunction,Plated,PTH,ComponentDrill
T3C1.020
; #@! TA.AperFunction,Plated,PTH,ComponentDrill
T4C1.040
; #@! TA.AperFunction,Plated,PTH,ComponentDrill
T5C1.400
; #@! TA.AperFunction,Plated,PTH,ComponentDrill
T6C1.500
; #@! TA.AperFunction,Plated,PTH,ComponentDrill
T7C2.300
; #@! TA.AperFunction,NonPlated,NPTH,ComponentDrill
T8C3.200
%
G90
G05
T1
X61.75Y-80.25
X61.75Y-96.25
X61.75Y-112.25
X61.75Y-128.25
X61.75Y-145.25
X61.75Y-161.25
X61.75Y-175.25
X61.75Y-191.75
X61.75Y-208.95
X61.75Y-224.25
X75.6Y-67.5
X85.0Y-274.0
X97.9Y-130.4
X99.25Y-92.5
X99.25Y-102.5
X99.25Y-108.5
X99.25Y-124.75
X99.25Y-140.75
X99.25Y-156.05
X99.25Y-173.0
X99.25Y-183.0
X99.25Y-189.75
X99.25Y-205.45
X99.25Y-220.85
X105.375Y-274.0
X125.375Y-274.0
X126.895Y-113.405
X126.925Y-114.825
X127.135Y-112.135
X127.2Y-109.5
X127.2Y-110.8
X127.5Y-116.2
X129.475Y-194.725
X129.75Y-193.25
X129.95Y-196.05
X130.55Y-197.45
X133.0Y-102.5
X134.9Y-70.8
X136.05Y-183.95
X137.945Y-107.055
X138.6Y-227.5
X141.1Y-188.5
X142.6Y-82.8
X144.049Y-130.3
X144.1Y-221.9
X144.15Y-146.8
X144.8Y-140.9
X145.1Y-120.7
X145.7Y-136.1
X145.875Y-274.0
X146.0Y-252.0
X148.5Y-99.3
X150.2Y-203.8
X150.7Y-198.8
X150.9Y-171.8
X152.588Y-231.287
X152.8Y-232.8
X153.5Y-234.0
X154.1Y-82.8
X154.5Y-163.5
X155.359Y-226.776
X156.5Y-203.0
X158.6Y-89.3
X159.0Y-198.6
X159.8Y-221.8
X164.875Y-274.0
X167.9Y-110.0
X167.9Y-116.7
X179.2Y-89.3
X179.9Y-87.6
X184.7Y-265.7
X191.3Y-205.5
X193.2Y-41.6
X194.0Y-277.9
X195.0Y-59.5
X195.7Y-105.8
X197.0Y-104.8
X198.75Y-160.75
X201.5Y-241.5
X206.477Y-56.477
X207.5Y-262.0
X208.9Y-204.7
X209.7Y-151.65
X210.5Y-277.75
X211.3Y-220.3
X211.4Y-153.15
X212.3Y-174.3
X213.4Y-139.45
X214.95Y-138.35
X218.8Y-240.8
X220.001Y-218.499
X227.055Y-211.055
X233.9Y-52.9
X234.2Y-87.5
X234.5Y-277.5
X236.1Y-164.6
X242.0Y-241.5
X242.8Y-43.7
X246.0Y-77.7
X246.7Y-262.0
X247.15Y-36.65
X248.8Y-41.7
X248.9Y-76.0
X250.7Y-277.3
X253.825Y-120.1
X256.051Y-39.099
X256.125Y-73.425
X257.0Y-223.9
X259.5Y-241.0
X261.6Y-180.7
X263.8Y-182.3
X266.6Y-262.4
X268.0Y-35.9
X268.0Y-70.1
X269.2Y-192.8
X269.65Y-68.35
X269.65Y-109.75
X269.65Y-120.15
X269.65Y-137.75
X269.65Y-160.95
X273.95Y-196.05
X276.775Y-176.175
X277.0Y-236.5
X277.0Y-257.0
T2
X189.462Y-41.612
X189.462Y-44.152
X189.462Y-46.692
X189.462Y-49.232
T3
X61.75Y-68.75
X90.875Y-240.0
X111.875Y-239.0
X118.5Y-72.75
X118.5Y-82.75
X118.5Y-88.75
X118.5Y-99.25
X118.5Y-104.75
X118.5Y-115.75
X118.5Y-121.0
X118.5Y-136.75
X118.5Y-146.8
X118.5Y-152.75
X118.5Y-162.8
X118.5Y-169.25
X118.5Y-179.75
X118.5Y-185.75
X118.5Y-195.5
X118.5Y-201.75
X118.5Y-212.25
X118.5Y-217.25
X118.5Y-228.75
X118.54Y-131.94
X121.0Y-64.5
X127.0Y-64.5
X131.375Y-240.5
X133.5Y-64.4
X152.375Y-239.5
X160.75Y-101.07
X160.75Y-103.61
X160.75Y-106.15
X160.75Y-108.69
X160.75Y-111.23
X160.75Y-113.77
X160.75Y-116.31
X160.75Y-118.85
X160.75Y-121.39
X160.75Y-123.93
X160.75Y-126.47
X160.75Y-129.01
X160.75Y-131.55
X160.75Y-134.09
X160.75Y-136.63
X160.75Y-139.17
X160.75Y-141.71
X160.75Y-144.25
X160.75Y-146.79
X160.75Y-149.33
X160.75Y-151.87
X160.75Y-154.41
X160.75Y-156.95
X160.75Y-159.49
X160.75Y-162.03
X160.75Y-164.57
X160.75Y-167.11
X160.75Y-169.65
X160.75Y-172.19
X160.75Y-174.73
X160.75Y-177.27
X160.75Y-179.81
X160.75Y-182.35
X160.75Y-184.89
X160.75Y-187.43
X160.75Y-189.97
X163.29Y-101.07
X163.29Y-103.61
X163.29Y-106.15
X163.29Y-108.69
X163.29Y-111.23
X163.29Y-113.77
X163.29Y-116.31
X163.29Y-118.85
X163.29Y-121.39
X163.29Y-123.93
X163.29Y-126.47
X163.29Y-129.01
X163.29Y-131.55
X163.29Y-134.09
X163.29Y-136.63
X163.29Y-139.17
X163.29Y-141.71
X163.29Y-144.25
X163.29Y-146.79
X163.29Y-149.33
X163.29Y-151.87
X163.29Y-154.41
X163.29Y-156.95
X163.29Y-159.49
X163.29Y-162.03
X163.29Y-164.57
X163.29Y-167.11
X163.29Y-169.65
X163.29Y-172.19
X163.29Y-174.73
X163.29Y-177.27
X163.29Y-179.81
X163.29Y-182.35
X163.29Y-184.89
X163.29Y-187.43
X163.29Y-189.97
X168.875Y-239.0
X181.5Y-62.75
X185.75Y-62.75
X189.75Y-62.75
X203.0Y-43.5
X214.5Y-222.5
X218.5Y-222.5
X221.71Y-101.09
X221.71Y-103.63
X221.71Y-106.17
X221.71Y-108.71
X221.71Y-111.25
X221.71Y-113.79
X221.71Y-116.33
X221.71Y-118.87
X221.71Y-121.41
X221.71Y-123.95
X221.71Y-126.49
X221.71Y-129.03
X221.71Y-131.57
X221.71Y-134.11
X221.71Y-136.65
X221.71Y-139.19
X221.71Y-141.73
X221.71Y-144.27
X221.71Y-146.81
X221.71Y-149.35
X221.71Y-151.89
X221.71Y-154.43
X221.71Y-156.97
X221.71Y-159.51
X221.71Y-162.05
X221.71Y-164.59
X221.71Y-167.13
X221.71Y-169.67
X221.71Y-172.21
X221.71Y-174.75
X221.71Y-177.29
X221.71Y-179.83
X221.71Y-182.37
X221.71Y-184.91
X221.71Y-187.45
X221.71Y-189.99
X223.0Y-233.0
X224.25Y-101.09
X224.25Y-103.63
X224.25Y-106.17
X224.25Y-108.71
X224.25Y-111.25
X224.25Y-113.79
X224.25Y-116.33
X224.25Y-118.87
X224.25Y-121.41
X224.25Y-123.95
X224.25Y-126.49
X224.25Y-129.03
X224.25Y-131.57
X224.25Y-134.11
X224.25Y-136.65
X224.25Y-139.19
X224.25Y-141.73
X224.25Y-144.27
X224.25Y-146.81
X224.25Y-149.35
X224.25Y-151.89
X224.25Y-154.43
X224.25Y-156.97
X224.25Y-159.51
X224.25Y-162.05
X224.25Y-164.59
X224.25Y-167.13
X224.25Y-169.67
X224.25Y-172.21
X224.25Y-174.75
X224.25Y-177.29
X224.25Y-179.83
X224.25Y-182.37
X224.25Y-184.91
X224.25Y-187.45
X224.25Y-189.99
X224.9Y-223.8
X235.0Y-222.5
X238.0Y-222.5
X240.5Y-44.4
X240.5Y-47.9
X240.5Y-51.4
X240.5Y-79.5
X240.5Y-82.5
X240.5Y-86.0
X242.0Y-218.5
X264.0Y-233.0
X267.088Y-183.675
X267.088Y-186.175
X267.088Y-188.675
X267.088Y-191.675
X267.088Y-194.0
X267.25Y-135.8
X267.3Y-139.7
X268.0Y-159.0
X268.0Y-163.0
X275.5Y-205.25
X275.5Y-215.25
X275.5Y-243.5
X275.5Y-264.0
T4
X84.29Y-34.073
X84.29Y-59.473
X86.83Y-34.073
X86.83Y-59.473
X89.37Y-34.073
X89.37Y-59.473
X91.91Y-34.073
X91.91Y-59.473
X94.45Y-34.073
X94.45Y-59.473
X96.99Y-34.073
X96.99Y-59.473
X99.53Y-34.073
X99.53Y-59.473
X102.07Y-34.073
X102.07Y-59.473
X104.61Y-34.073
X104.61Y-59.473
X107.15Y-34.073
X107.15Y-59.473
X109.69Y-34.073
X109.69Y-59.473
X112.23Y-34.073
X112.23Y-59.473
X114.77Y-34.073
X114.77Y-59.473
X117.31Y-34.073
X117.31Y-59.473
X119.85Y-34.073
X119.85Y-59.473
X122.39Y-34.073
X122.39Y-59.473
X124.93Y-34.073
X124.93Y-59.473
X127.47Y-34.073
X127.47Y-59.473
X130.01Y-34.073
X130.01Y-59.473
T5
X47.75Y-76.875
X47.75Y-81.875
X47.75Y-86.875
X47.75Y-91.875
X47.875Y-206.375
X47.875Y-211.375
X47.875Y-216.375
X47.875Y-221.375
X48.0Y-109.75
X48.0Y-114.75
X48.0Y-119.75
X48.0Y-124.75
X48.0Y-144.25
X48.0Y-149.25
X48.0Y-154.25
X48.0Y-159.25
X48.0Y-174.75
X48.0Y-179.75
X48.0Y-184.75
X48.0Y-189.75
X89.5Y-286.25
X94.5Y-286.25
X99.5Y-286.25
X109.375Y-286.25
X114.375Y-286.25
X119.375Y-286.25
X129.375Y-286.25
X134.375Y-286.25
X139.375Y-286.25
X149.375Y-286.25
X154.375Y-286.25
X159.375Y-286.25
X169.375Y-286.25
X174.375Y-286.25
X179.375Y-286.25
X202.5Y-286.25
X207.5Y-286.25
X212.5Y-286.25
X242.0Y-286.25
X247.0Y-286.25
X252.0Y-286.25
X283.25Y-46.5
X283.25Y-51.5
X283.25Y-56.5
X283.25Y-80.8
X283.25Y-85.8
X283.25Y-90.8
X283.25Y-107.75
X283.25Y-112.75
X283.25Y-117.75
X283.25Y-122.75
X283.25Y-135.75
X283.25Y-140.75
X283.25Y-145.75
X283.25Y-159.0
X283.25Y-164.0
X283.25Y-169.0
X283.25Y-205.25
X283.25Y-210.25
X283.25Y-215.25
X283.25Y-220.25
T6
X77.125Y-217.625
X77.125Y-225.125
X77.25Y-72.5
X77.25Y-80.0
X77.25Y-89.0
X77.25Y-96.5
X77.25Y-105.0
X77.25Y-112.5
X77.25Y-121.0
X77.25Y-128.5
X77.25Y-137.0
X77.25Y-144.5
X77.25Y-153.0
X77.25Y-160.5
X77.25Y-169.0
X77.25Y-176.5
X77.25Y-185.5
X77.25Y-193.0
X77.25Y-201.75
X77.25Y-209.25
X82.125Y-217.625
X82.125Y-225.125
X82.25Y-72.5
X82.25Y-80.0
X82.25Y-89.0
X82.25Y-96.5
X82.25Y-105.0
X82.25Y-112.5
X82.25Y-121.0
X82.25Y-128.5
X82.25Y-137.0
X82.25Y-144.5
X82.25Y-153.0
X82.25Y-160.5
X82.25Y-169.0
X82.25Y-176.5
X82.25Y-185.5
X82.25Y-193.0
X82.25Y-201.75
X82.25Y-209.25
X87.125Y-217.625
X87.125Y-225.125
X87.25Y-72.5
X87.25Y-80.0
X87.25Y-89.0
X87.25Y-96.5
X87.25Y-105.0
X87.25Y-112.5
X87.25Y-121.0
X87.25Y-128.5
X87.25Y-137.0
X87.25Y-144.5
X87.25Y-153.0
X87.25Y-160.5
X87.25Y-169.0
X87.25Y-176.5
X87.25Y-185.5
X87.25Y-193.0
X87.25Y-201.75
X87.25Y-209.25
X90.625Y-249.0
X90.625Y-264.0
X90.625Y-269.0
X90.625Y-274.0
X98.125Y-249.0
X98.125Y-264.0
X98.125Y-269.0
X98.125Y-274.0
X102.125Y-217.625
X102.125Y-225.125
X102.25Y-72.5
X102.25Y-80.0
X102.25Y-89.0
X102.25Y-96.5
X102.25Y-105.0
X102.25Y-112.5
X102.25Y-121.0
X102.25Y-128.5
X102.25Y-137.0
X102.25Y-144.5
X102.25Y-153.0
X102.25Y-160.5
X102.25Y-169.0
X102.25Y-176.5
X102.25Y-185.5
X102.25Y-193.0
X102.25Y-201.75
X102.25Y-209.25
X110.875Y-249.0
X110.875Y-264.0
X110.875Y-269.0
X110.875Y-274.0
X118.375Y-249.0
X118.375Y-264.0
X118.375Y-269.0
X118.375Y-274.0
X130.875Y-249.0
X130.875Y-264.0
X130.875Y-269.0
X130.875Y-274.0
X138.375Y-249.0
X138.375Y-264.0
X138.375Y-269.0
X138.375Y-274.0
X150.875Y-249.0
X150.875Y-264.0
X150.875Y-269.0
X150.875Y-274.0
X158.375Y-249.0
X158.375Y-264.0
X158.375Y-269.0
X158.375Y-274.0
X170.125Y-249.0
X170.125Y-264.0
X170.125Y-269.0
X170.125Y-274.0
X177.625Y-249.0
X177.625Y-264.0
X177.625Y-269.0
X177.625Y-274.0
X193.775Y-229.0
X193.775Y-236.5
X194.0Y-249.0
X194.0Y-264.0
X194.0Y-269.0
X194.0Y-274.0
X201.5Y-249.0
X201.5Y-264.0
X201.5Y-269.0
X201.5Y-274.0
X208.775Y-229.0
X208.775Y-236.5
X210.5Y-249.0
X210.5Y-264.0
X210.5Y-269.0
X210.5Y-274.0
X213.775Y-229.0
X213.775Y-236.5
X218.0Y-249.0
X218.0Y-264.0
X218.0Y-269.0
X218.0Y-274.0
X218.775Y-229.0
X218.775Y-236.5
X234.5Y-229.0
X234.5Y-236.5
X234.5Y-249.0
X234.5Y-264.0
X234.5Y-269.0
X234.5Y-274.0
X242.0Y-249.0
X242.0Y-264.0
X242.0Y-269.0
X242.0Y-274.0
X249.5Y-229.0
X249.5Y-236.5
X250.75Y-249.0
X250.75Y-264.0
X250.75Y-269.0
X250.75Y-274.0
X254.5Y-229.0
X254.5Y-236.5
X258.25Y-249.0
X258.25Y-264.0
X258.25Y-269.0
X258.25Y-274.0
X259.5Y-229.0
X259.5Y-236.5
T7
X284.22Y-233.43
X284.22Y-246.57
X284.22Y-253.93
X284.22Y-267.07
T8
X40.5Y-33.5
X40.5Y-293.5
X147.5Y-33.5
X190.5Y-293.5
X290.5Y-33.5
X290.5Y-293.5
T0
M30
