%TF.GenerationSoftware,KiCad,Pcbnew,6.0.10-86aedd382b~118~ubuntu18.04.1*%
%TF.CreationDate,2024-06-09T23:27:39-03:00*%
%TF.ProjectId,salt_ihm,73616c74-5f69-4686-9d2e-6b696361645f,1.5*%
%TF.SameCoordinates,Original*%
%TF.FileFunction,Soldermask,Top*%
%TF.FilePolarity,Negative*%
%FSLAX46Y46*%
G04 Gerber Fmt 4.6, Leading zero omitted, Abs format (unit mm)*
G04 Created by KiCad (PCBNEW 6.0.10-86aedd382b~118~ubuntu18.04.1) date 2024-06-09 23:27:39*
%MOMM*%
%LPD*%
G01*
G04 APERTURE LIST*
%ADD10C,1.400000*%
%ADD11R,1.400000X1.400000*%
%ADD12C,3.000000*%
%ADD13C,3.200000*%
%ADD14R,1.350000X1.350000*%
%ADD15C,1.350000*%
%ADD16R,2.500000X2.500000*%
%ADD17C,2.500000*%
%ADD18C,1.734000*%
%ADD19R,3.000000X3.000000*%
G04 APERTURE END LIST*
D10*
%TO.C,LED5*%
X129405000Y-113500000D03*
X128135000Y-114500000D03*
X126865000Y-113500000D03*
X125595000Y-114500000D03*
%TD*%
%TO.C,LED11*%
X200900000Y-72391000D03*
X199900000Y-71121000D03*
X200900000Y-69851000D03*
X199900000Y-68581000D03*
%TD*%
D11*
%TO.C,LED12*%
X156400000Y-78900000D03*
D10*
X156400000Y-81440000D03*
%TD*%
D11*
%TO.C,LED18*%
X201000000Y-112500000D03*
D10*
X201000000Y-115040000D03*
%TD*%
D12*
%TO.C,S1*%
X185000000Y-126000000D03*
X185000000Y-131000000D03*
%TD*%
D11*
%TO.C,LED14*%
X157000000Y-112500000D03*
D10*
X157000000Y-115040000D03*
%TD*%
%TO.C,LED2*%
X129405000Y-82500000D03*
X128135000Y-83500000D03*
X126865000Y-82500000D03*
X125595000Y-83500000D03*
%TD*%
%TO.C,LED8*%
X167900000Y-72605000D03*
X166900000Y-71335000D03*
X167900000Y-70065000D03*
X166900000Y-68795000D03*
%TD*%
D11*
%TO.C,LED13*%
X181000000Y-79000000D03*
D10*
X181000000Y-81540000D03*
%TD*%
D11*
%TO.C,LED17*%
X190000000Y-112500000D03*
D10*
X190000000Y-115040000D03*
%TD*%
D11*
%TO.C,LED15*%
X168000000Y-112500000D03*
D10*
X168000000Y-115040000D03*
%TD*%
%TO.C,LED6*%
X129405000Y-125400000D03*
X128135000Y-126400000D03*
X126865000Y-125400000D03*
X125595000Y-126400000D03*
%TD*%
D11*
%TO.C,LED1*%
X127500000Y-70670000D03*
D10*
X127500000Y-73210000D03*
%TD*%
D13*
%TO.C,H4*%
X212000000Y-136000000D03*
%TD*%
D11*
%TO.C,LED16*%
X179000000Y-112500000D03*
D10*
X179000000Y-115040000D03*
%TD*%
D13*
%TO.C,H1*%
X122000000Y-64000000D03*
%TD*%
D14*
%TO.C,DS1*%
X173150000Y-104320000D03*
D15*
X175690000Y-104320000D03*
X178230000Y-104320000D03*
X180770000Y-104320000D03*
X183310000Y-104320000D03*
X185850000Y-104320000D03*
X185850000Y-89080000D03*
X183310000Y-89080000D03*
X180770000Y-89080000D03*
X178230000Y-89080000D03*
X175690000Y-89080000D03*
X173150000Y-89080000D03*
%TD*%
D10*
%TO.C,LED10*%
X189900000Y-72405000D03*
X188900000Y-71135000D03*
X189900000Y-69865000D03*
X188900000Y-68595000D03*
%TD*%
D13*
%TO.C,H2*%
X212000000Y-64000000D03*
%TD*%
D10*
%TO.C,LED9*%
X178900000Y-72505000D03*
X177900000Y-71235000D03*
X178900000Y-69965000D03*
X177900000Y-68695000D03*
%TD*%
%TO.C,LED7*%
X156900000Y-72605000D03*
X155900000Y-71335000D03*
X156900000Y-70065000D03*
X155900000Y-68795000D03*
%TD*%
%TO.C,LED3*%
X129405000Y-93500000D03*
X128135000Y-94500000D03*
X126865000Y-93500000D03*
X125595000Y-94500000D03*
%TD*%
D13*
%TO.C,H3*%
X122000000Y-136000000D03*
%TD*%
D10*
%TO.C,LED4*%
X129405000Y-102116000D03*
X128135000Y-103116000D03*
X126865000Y-102116000D03*
X125595000Y-103116000D03*
%TD*%
D16*
%TO.C,LS1*%
X204112000Y-122200000D03*
D17*
X204112000Y-129800000D03*
%TD*%
D18*
%TO.C,TP2*%
X164338000Y-121920000D03*
%TD*%
%TO.C,TP1*%
X173736000Y-128270000D03*
%TD*%
%TO.C,TP4*%
X151310000Y-121500000D03*
%TD*%
D19*
%TO.C,J1*%
X142708000Y-128076000D03*
D12*
X137708000Y-128076000D03*
%TD*%
D18*
%TO.C,TP3*%
X155010000Y-121440000D03*
%TD*%
D19*
%TO.C,J2*%
X168282000Y-128076000D03*
D12*
X163282000Y-128076000D03*
X158282000Y-128076000D03*
X153282000Y-128076000D03*
%TD*%
M02*
