M48
; DRILL file {KiCad 6.0.10-86aedd382b~118~ubuntu18.04.1} date Sun 09 Jun 2024 11:27:36 PM -03
; FORMAT={-:-/ absolute / metric / decimal}
; #@! TF.CreationDate,2024-06-09T23:27:36-03:00
; #@! TF.GenerationSoftware,Kicad,Pcbnew,6.0.10-86aedd382b~118~ubuntu18.04.1
; #@! TF.FileFunction,MixedPlating,1,2
FMAT,2
METRIC
; #@! TA.AperFunction,Plated,PTH,ViaDrill
T1C0.400
; #@! TA.AperFunction,Plated,PTH,ComponentDrill
T2C0.800
; #@! TA.AperFunction,Plated,PTH,ComponentDrill
T3C0.889
; #@! TA.AperFunction,Plated,PTH,ComponentDrill
T4C0.900
; #@! TA.AperFunction,Plated,PTH,ComponentDrill
T5C0.950
; #@! TA.AperFunction,Plated,PTH,ComponentDrill
T6C1.020
; #@! TA.AperFunction,Plated,PTH,ComponentDrill
T7C1.400
; #@! TA.AperFunction,Plated,PTH,ComponentDrill
T8C1.410
; #@! TA.AperFunction,NonPlated,NPTH,ComponentDrill
T9C3.200
%
G90
G05
T1
X132.6Y-128.1
X133.7Y-113.7
X133.9Y-98.6
X133.9Y-106.0
X134.0Y-96.5
X134.5Y-76.5
X134.866Y-114.666
X136.0Y-115.8
X137.2Y-100.8
X137.2Y-116.8
X138.1Y-106.4
X139.621Y-101.979
X140.4Y-104.1
X140.462Y-92.964
X140.6Y-105.9
X141.2Y-110.6
X141.3Y-87.2
X141.3Y-90.3
X142.9Y-90.4
X143.0Y-85.9
X144.4Y-84.6
X144.4Y-90.5
X145.0Y-105.0
X145.7Y-83.1
X145.7Y-90.7
X145.8Y-102.9
X146.9Y-82.2
X146.9Y-90.7
X147.9Y-108.9
X148.6Y-91.0
X149.3Y-102.0
X149.5Y-75.5
X150.0Y-111.249
X150.3Y-83.3
X150.3Y-91.0
X152.0Y-111.249
X153.1Y-74.4
X153.6Y-107.951
X157.1Y-118.6
X160.665Y-70.065
X161.5Y-77.0
X162.4Y-81.5
X162.7Y-105.0
X164.398Y-81.54
X169.5Y-76.5
X174.1Y-87.25
X175.0Y-136.325
X175.5Y-76.0
X181.5Y-97.0
X187.5Y-76.0
X193.115Y-129.815
X195.5Y-97.0
T2
X204.112Y-122.2
X204.112Y-129.8
T3
X125.595Y-83.5
X125.595Y-94.5
X125.595Y-103.116
X125.595Y-114.5
X125.595Y-126.4
X126.865Y-82.5
X126.865Y-93.5
X126.865Y-102.116
X126.865Y-113.5
X126.865Y-125.4
X128.135Y-83.5
X128.135Y-94.5
X128.135Y-103.116
X128.135Y-114.5
X128.135Y-126.4
X129.405Y-82.5
X129.405Y-93.5
X129.405Y-102.116
X129.405Y-113.5
X129.405Y-125.4
X155.9Y-68.795
X155.9Y-71.335
X156.9Y-70.065
X156.9Y-72.605
X166.9Y-68.795
X166.9Y-71.335
X167.9Y-70.065
X167.9Y-72.605
X177.9Y-68.695
X177.9Y-71.235
X178.9Y-69.965
X178.9Y-72.505
X188.9Y-68.595
X188.9Y-71.135
X189.9Y-69.865
X189.9Y-72.405
X199.9Y-68.581
X199.9Y-71.121
X200.9Y-69.851
X200.9Y-72.391
T4
X127.5Y-70.67
X127.5Y-73.21
X156.4Y-78.9
X156.4Y-81.44
X157.0Y-112.5
X157.0Y-115.04
X168.0Y-112.5
X168.0Y-115.04
X179.0Y-112.5
X179.0Y-115.04
X181.0Y-79.0
X181.0Y-81.54
X190.0Y-112.5
X190.0Y-115.04
X201.0Y-112.5
X201.0Y-115.04
T5
X173.15Y-89.08
X173.15Y-104.32
X175.69Y-89.08
X175.69Y-104.32
X178.23Y-89.08
X178.23Y-104.32
X180.77Y-89.08
X180.77Y-104.32
X183.31Y-89.08
X183.31Y-104.32
X185.85Y-89.08
X185.85Y-104.32
T6
X151.31Y-121.5
X155.01Y-121.44
X164.338Y-121.92
X173.736Y-128.27
T7
X137.708Y-128.076
X142.708Y-128.076
X153.282Y-128.076
X158.282Y-128.076
X163.282Y-128.076
X168.282Y-128.076
T8
X185.0Y-126.0
X185.0Y-131.0
T9
X122.0Y-64.0
X122.0Y-136.0
X212.0Y-64.0
X212.0Y-136.0
T0
M30
