%TF.GenerationSoftware,KiCad,Pcbnew,6.0.10-86aedd382b~118~ubuntu18.04.1*%
%TF.CreationDate,2024-06-09T23:27:39-03:00*%
%TF.ProjectId,salt_ihm,73616c74-5f69-4686-9d2e-6b696361645f,1.5*%
%TF.SameCoordinates,Original*%
%TF.FileFunction,Copper,L1,Top*%
%TF.FilePolarity,Positive*%
%FSLAX46Y46*%
G04 Gerber Fmt 4.6, Leading zero omitted, Abs format (unit mm)*
G04 Created by KiCad (PCBNEW 6.0.10-86aedd382b~118~ubuntu18.04.1) date 2024-06-09 23:27:39*
%MOMM*%
%LPD*%
G01*
G04 APERTURE LIST*
%TA.AperFunction,ComponentPad*%
%ADD10C,1.400000*%
%TD*%
%TA.AperFunction,ComponentPad*%
%ADD11R,1.400000X1.400000*%
%TD*%
%TA.AperFunction,ComponentPad*%
%ADD12C,3.000000*%
%TD*%
%TA.AperFunction,ComponentPad*%
%ADD13R,1.350000X1.350000*%
%TD*%
%TA.AperFunction,ComponentPad*%
%ADD14C,1.350000*%
%TD*%
%TA.AperFunction,ComponentPad*%
%ADD15R,2.500000X2.500000*%
%TD*%
%TA.AperFunction,ComponentPad*%
%ADD16C,2.500000*%
%TD*%
%TA.AperFunction,ComponentPad*%
%ADD17C,1.530000*%
%TD*%
%TA.AperFunction,ComponentPad*%
%ADD18R,3.000000X3.000000*%
%TD*%
%TA.AperFunction,ViaPad*%
%ADD19C,1.000000*%
%TD*%
%TA.AperFunction,Conductor*%
%ADD20C,0.500000*%
%TD*%
G04 APERTURE END LIST*
D10*
%TO.P,LED5,1,RED_CATHODE*%
%TO.N,/CC_5*%
X129405000Y-113500000D03*
%TO.P,LED5,2,COMMON_ANODE*%
%TO.N,/A_D*%
X128135000Y-114500000D03*
%TO.P,LED5,3,BLUE_CATHODE*%
%TO.N,unconnected-(LED5-Pad3)*%
X126865000Y-113500000D03*
%TO.P,LED5,4,GREEN_CATHODE*%
%TO.N,/CC_4*%
X125595000Y-114500000D03*
%TD*%
%TO.P,LED11,1,RED_CATHODE*%
%TO.N,/CC_7*%
X200900000Y-72391000D03*
%TO.P,LED11,2,COMMON_ANODE*%
%TO.N,/A_D*%
X199900000Y-71121000D03*
%TO.P,LED11,3,BLUE_CATHODE*%
%TO.N,unconnected-(LED11-Pad3)*%
X200900000Y-69851000D03*
%TO.P,LED11,4,GREEN_CATHODE*%
%TO.N,/CC_6*%
X199900000Y-68581000D03*
%TD*%
D11*
%TO.P,LED12,1,K*%
%TO.N,/CC_6*%
X156400000Y-78900000D03*
D10*
%TO.P,LED12,2,A*%
%TO.N,/A_DP*%
X156400000Y-81440000D03*
%TD*%
D11*
%TO.P,LED18,1,K*%
%TO.N,/CC_7*%
X201000000Y-112500000D03*
D10*
%TO.P,LED18,2,A*%
%TO.N,/A_G*%
X201000000Y-115040000D03*
%TD*%
D12*
%TO.P,S1,1*%
%TO.N,+5V*%
X185000000Y-126000000D03*
%TO.P,S1,2*%
%TO.N,Net-(R3-Pad1)*%
X185000000Y-131000000D03*
%TD*%
D11*
%TO.P,LED14,1,K*%
%TO.N,/CC_4*%
X157000000Y-112500000D03*
D10*
%TO.P,LED14,2,A*%
%TO.N,/A_DP*%
X157000000Y-115040000D03*
%TD*%
%TO.P,LED2,1,RED_CATHODE*%
%TO.N,/CC_5*%
X129405000Y-82500000D03*
%TO.P,LED2,2,COMMON_ANODE*%
%TO.N,/A_A*%
X128135000Y-83500000D03*
%TO.P,LED2,3,BLUE_CATHODE*%
%TO.N,unconnected-(LED2-Pad3)*%
X126865000Y-82500000D03*
%TO.P,LED2,4,GREEN_CATHODE*%
%TO.N,/CC_4*%
X125595000Y-83500000D03*
%TD*%
%TO.P,LED8,1,RED_CATHODE*%
%TO.N,/CC_7*%
X167900000Y-72605000D03*
%TO.P,LED8,2,COMMON_ANODE*%
%TO.N,/A_A*%
X166900000Y-71335000D03*
%TO.P,LED8,3,BLUE_CATHODE*%
%TO.N,unconnected-(LED8-Pad3)*%
X167900000Y-70065000D03*
%TO.P,LED8,4,GREEN_CATHODE*%
%TO.N,/CC_6*%
X166900000Y-68795000D03*
%TD*%
D11*
%TO.P,LED13,1,K*%
%TO.N,/CC_7*%
X181000000Y-79000000D03*
D10*
%TO.P,LED13,2,A*%
%TO.N,/A_DP*%
X181000000Y-81540000D03*
%TD*%
D11*
%TO.P,LED17,1,K*%
%TO.N,/CC_6*%
X190000000Y-112500000D03*
D10*
%TO.P,LED17,2,A*%
%TO.N,/A_G*%
X190000000Y-115040000D03*
%TD*%
D11*
%TO.P,LED15,1,K*%
%TO.N,/CC_4*%
X168000000Y-112500000D03*
D10*
%TO.P,LED15,2,A*%
%TO.N,/A_G*%
X168000000Y-115040000D03*
%TD*%
%TO.P,LED6,1,RED_CATHODE*%
%TO.N,/CC_5*%
X129405000Y-125400000D03*
%TO.P,LED6,2,COMMON_ANODE*%
%TO.N,/A_E*%
X128135000Y-126400000D03*
%TO.P,LED6,3,BLUE_CATHODE*%
%TO.N,unconnected-(LED6-Pad3)*%
X126865000Y-125400000D03*
%TO.P,LED6,4,GREEN_CATHODE*%
%TO.N,/CC_4*%
X125595000Y-126400000D03*
%TD*%
D11*
%TO.P,LED1,1,K*%
%TO.N,/CC_5*%
X127500000Y-70670000D03*
D10*
%TO.P,LED1,2,A*%
%TO.N,/A_DP*%
X127500000Y-73210000D03*
%TD*%
D11*
%TO.P,LED16,1,K*%
%TO.N,/CC_5*%
X179000000Y-112500000D03*
D10*
%TO.P,LED16,2,A*%
%TO.N,/A_G*%
X179000000Y-115040000D03*
%TD*%
D13*
%TO.P,DS1,1,A_E*%
%TO.N,/A_E*%
X173150000Y-104320000D03*
D14*
%TO.P,DS1,2,A_D*%
%TO.N,/A_D*%
X175690000Y-104320000D03*
%TO.P,DS1,3,A_D.P.*%
%TO.N,/A_DP*%
X178230000Y-104320000D03*
%TO.P,DS1,4,A_C*%
%TO.N,/A_C*%
X180770000Y-104320000D03*
%TO.P,DS1,5,A_G*%
%TO.N,/A_G*%
X183310000Y-104320000D03*
%TO.P,DS1,6,COMMON_K_(DIGIT_4)*%
%TO.N,/CC_3*%
X185850000Y-104320000D03*
%TO.P,DS1,7,A_B*%
%TO.N,/A_B*%
X185850000Y-89080000D03*
%TO.P,DS1,8,COMMON_K_(DIGIT_3)*%
%TO.N,/CC_2*%
X183310000Y-89080000D03*
%TO.P,DS1,9,COMMON_K_(DIGIT_2)*%
%TO.N,/CC_1*%
X180770000Y-89080000D03*
%TO.P,DS1,10,A_F*%
%TO.N,/A_F*%
X178230000Y-89080000D03*
%TO.P,DS1,11,A_A*%
%TO.N,/A_A*%
X175690000Y-89080000D03*
%TO.P,DS1,12,COMMON_K_(DIGIT_1)*%
%TO.N,/CC_0*%
X173150000Y-89080000D03*
%TD*%
D10*
%TO.P,LED10,1,RED_CATHODE*%
%TO.N,/CC_7*%
X189900000Y-72405000D03*
%TO.P,LED10,2,COMMON_ANODE*%
%TO.N,/A_C*%
X188900000Y-71135000D03*
%TO.P,LED10,3,BLUE_CATHODE*%
%TO.N,unconnected-(LED10-Pad3)*%
X189900000Y-69865000D03*
%TO.P,LED10,4,GREEN_CATHODE*%
%TO.N,/CC_6*%
X188900000Y-68595000D03*
%TD*%
%TO.P,LED9,1,RED_CATHODE*%
%TO.N,/CC_7*%
X178900000Y-72505000D03*
%TO.P,LED9,2,COMMON_ANODE*%
%TO.N,/A_B*%
X177900000Y-71235000D03*
%TO.P,LED9,3,BLUE_CATHODE*%
%TO.N,unconnected-(LED9-Pad3)*%
X178900000Y-69965000D03*
%TO.P,LED9,4,GREEN_CATHODE*%
%TO.N,/CC_6*%
X177900000Y-68695000D03*
%TD*%
%TO.P,LED7,1,RED_CATHODE*%
%TO.N,/CC_5*%
X156900000Y-72605000D03*
%TO.P,LED7,2,COMMON_ANODE*%
%TO.N,/A_F*%
X155900000Y-71335000D03*
%TO.P,LED7,3,BLUE_CATHODE*%
%TO.N,/CC_6*%
X156900000Y-70065000D03*
%TO.P,LED7,4,GREEN_CATHODE*%
%TO.N,/CC_4*%
X155900000Y-68795000D03*
%TD*%
%TO.P,LED3,1,RED_CATHODE*%
%TO.N,/CC_5*%
X129405000Y-93500000D03*
%TO.P,LED3,2,COMMON_ANODE*%
%TO.N,/A_B*%
X128135000Y-94500000D03*
%TO.P,LED3,3,BLUE_CATHODE*%
%TO.N,unconnected-(LED3-Pad3)*%
X126865000Y-93500000D03*
%TO.P,LED3,4,GREEN_CATHODE*%
%TO.N,/CC_4*%
X125595000Y-94500000D03*
%TD*%
%TO.P,LED4,1,RED_CATHODE*%
%TO.N,/CC_5*%
X129405000Y-102116000D03*
%TO.P,LED4,2,COMMON_ANODE*%
%TO.N,/A_C*%
X128135000Y-103116000D03*
%TO.P,LED4,3,BLUE_CATHODE*%
%TO.N,unconnected-(LED4-Pad3)*%
X126865000Y-102116000D03*
%TO.P,LED4,4,GREEN_CATHODE*%
%TO.N,/CC_4*%
X125595000Y-103116000D03*
%TD*%
D15*
%TO.P,LS1,1,1*%
%TO.N,Net-(C1-Pad2)*%
X204112000Y-122200000D03*
D16*
%TO.P,LS1,2,2*%
%TO.N,GND*%
X204112000Y-129800000D03*
%TD*%
D17*
%TO.P,TP2,1,1*%
%TO.N,/BUZZER_C*%
X164338000Y-121920000D03*
%TD*%
%TO.P,TP1,1,1*%
%TO.N,/CHOP_SEL*%
X173736000Y-128270000D03*
%TD*%
%TO.P,TP4,1,1*%
%TO.N,/SCL*%
X151310000Y-121500000D03*
%TD*%
D18*
%TO.P,J1,1,1*%
%TO.N,+5V*%
X142708000Y-128076000D03*
D12*
%TO.P,J1,2,2*%
%TO.N,GND*%
X137708000Y-128076000D03*
%TD*%
D17*
%TO.P,TP3,1,1*%
%TO.N,/SDA*%
X155010000Y-121440000D03*
%TD*%
D18*
%TO.P,J2,1,1*%
%TO.N,/CHOP_SEL*%
X168282000Y-128076000D03*
D12*
%TO.P,J2,2,2*%
%TO.N,/BUZZER_C*%
X163282000Y-128076000D03*
%TO.P,J2,3,3*%
%TO.N,/SDA*%
X158282000Y-128076000D03*
%TO.P,J2,4,4*%
%TO.N,/SCL*%
X153282000Y-128076000D03*
%TD*%
D19*
%TO.N,GND*%
X161500000Y-77000000D03*
X149500000Y-75500000D03*
X169500000Y-76500000D03*
X175500000Y-76000000D03*
X187500000Y-76000000D03*
X134500000Y-76500000D03*
X195500000Y-97000000D03*
X181500000Y-97000000D03*
X193115500Y-129815500D03*
X132600000Y-128100000D03*
X134000000Y-96500000D03*
X175000000Y-136325000D03*
%TO.N,+5V*%
X133900000Y-98600000D03*
X133900000Y-106000000D03*
%TO.N,/A_E*%
X140600000Y-105900000D03*
X134866470Y-114666470D03*
%TO.N,/A_D*%
X133700000Y-113700000D03*
X138100000Y-106400000D03*
%TO.N,/A_DP*%
X153600000Y-107951000D03*
X162400000Y-81500000D03*
X137200000Y-100800000D03*
X164398500Y-81540000D03*
X140400000Y-104100000D03*
%TO.N,/A_C*%
X147900500Y-108900500D03*
X145000000Y-105000000D03*
%TO.N,/A_G*%
X162700000Y-105000000D03*
%TO.N,/CC_3*%
X144400000Y-84600000D03*
X144400000Y-90500000D03*
%TO.N,/A_B*%
X139621398Y-101978602D03*
X145800000Y-102900000D03*
%TO.N,/CC_2*%
X143000000Y-85900000D03*
X142900000Y-90400000D03*
%TO.N,/CC_1*%
X141300000Y-87200000D03*
X141300000Y-90300000D03*
%TO.N,/A_F*%
X174100000Y-87250000D03*
X153100000Y-74400000D03*
%TO.N,/SDA*%
X140462000Y-92964000D03*
X152000000Y-111249500D03*
%TO.N,/CC_4*%
X145700000Y-83100000D03*
X136000000Y-115800000D03*
X145700000Y-90700000D03*
X141200000Y-110600000D03*
%TO.N,/CC_5*%
X157100000Y-118600000D03*
X146900000Y-82200000D03*
X146900000Y-90700000D03*
X137200000Y-116800000D03*
%TO.N,/CC_6*%
X160665000Y-70065000D03*
X148600000Y-91000000D03*
%TO.N,/CC_7*%
X150300000Y-91000000D03*
X150300000Y-83300000D03*
%TO.N,/SCL*%
X150000000Y-111249500D03*
X149300000Y-102000000D03*
%TD*%
D20*
%TO.N,+5V*%
X133900000Y-98600000D02*
X133900000Y-106000000D01*
%TO.N,/A_E*%
X140600000Y-105900000D02*
X137200000Y-109300000D01*
X137200000Y-109300000D02*
X137200000Y-112400000D01*
X134933530Y-114666470D02*
X134866470Y-114666470D01*
X137200000Y-112400000D02*
X134933530Y-114666470D01*
%TO.N,/A_D*%
X138000000Y-106400000D02*
X138100000Y-106400000D01*
X133700000Y-113700000D02*
X135600000Y-111800000D01*
X135600000Y-108800000D02*
X138000000Y-106400000D01*
X135600000Y-111800000D02*
X135600000Y-108800000D01*
%TO.N,/A_DP*%
X164358500Y-81500000D02*
X164398500Y-81540000D01*
X137200000Y-100900000D02*
X137200000Y-100800000D01*
X153600000Y-115000000D02*
X153560000Y-115040000D01*
X162400000Y-81500000D02*
X164358500Y-81500000D01*
X140400000Y-104100000D02*
X151340000Y-115040000D01*
X153600000Y-107951000D02*
X153600000Y-115000000D01*
X157000000Y-115040000D02*
X153560000Y-115040000D01*
X140400000Y-104100000D02*
X137200000Y-100900000D01*
X151340000Y-115040000D02*
X153560000Y-115040000D01*
%TO.N,/A_C*%
X145000000Y-106000000D02*
X147900500Y-108900500D01*
X145000000Y-105000000D02*
X145000000Y-106000000D01*
%TO.N,/A_G*%
X162700000Y-113200000D02*
X164540000Y-115040000D01*
X162700000Y-113200000D02*
X162700000Y-105000000D01*
X168000000Y-115040000D02*
X164540000Y-115040000D01*
X168000000Y-115040000D02*
X179000000Y-115040000D01*
%TO.N,/CC_3*%
X144400000Y-90500000D02*
X144400000Y-84600000D01*
%TO.N,/A_B*%
X139621398Y-101978602D02*
X144878602Y-101978602D01*
X144878602Y-101978602D02*
X145800000Y-102900000D01*
%TO.N,/CC_2*%
X143000000Y-85900000D02*
X143000000Y-90300000D01*
X143000000Y-90300000D02*
X142900000Y-90400000D01*
%TO.N,/CC_1*%
X141300000Y-90300000D02*
X141300000Y-87200000D01*
%TO.N,/A_F*%
X161250000Y-74400000D02*
X174100000Y-87250000D01*
X153100000Y-74400000D02*
X161250000Y-74400000D01*
%TO.N,/A_A*%
X165765000Y-71335000D02*
X164600000Y-72500000D01*
X175690000Y-89080000D02*
X175690000Y-86690000D01*
X166900000Y-71335000D02*
X165765000Y-71335000D01*
X164600000Y-75600000D02*
X175690000Y-86690000D01*
X164600000Y-72500000D02*
X164600000Y-75600000D01*
%TO.N,/SDA*%
X148564000Y-92964000D02*
X140462000Y-92964000D01*
X151970000Y-96370000D02*
X148564000Y-92964000D01*
X152000000Y-110728500D02*
X151970000Y-110698500D01*
X151970000Y-110698500D02*
X151970000Y-96370000D01*
X152000000Y-111249500D02*
X152000000Y-110728500D01*
%TO.N,/CC_4*%
X125595000Y-94500000D02*
X125595000Y-83500000D01*
X126905000Y-68795000D02*
X125595000Y-70105000D01*
X136000000Y-115800000D02*
X141200000Y-110600000D01*
X125595000Y-70105000D02*
X125595000Y-83500000D01*
X125595000Y-103116000D02*
X125595000Y-94500000D01*
X125595000Y-126400000D02*
X125595000Y-114500000D01*
X125595000Y-114500000D02*
X125595000Y-103116000D01*
X145700000Y-90700000D02*
X145700000Y-83100000D01*
X155900000Y-68795000D02*
X126905000Y-68795000D01*
%TO.N,/CC_5*%
X129405000Y-82500000D02*
X129405000Y-72505000D01*
X129405000Y-125400000D02*
X129405000Y-113500000D01*
X155300000Y-116800000D02*
X157100000Y-118600000D01*
X137200000Y-116800000D02*
X155300000Y-116800000D01*
X128970000Y-70670000D02*
X127500000Y-70670000D01*
X129505000Y-72605000D02*
X129405000Y-72505000D01*
X129405000Y-71105000D02*
X128970000Y-70670000D01*
X129405000Y-102116000D02*
X129405000Y-93500000D01*
X146900000Y-82600000D02*
X146900000Y-82200000D01*
X129405000Y-72505000D02*
X129405000Y-71105000D01*
X129405000Y-113500000D02*
X129405000Y-102116000D01*
X156900000Y-72605000D02*
X129505000Y-72605000D01*
X146900000Y-90700000D02*
X146900000Y-82600000D01*
X129405000Y-93500000D02*
X129405000Y-82500000D01*
%TO.N,/CC_6*%
X156900000Y-70065000D02*
X160665000Y-70065000D01*
X160665000Y-70065000D02*
X162435000Y-70065000D01*
X177900000Y-68695000D02*
X188800000Y-68695000D01*
X188900000Y-68595000D02*
X199886000Y-68595000D01*
X151000000Y-78900000D02*
X148600000Y-81300000D01*
X162435000Y-70065000D02*
X163705000Y-68795000D01*
X177900000Y-68695000D02*
X167000000Y-68695000D01*
X156400000Y-78900000D02*
X151000000Y-78900000D01*
X163705000Y-68795000D02*
X166900000Y-68795000D01*
X148600000Y-81300000D02*
X148600000Y-91000000D01*
%TO.N,/CC_7*%
X189900000Y-72405000D02*
X179000000Y-72405000D01*
X189900000Y-72405000D02*
X200886000Y-72405000D01*
X150300000Y-91000000D02*
X150300000Y-83300000D01*
X167900000Y-72605000D02*
X178800000Y-72605000D01*
%TO.N,/SCL*%
X150000000Y-111249500D02*
X150000000Y-102700000D01*
X150000000Y-102700000D02*
X149300000Y-102000000D01*
%TD*%
%TA.AperFunction,Conductor*%
%TO.N,GND*%
G36*
X212970489Y-59501976D02*
G01*
X212985093Y-59504250D01*
X212985095Y-59504250D01*
X212993823Y-59505609D01*
X213012867Y-59503119D01*
X213035026Y-59502221D01*
X213336931Y-59517052D01*
X213349036Y-59518245D01*
X213676703Y-59566850D01*
X213688618Y-59569220D01*
X214009951Y-59649709D01*
X214021589Y-59653240D01*
X214333460Y-59764830D01*
X214344702Y-59769486D01*
X214644151Y-59911115D01*
X214654883Y-59916852D01*
X214938989Y-60087138D01*
X214949107Y-60093898D01*
X215215181Y-60291232D01*
X215224557Y-60298927D01*
X215470014Y-60521396D01*
X215478604Y-60529986D01*
X215701073Y-60775443D01*
X215708768Y-60784819D01*
X215891601Y-61031341D01*
X215906102Y-61050893D01*
X215912862Y-61061011D01*
X216083148Y-61345117D01*
X216088885Y-61355849D01*
X216230514Y-61655298D01*
X216235170Y-61666540D01*
X216346760Y-61978411D01*
X216350291Y-61990049D01*
X216430780Y-62311382D01*
X216433150Y-62323297D01*
X216481755Y-62650961D01*
X216482948Y-62663072D01*
X216497423Y-62957713D01*
X216496095Y-62982877D01*
X216495750Y-62985091D01*
X216495750Y-62985095D01*
X216494391Y-62993823D01*
X216495537Y-63002585D01*
X216498453Y-63024886D01*
X216499500Y-63040964D01*
X216499500Y-136951413D01*
X216498024Y-136970489D01*
X216496695Y-136979028D01*
X216494391Y-136993823D01*
X216496189Y-137007573D01*
X216496881Y-137012866D01*
X216497779Y-137035026D01*
X216488711Y-137219623D01*
X216482948Y-137336928D01*
X216481755Y-137349036D01*
X216439158Y-137636209D01*
X216433152Y-137676695D01*
X216430780Y-137688618D01*
X216369402Y-137933656D01*
X216350293Y-138009944D01*
X216346760Y-138021589D01*
X216235170Y-138333460D01*
X216230514Y-138344702D01*
X216088885Y-138644151D01*
X216083148Y-138654883D01*
X215912862Y-138938989D01*
X215906102Y-138949107D01*
X215708768Y-139215181D01*
X215701073Y-139224557D01*
X215478604Y-139470014D01*
X215470014Y-139478604D01*
X215224557Y-139701073D01*
X215215181Y-139708768D01*
X214968659Y-139891601D01*
X214949107Y-139906102D01*
X214938989Y-139912862D01*
X214654883Y-140083148D01*
X214644151Y-140088885D01*
X214344702Y-140230514D01*
X214333460Y-140235170D01*
X214021589Y-140346760D01*
X214009951Y-140350291D01*
X213688618Y-140430780D01*
X213676703Y-140433150D01*
X213349036Y-140481755D01*
X213336931Y-140482948D01*
X213042283Y-140497423D01*
X213017123Y-140496095D01*
X213014909Y-140495750D01*
X213014905Y-140495750D01*
X213006177Y-140494391D01*
X212976093Y-140498325D01*
X212975114Y-140498453D01*
X212959036Y-140499500D01*
X121048587Y-140499500D01*
X121029511Y-140498024D01*
X121014907Y-140495750D01*
X121014905Y-140495750D01*
X121006177Y-140494391D01*
X120987134Y-140496881D01*
X120964974Y-140497779D01*
X120663069Y-140482948D01*
X120650964Y-140481755D01*
X120323297Y-140433150D01*
X120311382Y-140430780D01*
X119990049Y-140350291D01*
X119978411Y-140346760D01*
X119666540Y-140235170D01*
X119655298Y-140230514D01*
X119355849Y-140088885D01*
X119345117Y-140083148D01*
X119061011Y-139912862D01*
X119050893Y-139906102D01*
X119031341Y-139891601D01*
X118784819Y-139708768D01*
X118775443Y-139701073D01*
X118529986Y-139478604D01*
X118521396Y-139470014D01*
X118298927Y-139224557D01*
X118291232Y-139215181D01*
X118093898Y-138949107D01*
X118087138Y-138938989D01*
X117916852Y-138654883D01*
X117911115Y-138644151D01*
X117769486Y-138344702D01*
X117764830Y-138333460D01*
X117653240Y-138021589D01*
X117649707Y-138009944D01*
X117630598Y-137933656D01*
X117569220Y-137688618D01*
X117566848Y-137676695D01*
X117560843Y-137636209D01*
X117518245Y-137349036D01*
X117517052Y-137336928D01*
X117502758Y-137045959D01*
X117504327Y-137019304D01*
X117504703Y-137017072D01*
X117504704Y-137017063D01*
X117505496Y-137012354D01*
X117505647Y-137000000D01*
X117504763Y-136993823D01*
X117501752Y-136972802D01*
X117500500Y-136955223D01*
X117500500Y-136132200D01*
X119898747Y-136132200D01*
X119936129Y-136416149D01*
X120011702Y-136692398D01*
X120013358Y-136696281D01*
X120013360Y-136696286D01*
X120099445Y-136898108D01*
X120124068Y-136955835D01*
X120126237Y-136959460D01*
X120126238Y-136959461D01*
X120160718Y-137017072D01*
X120271146Y-137201585D01*
X120450215Y-137425100D01*
X120569103Y-137537920D01*
X120654897Y-137619337D01*
X120654902Y-137619341D01*
X120657962Y-137622245D01*
X120661388Y-137624707D01*
X120661393Y-137624711D01*
X120791669Y-137718323D01*
X120890543Y-137789371D01*
X120915963Y-137802830D01*
X121139928Y-137921414D01*
X121139931Y-137921416D01*
X121143653Y-137923386D01*
X121278131Y-137972598D01*
X121408655Y-138020363D01*
X121408659Y-138020364D01*
X121412610Y-138021810D01*
X121416724Y-138022707D01*
X121688316Y-138081924D01*
X121688320Y-138081925D01*
X121692436Y-138082822D01*
X121696640Y-138083153D01*
X121696641Y-138083153D01*
X121721037Y-138085073D01*
X121917053Y-138100500D01*
X122071992Y-138100500D01*
X122244449Y-138088743D01*
X122281528Y-138086215D01*
X122281529Y-138086215D01*
X122285737Y-138085928D01*
X122300736Y-138082822D01*
X122351913Y-138072224D01*
X122566186Y-138027850D01*
X122570154Y-138026445D01*
X122570157Y-138026444D01*
X122670428Y-137990936D01*
X122836158Y-137932248D01*
X122977122Y-137859491D01*
X123086902Y-137802830D01*
X123086906Y-137802827D01*
X123090658Y-137800891D01*
X123094114Y-137798462D01*
X123094119Y-137798459D01*
X123321519Y-137638639D01*
X123321522Y-137638636D01*
X123324976Y-137636209D01*
X123534776Y-137441251D01*
X123716177Y-137219623D01*
X123865820Y-136975427D01*
X123874421Y-136955835D01*
X123979241Y-136717047D01*
X123980938Y-136713182D01*
X124059400Y-136437739D01*
X124099754Y-136154196D01*
X124099869Y-136132200D01*
X209898747Y-136132200D01*
X209936129Y-136416149D01*
X210011702Y-136692398D01*
X210013358Y-136696281D01*
X210013360Y-136696286D01*
X210099445Y-136898108D01*
X210124068Y-136955835D01*
X210126237Y-136959460D01*
X210126238Y-136959461D01*
X210160718Y-137017072D01*
X210271146Y-137201585D01*
X210450215Y-137425100D01*
X210569103Y-137537920D01*
X210654897Y-137619337D01*
X210654902Y-137619341D01*
X210657962Y-137622245D01*
X210661388Y-137624707D01*
X210661393Y-137624711D01*
X210791669Y-137718323D01*
X210890543Y-137789371D01*
X210915963Y-137802830D01*
X211139928Y-137921414D01*
X211139931Y-137921416D01*
X211143653Y-137923386D01*
X211278131Y-137972598D01*
X211408655Y-138020363D01*
X211408659Y-138020364D01*
X211412610Y-138021810D01*
X211416724Y-138022707D01*
X211688316Y-138081924D01*
X211688320Y-138081925D01*
X211692436Y-138082822D01*
X211696640Y-138083153D01*
X211696641Y-138083153D01*
X211721037Y-138085073D01*
X211917053Y-138100500D01*
X212071992Y-138100500D01*
X212244449Y-138088743D01*
X212281528Y-138086215D01*
X212281529Y-138086215D01*
X212285737Y-138085928D01*
X212300736Y-138082822D01*
X212351913Y-138072224D01*
X212566186Y-138027850D01*
X212570154Y-138026445D01*
X212570157Y-138026444D01*
X212670428Y-137990936D01*
X212836158Y-137932248D01*
X212977122Y-137859491D01*
X213086902Y-137802830D01*
X213086906Y-137802827D01*
X213090658Y-137800891D01*
X213094114Y-137798462D01*
X213094119Y-137798459D01*
X213321519Y-137638639D01*
X213321522Y-137638636D01*
X213324976Y-137636209D01*
X213534776Y-137441251D01*
X213716177Y-137219623D01*
X213865820Y-136975427D01*
X213874421Y-136955835D01*
X213979241Y-136717047D01*
X213980938Y-136713182D01*
X214059400Y-136437739D01*
X214099754Y-136154196D01*
X214101253Y-135867800D01*
X214063871Y-135583851D01*
X213988298Y-135307602D01*
X213981165Y-135290877D01*
X213877589Y-135048050D01*
X213875932Y-135044165D01*
X213866520Y-135028438D01*
X213731021Y-134802035D01*
X213731018Y-134802030D01*
X213728854Y-134798415D01*
X213549785Y-134574900D01*
X213430897Y-134462080D01*
X213345103Y-134380663D01*
X213345098Y-134380659D01*
X213342038Y-134377755D01*
X213338612Y-134375293D01*
X213338607Y-134375289D01*
X213208331Y-134281677D01*
X213109457Y-134210629D01*
X213036785Y-134172151D01*
X212860072Y-134078586D01*
X212860069Y-134078584D01*
X212856347Y-134076614D01*
X212721869Y-134027402D01*
X212591345Y-133979637D01*
X212591341Y-133979636D01*
X212587390Y-133978190D01*
X212555771Y-133971296D01*
X212311684Y-133918076D01*
X212311680Y-133918075D01*
X212307564Y-133917178D01*
X212303360Y-133916847D01*
X212303359Y-133916847D01*
X212264452Y-133913785D01*
X212082947Y-133899500D01*
X211928008Y-133899500D01*
X211755551Y-133911257D01*
X211718472Y-133913785D01*
X211718471Y-133913785D01*
X211714263Y-133914072D01*
X211710135Y-133914927D01*
X211710134Y-133914927D01*
X211694928Y-133918076D01*
X211433814Y-133972150D01*
X211429846Y-133973555D01*
X211429843Y-133973556D01*
X211412671Y-133979637D01*
X211163842Y-134067752D01*
X211022878Y-134140509D01*
X210913098Y-134197170D01*
X210913094Y-134197173D01*
X210909342Y-134199109D01*
X210905886Y-134201538D01*
X210905881Y-134201541D01*
X210678481Y-134361361D01*
X210678478Y-134361364D01*
X210675024Y-134363791D01*
X210465224Y-134558749D01*
X210283823Y-134780377D01*
X210134180Y-135024573D01*
X210132485Y-135028434D01*
X210132483Y-135028438D01*
X210123874Y-135048050D01*
X210019062Y-135286818D01*
X209940600Y-135562261D01*
X209900246Y-135845804D01*
X209898747Y-136132200D01*
X124099869Y-136132200D01*
X124101253Y-135867800D01*
X124063871Y-135583851D01*
X123988298Y-135307602D01*
X123981165Y-135290877D01*
X123877589Y-135048050D01*
X123875932Y-135044165D01*
X123866520Y-135028438D01*
X123731021Y-134802035D01*
X123731018Y-134802030D01*
X123728854Y-134798415D01*
X123549785Y-134574900D01*
X123430897Y-134462080D01*
X123345103Y-134380663D01*
X123345098Y-134380659D01*
X123342038Y-134377755D01*
X123338612Y-134375293D01*
X123338607Y-134375289D01*
X123208331Y-134281677D01*
X123109457Y-134210629D01*
X123036785Y-134172151D01*
X122860072Y-134078586D01*
X122860069Y-134078584D01*
X122856347Y-134076614D01*
X122721869Y-134027402D01*
X122591345Y-133979637D01*
X122591341Y-133979636D01*
X122587390Y-133978190D01*
X122555771Y-133971296D01*
X122311684Y-133918076D01*
X122311680Y-133918075D01*
X122307564Y-133917178D01*
X122303360Y-133916847D01*
X122303359Y-133916847D01*
X122264452Y-133913785D01*
X122082947Y-133899500D01*
X121928008Y-133899500D01*
X121755551Y-133911257D01*
X121718472Y-133913785D01*
X121718471Y-133913785D01*
X121714263Y-133914072D01*
X121710135Y-133914927D01*
X121710134Y-133914927D01*
X121694928Y-133918076D01*
X121433814Y-133972150D01*
X121429846Y-133973555D01*
X121429843Y-133973556D01*
X121412671Y-133979637D01*
X121163842Y-134067752D01*
X121022878Y-134140509D01*
X120913098Y-134197170D01*
X120913094Y-134197173D01*
X120909342Y-134199109D01*
X120905886Y-134201538D01*
X120905881Y-134201541D01*
X120678481Y-134361361D01*
X120678478Y-134361364D01*
X120675024Y-134363791D01*
X120465224Y-134558749D01*
X120283823Y-134780377D01*
X120134180Y-135024573D01*
X120132485Y-135028434D01*
X120132483Y-135028438D01*
X120123874Y-135048050D01*
X120019062Y-135286818D01*
X119940600Y-135562261D01*
X119900246Y-135845804D01*
X119898747Y-136132200D01*
X117500500Y-136132200D01*
X117500500Y-130937002D01*
X182995380Y-130937002D01*
X183006502Y-131220084D01*
X183057400Y-131498775D01*
X183147058Y-131767514D01*
X183273687Y-132020939D01*
X183276182Y-132024549D01*
X183276185Y-132024554D01*
X183432270Y-132250389D01*
X183434761Y-132253993D01*
X183437731Y-132257205D01*
X183437735Y-132257211D01*
X183557633Y-132386916D01*
X183627065Y-132462027D01*
X183846764Y-132640889D01*
X183850518Y-132643149D01*
X184018090Y-132744036D01*
X184089472Y-132787012D01*
X184227409Y-132845420D01*
X184346309Y-132895768D01*
X184346313Y-132895769D01*
X184350348Y-132897478D01*
X184354591Y-132898603D01*
X184619938Y-132968959D01*
X184619943Y-132968960D01*
X184624186Y-132970085D01*
X184628543Y-132970601D01*
X184628550Y-132970602D01*
X184772884Y-132987685D01*
X184905523Y-133003384D01*
X184909900Y-133003281D01*
X184909903Y-133003281D01*
X185082860Y-132999205D01*
X185188745Y-132996709D01*
X185193062Y-132995990D01*
X185193067Y-132995990D01*
X185463871Y-132950916D01*
X185463877Y-132950915D01*
X185468200Y-132950195D01*
X185472378Y-132948874D01*
X185472385Y-132948872D01*
X185640296Y-132895768D01*
X185738314Y-132864769D01*
X185993697Y-132742136D01*
X185997340Y-132739702D01*
X185997345Y-132739699D01*
X186225603Y-132587182D01*
X186225604Y-132587181D01*
X186229253Y-132584743D01*
X186440281Y-132395730D01*
X186622573Y-132178868D01*
X186772489Y-131938485D01*
X186887040Y-131679376D01*
X186888232Y-131675150D01*
X186962746Y-131410943D01*
X186962747Y-131410940D01*
X186963939Y-131406712D01*
X186991566Y-131201026D01*
X203069975Y-131201026D01*
X203078548Y-131212362D01*
X203178336Y-131285530D01*
X203186106Y-131290385D01*
X203408167Y-131407216D01*
X203416570Y-131410870D01*
X203653450Y-131493592D01*
X203662320Y-131495969D01*
X203908824Y-131542769D01*
X203917935Y-131543807D01*
X204168638Y-131553657D01*
X204177826Y-131553336D01*
X204427235Y-131526022D01*
X204436249Y-131524351D01*
X204678897Y-131460467D01*
X204687569Y-131457481D01*
X204918091Y-131358441D01*
X204926241Y-131354199D01*
X205139597Y-131222170D01*
X205147022Y-131216775D01*
X205148684Y-131215368D01*
X205156990Y-131202765D01*
X205151024Y-131192578D01*
X204124607Y-130166160D01*
X204110887Y-130158668D01*
X204109081Y-130158797D01*
X204102574Y-130162979D01*
X203076526Y-131189028D01*
X203069975Y-131201026D01*
X186991566Y-131201026D01*
X187001652Y-131125933D01*
X187005610Y-131000000D01*
X186985601Y-130717407D01*
X186925975Y-130440453D01*
X186827920Y-130174663D01*
X186795118Y-130113869D01*
X186748200Y-130026916D01*
X186693393Y-129925340D01*
X186607778Y-129809426D01*
X186570286Y-129758666D01*
X202357915Y-129758666D01*
X202369953Y-130009277D01*
X202371071Y-130018380D01*
X202420021Y-130264468D01*
X202422470Y-130273302D01*
X202507261Y-130509462D01*
X202510987Y-130517831D01*
X202629749Y-130738859D01*
X202634678Y-130746597D01*
X202699752Y-130833740D01*
X202710833Y-130842056D01*
X202723054Y-130835392D01*
X203745840Y-129812607D01*
X203752116Y-129801113D01*
X204470668Y-129801113D01*
X204470797Y-129802919D01*
X204474979Y-129809426D01*
X205504115Y-130838561D01*
X205516296Y-130845212D01*
X205524506Y-130839066D01*
X205651752Y-130641240D01*
X205656134Y-130633168D01*
X205759183Y-130404411D01*
X205762322Y-130395785D01*
X205830426Y-130154308D01*
X205832258Y-130145305D01*
X205864109Y-129894931D01*
X205864583Y-129888736D01*
X205866826Y-129803100D01*
X205866677Y-129796902D01*
X205847972Y-129545202D01*
X205846614Y-129536113D01*
X205791242Y-129291404D01*
X205788558Y-129282627D01*
X205697620Y-129048779D01*
X205693673Y-129040503D01*
X205569164Y-128822657D01*
X205564038Y-128815058D01*
X205525024Y-128765569D01*
X205513287Y-128757233D01*
X205501939Y-128763615D01*
X204478160Y-129787393D01*
X204470668Y-129801113D01*
X203752116Y-129801113D01*
X203753332Y-129798887D01*
X203753203Y-129797081D01*
X203749021Y-129790574D01*
X202721366Y-128762920D01*
X202708270Y-128755769D01*
X202698393Y-128762776D01*
X202686242Y-128777387D01*
X202680919Y-128784849D01*
X202550755Y-128999353D01*
X202546585Y-129007535D01*
X202449557Y-129238923D01*
X202446650Y-129247611D01*
X202384887Y-129490803D01*
X202383293Y-129499846D01*
X202358156Y-129749476D01*
X202357915Y-129758666D01*
X186570286Y-129758666D01*
X186540800Y-129718746D01*
X186525078Y-129697460D01*
X186521997Y-129694330D01*
X186329413Y-129498697D01*
X186329408Y-129498692D01*
X186326334Y-129495570D01*
X186101126Y-129323696D01*
X185984220Y-129258226D01*
X185857771Y-129187411D01*
X185857765Y-129187408D01*
X185853947Y-129185270D01*
X185625626Y-129096939D01*
X185593825Y-129084636D01*
X185593822Y-129084635D01*
X185589730Y-129083052D01*
X185585453Y-129082061D01*
X185585451Y-129082060D01*
X185318015Y-129020071D01*
X185318011Y-129020070D01*
X185313747Y-129019082D01*
X185100325Y-129000598D01*
X185035869Y-128995015D01*
X185035867Y-128995015D01*
X185031503Y-128994637D01*
X184748630Y-129010205D01*
X184744324Y-129011061D01*
X184744320Y-129011062D01*
X184610861Y-129037609D01*
X184470774Y-129065474D01*
X184466640Y-129066926D01*
X184466639Y-129066926D01*
X184370880Y-129100554D01*
X184203476Y-129159342D01*
X183952072Y-129289936D01*
X183721576Y-129454651D01*
X183718406Y-129457675D01*
X183718400Y-129457680D01*
X183548229Y-129620015D01*
X183516588Y-129650199D01*
X183513873Y-129653642D01*
X183513872Y-129653644D01*
X183348821Y-129863012D01*
X183341199Y-129872680D01*
X183338997Y-129876471D01*
X183338995Y-129876474D01*
X183312660Y-129921813D01*
X183198907Y-130117654D01*
X183092552Y-130380232D01*
X183091495Y-130384486D01*
X183091494Y-130384490D01*
X183060451Y-130509462D01*
X183024255Y-130655177D01*
X183023808Y-130659540D01*
X183004785Y-130845212D01*
X182995380Y-130937002D01*
X117500500Y-130937002D01*
X117500500Y-129656660D01*
X136486756Y-129656660D01*
X136494028Y-129666798D01*
X136551643Y-129713704D01*
X136558818Y-129718746D01*
X136793939Y-129860301D01*
X136801740Y-129864276D01*
X137054471Y-129971294D01*
X137062753Y-129974129D01*
X137328032Y-130044467D01*
X137336644Y-130046110D01*
X137609189Y-130078367D01*
X137617926Y-130078780D01*
X137892321Y-130072313D01*
X137901020Y-130071491D01*
X138171754Y-130026429D01*
X138180268Y-130024385D01*
X138441950Y-129941625D01*
X138450078Y-129938407D01*
X138697495Y-129819600D01*
X138705099Y-129815262D01*
X138927597Y-129666593D01*
X138932868Y-129658090D01*
X138927267Y-129648820D01*
X137720607Y-128442160D01*
X137706887Y-128434668D01*
X137705081Y-128434797D01*
X137698574Y-128438979D01*
X136493807Y-129643747D01*
X136486756Y-129656660D01*
X117500500Y-129656660D01*
X117500500Y-128017406D01*
X135704052Y-128017406D01*
X135714828Y-128291646D01*
X135715788Y-128300343D01*
X135765097Y-128570335D01*
X135767274Y-128578812D01*
X135854132Y-128839160D01*
X135857480Y-128847242D01*
X135980155Y-129092756D01*
X135984616Y-129100299D01*
X136115692Y-129289949D01*
X136125850Y-129298171D01*
X136139286Y-129291161D01*
X137341840Y-128088607D01*
X137348116Y-128077113D01*
X138066668Y-128077113D01*
X138066797Y-128078919D01*
X138070979Y-128085426D01*
X139276439Y-129290885D01*
X139289625Y-129298085D01*
X139299371Y-129291209D01*
X139327344Y-129257931D01*
X139332491Y-129250847D01*
X139477724Y-129017973D01*
X139481819Y-129010239D01*
X139592793Y-128759221D01*
X139595760Y-128750980D01*
X139670255Y-128486842D01*
X139672033Y-128478254D01*
X139708730Y-128205042D01*
X139709251Y-128198741D01*
X139713010Y-128079163D01*
X139712885Y-128072838D01*
X139693415Y-127797860D01*
X139692180Y-127789182D01*
X139634417Y-127520880D01*
X139631978Y-127512483D01*
X139536979Y-127254978D01*
X139533382Y-127247012D01*
X139403053Y-127005470D01*
X139398365Y-126998082D01*
X139298972Y-126863514D01*
X139288024Y-126855208D01*
X139275630Y-126861924D01*
X138074160Y-128063393D01*
X138066668Y-128077113D01*
X137348116Y-128077113D01*
X137349332Y-128074887D01*
X137349203Y-128073081D01*
X137345021Y-128066574D01*
X136140596Y-126862150D01*
X136127961Y-126855251D01*
X136117442Y-126862922D01*
X136052325Y-126945522D01*
X136047414Y-126952747D01*
X135909556Y-127190089D01*
X135905712Y-127197935D01*
X135802675Y-127452320D01*
X135799970Y-127460645D01*
X135733805Y-127727008D01*
X135732301Y-127735626D01*
X135704327Y-128008651D01*
X135704052Y-128017406D01*
X117500500Y-128017406D01*
X117500500Y-126368440D01*
X124389770Y-126368440D01*
X124390141Y-126374102D01*
X124390141Y-126374106D01*
X124395780Y-126460144D01*
X124404200Y-126588604D01*
X124458511Y-126802452D01*
X124460887Y-126807606D01*
X124527673Y-126952474D01*
X124550883Y-127002821D01*
X124563283Y-127020367D01*
X124671129Y-127172965D01*
X124678222Y-127183002D01*
X124682293Y-127186968D01*
X124682294Y-127186969D01*
X124832190Y-127332993D01*
X124832195Y-127332997D01*
X124836264Y-127336961D01*
X124840987Y-127340117D01*
X124840991Y-127340120D01*
X124924218Y-127395730D01*
X125019717Y-127459540D01*
X125222436Y-127546635D01*
X125327913Y-127570502D01*
X125432085Y-127594074D01*
X125432087Y-127594074D01*
X125437632Y-127595329D01*
X125575457Y-127600744D01*
X125652418Y-127603768D01*
X125652420Y-127603768D01*
X125658098Y-127603991D01*
X125663718Y-127603176D01*
X125663721Y-127603176D01*
X125870826Y-127573147D01*
X125870829Y-127573146D01*
X125876452Y-127572331D01*
X125983477Y-127536001D01*
X126079989Y-127503240D01*
X126079992Y-127503239D01*
X126085379Y-127501410D01*
X126177867Y-127449614D01*
X126272931Y-127396376D01*
X126272932Y-127396375D01*
X126277884Y-127393602D01*
X126447518Y-127252518D01*
X126463214Y-127233645D01*
X126584971Y-127087250D01*
X126584972Y-127087249D01*
X126588602Y-127082884D01*
X126696410Y-126890379D01*
X126705530Y-126863514D01*
X126747434Y-126740067D01*
X126787623Y-126682912D01*
X126852332Y-126656559D01*
X126921016Y-126669373D01*
X126971869Y-126717287D01*
X126985038Y-126749401D01*
X126998511Y-126802452D01*
X127000887Y-126807606D01*
X127067673Y-126952474D01*
X127090883Y-127002821D01*
X127103283Y-127020367D01*
X127211129Y-127172965D01*
X127218222Y-127183002D01*
X127222293Y-127186968D01*
X127222294Y-127186969D01*
X127372190Y-127332993D01*
X127372195Y-127332997D01*
X127376264Y-127336961D01*
X127380987Y-127340117D01*
X127380991Y-127340120D01*
X127464218Y-127395730D01*
X127559717Y-127459540D01*
X127762436Y-127546635D01*
X127867913Y-127570502D01*
X127972085Y-127594074D01*
X127972087Y-127594074D01*
X127977632Y-127595329D01*
X128115457Y-127600744D01*
X128192418Y-127603768D01*
X128192420Y-127603768D01*
X128198098Y-127603991D01*
X128203718Y-127603176D01*
X128203721Y-127603176D01*
X128410826Y-127573147D01*
X128410829Y-127573146D01*
X128416452Y-127572331D01*
X128523477Y-127536001D01*
X128619989Y-127503240D01*
X128619992Y-127503239D01*
X128625379Y-127501410D01*
X128717867Y-127449614D01*
X128812931Y-127396376D01*
X128812932Y-127396375D01*
X128817884Y-127393602D01*
X128987518Y-127252518D01*
X129003214Y-127233645D01*
X129124971Y-127087250D01*
X129124972Y-127087249D01*
X129128602Y-127082884D01*
X129236410Y-126890379D01*
X129305632Y-126686457D01*
X129345821Y-126629303D01*
X129410530Y-126602950D01*
X129427914Y-126602412D01*
X129454104Y-126603441D01*
X129462419Y-126603768D01*
X129462420Y-126603768D01*
X129468098Y-126603991D01*
X129473718Y-126603176D01*
X129473721Y-126603176D01*
X129680826Y-126573147D01*
X129680829Y-126573146D01*
X129686452Y-126572331D01*
X129793477Y-126536001D01*
X129889989Y-126503240D01*
X129889992Y-126503239D01*
X129895379Y-126501410D01*
X129906663Y-126495091D01*
X136486692Y-126495091D01*
X136493561Y-126508007D01*
X137695393Y-127709840D01*
X137709113Y-127717332D01*
X137710919Y-127717203D01*
X137717426Y-127713021D01*
X138901823Y-126528623D01*
X140707500Y-126528623D01*
X140707501Y-129623376D01*
X140714149Y-129684580D01*
X140726261Y-129716889D01*
X140758512Y-129802919D01*
X140764474Y-129818824D01*
X140769769Y-129825889D01*
X140769770Y-129825891D01*
X140844304Y-129925340D01*
X140850454Y-129933546D01*
X140857519Y-129938841D01*
X140958109Y-130014230D01*
X140958111Y-130014231D01*
X140965176Y-130019526D01*
X140973444Y-130022626D01*
X140973445Y-130022626D01*
X140982966Y-130026195D01*
X141099420Y-130069851D01*
X141160623Y-130076500D01*
X142707769Y-130076500D01*
X144255376Y-130076499D01*
X144316580Y-130069851D01*
X144433034Y-130026195D01*
X144442555Y-130022626D01*
X144442556Y-130022626D01*
X144450824Y-130019526D01*
X144457889Y-130014231D01*
X144457891Y-130014230D01*
X144558481Y-129938841D01*
X144565546Y-129933546D01*
X144571696Y-129925340D01*
X144646230Y-129825891D01*
X144646231Y-129825889D01*
X144651526Y-129818824D01*
X144657489Y-129802919D01*
X144689739Y-129716889D01*
X144701851Y-129684580D01*
X144708500Y-129623377D01*
X144708499Y-128013002D01*
X151277380Y-128013002D01*
X151277552Y-128017384D01*
X151277552Y-128017390D01*
X151279731Y-128072838D01*
X151288502Y-128296084D01*
X151339400Y-128574775D01*
X151340789Y-128578937D01*
X151422100Y-128822657D01*
X151429058Y-128843514D01*
X151431017Y-128847434D01*
X151552413Y-129090386D01*
X151555687Y-129096939D01*
X151558182Y-129100549D01*
X151558185Y-129100554D01*
X151714270Y-129326389D01*
X151716761Y-129329993D01*
X151719731Y-129333205D01*
X151719735Y-129333211D01*
X151751002Y-129367035D01*
X151909065Y-129538027D01*
X151912464Y-129540794D01*
X151912467Y-129540797D01*
X152101054Y-129694330D01*
X152128764Y-129716889D01*
X152193875Y-129756089D01*
X152309815Y-129825891D01*
X152371472Y-129863012D01*
X152403264Y-129876474D01*
X152628309Y-129971768D01*
X152628313Y-129971769D01*
X152632348Y-129973478D01*
X152636591Y-129974603D01*
X152901938Y-130044959D01*
X152901943Y-130044960D01*
X152906186Y-130046085D01*
X152910543Y-130046601D01*
X152910550Y-130046602D01*
X153054884Y-130063685D01*
X153187523Y-130079384D01*
X153191900Y-130079281D01*
X153191903Y-130079281D01*
X153364860Y-130075205D01*
X153470745Y-130072709D01*
X153475062Y-130071990D01*
X153475067Y-130071990D01*
X153745871Y-130026916D01*
X153745877Y-130026915D01*
X153750200Y-130026195D01*
X153754378Y-130024874D01*
X153754385Y-130024872D01*
X153923795Y-129971294D01*
X154020314Y-129940769D01*
X154275697Y-129818136D01*
X154279340Y-129815702D01*
X154279345Y-129815699D01*
X154507603Y-129663182D01*
X154507604Y-129663181D01*
X154511253Y-129660743D01*
X154722281Y-129471730D01*
X154904573Y-129254868D01*
X154914282Y-129239301D01*
X155052167Y-129018208D01*
X155054489Y-129014485D01*
X155165705Y-128762920D01*
X155167265Y-128759391D01*
X155169040Y-128755376D01*
X155221227Y-128570335D01*
X155244746Y-128486943D01*
X155244747Y-128486940D01*
X155245939Y-128482712D01*
X155283652Y-128201933D01*
X155285475Y-128143917D01*
X155287511Y-128079163D01*
X155287511Y-128079155D01*
X155287610Y-128076000D01*
X155283149Y-128013002D01*
X156277380Y-128013002D01*
X156277552Y-128017384D01*
X156277552Y-128017390D01*
X156279731Y-128072838D01*
X156288502Y-128296084D01*
X156339400Y-128574775D01*
X156340789Y-128578937D01*
X156422100Y-128822657D01*
X156429058Y-128843514D01*
X156431017Y-128847434D01*
X156552413Y-129090386D01*
X156555687Y-129096939D01*
X156558182Y-129100549D01*
X156558185Y-129100554D01*
X156714270Y-129326389D01*
X156716761Y-129329993D01*
X156719731Y-129333205D01*
X156719735Y-129333211D01*
X156751002Y-129367035D01*
X156909065Y-129538027D01*
X156912464Y-129540794D01*
X156912467Y-129540797D01*
X157101054Y-129694330D01*
X157128764Y-129716889D01*
X157193875Y-129756089D01*
X157309815Y-129825891D01*
X157371472Y-129863012D01*
X157403264Y-129876474D01*
X157628309Y-129971768D01*
X157628313Y-129971769D01*
X157632348Y-129973478D01*
X157636591Y-129974603D01*
X157901938Y-130044959D01*
X157901943Y-130044960D01*
X157906186Y-130046085D01*
X157910543Y-130046601D01*
X157910550Y-130046602D01*
X158054884Y-130063685D01*
X158187523Y-130079384D01*
X158191900Y-130079281D01*
X158191903Y-130079281D01*
X158364860Y-130075205D01*
X158470745Y-130072709D01*
X158475062Y-130071990D01*
X158475067Y-130071990D01*
X158745871Y-130026916D01*
X158745877Y-130026915D01*
X158750200Y-130026195D01*
X158754378Y-130024874D01*
X158754385Y-130024872D01*
X158923795Y-129971294D01*
X159020314Y-129940769D01*
X159275697Y-129818136D01*
X159279340Y-129815702D01*
X159279345Y-129815699D01*
X159507603Y-129663182D01*
X159507604Y-129663181D01*
X159511253Y-129660743D01*
X159722281Y-129471730D01*
X159904573Y-129254868D01*
X159914282Y-129239301D01*
X160052167Y-129018208D01*
X160054489Y-129014485D01*
X160165705Y-128762920D01*
X160167265Y-128759391D01*
X160169040Y-128755376D01*
X160221227Y-128570335D01*
X160244746Y-128486943D01*
X160244747Y-128486940D01*
X160245939Y-128482712D01*
X160283652Y-128201933D01*
X160285475Y-128143917D01*
X160287511Y-128079163D01*
X160287511Y-128079155D01*
X160287610Y-128076000D01*
X160283149Y-128013002D01*
X161277380Y-128013002D01*
X161277552Y-128017384D01*
X161277552Y-128017390D01*
X161279731Y-128072838D01*
X161288502Y-128296084D01*
X161339400Y-128574775D01*
X161340789Y-128578937D01*
X161422100Y-128822657D01*
X161429058Y-128843514D01*
X161431017Y-128847434D01*
X161552413Y-129090386D01*
X161555687Y-129096939D01*
X161558182Y-129100549D01*
X161558185Y-129100554D01*
X161714270Y-129326389D01*
X161716761Y-129329993D01*
X161719731Y-129333205D01*
X161719735Y-129333211D01*
X161751002Y-129367035D01*
X161909065Y-129538027D01*
X161912464Y-129540794D01*
X161912467Y-129540797D01*
X162101054Y-129694330D01*
X162128764Y-129716889D01*
X162193875Y-129756089D01*
X162309815Y-129825891D01*
X162371472Y-129863012D01*
X162403264Y-129876474D01*
X162628309Y-129971768D01*
X162628313Y-129971769D01*
X162632348Y-129973478D01*
X162636591Y-129974603D01*
X162901938Y-130044959D01*
X162901943Y-130044960D01*
X162906186Y-130046085D01*
X162910543Y-130046601D01*
X162910550Y-130046602D01*
X163054884Y-130063685D01*
X163187523Y-130079384D01*
X163191900Y-130079281D01*
X163191903Y-130079281D01*
X163364860Y-130075205D01*
X163470745Y-130072709D01*
X163475062Y-130071990D01*
X163475067Y-130071990D01*
X163745871Y-130026916D01*
X163745877Y-130026915D01*
X163750200Y-130026195D01*
X163754378Y-130024874D01*
X163754385Y-130024872D01*
X163923795Y-129971294D01*
X164020314Y-129940769D01*
X164275697Y-129818136D01*
X164279340Y-129815702D01*
X164279345Y-129815699D01*
X164507603Y-129663182D01*
X164507604Y-129663181D01*
X164511253Y-129660743D01*
X164722281Y-129471730D01*
X164904573Y-129254868D01*
X164914282Y-129239301D01*
X165052167Y-129018208D01*
X165054489Y-129014485D01*
X165165705Y-128762920D01*
X165167265Y-128759391D01*
X165169040Y-128755376D01*
X165221227Y-128570335D01*
X165244746Y-128486943D01*
X165244747Y-128486940D01*
X165245939Y-128482712D01*
X165283652Y-128201933D01*
X165285475Y-128143917D01*
X165287511Y-128079163D01*
X165287511Y-128079155D01*
X165287610Y-128076000D01*
X165267601Y-127793407D01*
X165207975Y-127516453D01*
X165161313Y-127389971D01*
X165111438Y-127254777D01*
X165111437Y-127254774D01*
X165109920Y-127250663D01*
X165077118Y-127189869D01*
X165015072Y-127074878D01*
X164975393Y-127001340D01*
X164807078Y-126773460D01*
X164783395Y-126749402D01*
X164611413Y-126574697D01*
X164611408Y-126574692D01*
X164608334Y-126571570D01*
X164552060Y-126528623D01*
X166281500Y-126528623D01*
X166281501Y-129623376D01*
X166288149Y-129684580D01*
X166300261Y-129716889D01*
X166332512Y-129802919D01*
X166338474Y-129818824D01*
X166343769Y-129825889D01*
X166343770Y-129825891D01*
X166418304Y-129925340D01*
X166424454Y-129933546D01*
X166431519Y-129938841D01*
X166532109Y-130014230D01*
X166532111Y-130014231D01*
X166539176Y-130019526D01*
X166547444Y-130022626D01*
X166547445Y-130022626D01*
X166556966Y-130026195D01*
X166673420Y-130069851D01*
X166734623Y-130076500D01*
X168281769Y-130076500D01*
X169829376Y-130076499D01*
X169890580Y-130069851D01*
X170007034Y-130026195D01*
X170016555Y-130022626D01*
X170016556Y-130022626D01*
X170024824Y-130019526D01*
X170031889Y-130014231D01*
X170031891Y-130014230D01*
X170132481Y-129938841D01*
X170139546Y-129933546D01*
X170145696Y-129925340D01*
X170220230Y-129825891D01*
X170220231Y-129825889D01*
X170225526Y-129818824D01*
X170231489Y-129802919D01*
X170263739Y-129716889D01*
X170275851Y-129684580D01*
X170282500Y-129623377D01*
X170282500Y-128270000D01*
X172465666Y-128270000D01*
X172484965Y-128490591D01*
X172542277Y-128704480D01*
X172635858Y-128905167D01*
X172762868Y-129086555D01*
X172919445Y-129243132D01*
X173100833Y-129370142D01*
X173218841Y-129425169D01*
X173296617Y-129461437D01*
X173296620Y-129461438D01*
X173301520Y-129463723D01*
X173515409Y-129521035D01*
X173736000Y-129540334D01*
X173956591Y-129521035D01*
X174170480Y-129463723D01*
X174175380Y-129461438D01*
X174175383Y-129461437D01*
X174253159Y-129425169D01*
X174371167Y-129370142D01*
X174552555Y-129243132D01*
X174709132Y-129086555D01*
X174836142Y-128905167D01*
X174929723Y-128704480D01*
X174987035Y-128490591D01*
X174995240Y-128396808D01*
X203067483Y-128396808D01*
X203071984Y-128406430D01*
X204099393Y-129433840D01*
X204113113Y-129441332D01*
X204114919Y-129441203D01*
X204121426Y-129437021D01*
X205148214Y-128410232D01*
X205154495Y-128398730D01*
X205145232Y-128386810D01*
X205006471Y-128290549D01*
X204998551Y-128285883D01*
X204773530Y-128174915D01*
X204765015Y-128171475D01*
X204526057Y-128094984D01*
X204517137Y-128092842D01*
X204269493Y-128052511D01*
X204260342Y-128051711D01*
X204009474Y-128048426D01*
X204000298Y-128048988D01*
X203751689Y-128082822D01*
X203742721Y-128084728D01*
X203501832Y-128154941D01*
X203493247Y-128158150D01*
X203265384Y-128263197D01*
X203257354Y-128267648D01*
X203076475Y-128386237D01*
X203067483Y-128396808D01*
X174995240Y-128396808D01*
X175006334Y-128270000D01*
X174987035Y-128049409D01*
X174929723Y-127835520D01*
X174908116Y-127789182D01*
X174883102Y-127735540D01*
X174836142Y-127634833D01*
X174709132Y-127453445D01*
X174552555Y-127296868D01*
X174371167Y-127169858D01*
X174184649Y-127082884D01*
X174175383Y-127078563D01*
X174175380Y-127078562D01*
X174170480Y-127076277D01*
X173956591Y-127018965D01*
X173736000Y-126999666D01*
X173515409Y-127018965D01*
X173301520Y-127076277D01*
X173296620Y-127078562D01*
X173296617Y-127078563D01*
X173287351Y-127082884D01*
X173100833Y-127169858D01*
X172919445Y-127296868D01*
X172762868Y-127453445D01*
X172635858Y-127634833D01*
X172588898Y-127735540D01*
X172563885Y-127789182D01*
X172542277Y-127835520D01*
X172484965Y-128049409D01*
X172465666Y-128270000D01*
X170282500Y-128270000D01*
X170282499Y-126528624D01*
X170275851Y-126467420D01*
X170225526Y-126333176D01*
X170173579Y-126263863D01*
X170144841Y-126225519D01*
X170139546Y-126218454D01*
X170063042Y-126161117D01*
X170031891Y-126137770D01*
X170031889Y-126137769D01*
X170024824Y-126132474D01*
X169890580Y-126082149D01*
X169829377Y-126075500D01*
X168282231Y-126075500D01*
X166734624Y-126075501D01*
X166673420Y-126082149D01*
X166539176Y-126132474D01*
X166532111Y-126137769D01*
X166532109Y-126137770D01*
X166500958Y-126161117D01*
X166424454Y-126218454D01*
X166419159Y-126225519D01*
X166390422Y-126263863D01*
X166338474Y-126333176D01*
X166288149Y-126467420D01*
X166281500Y-126528623D01*
X164552060Y-126528623D01*
X164383126Y-126399696D01*
X164279111Y-126341445D01*
X164139771Y-126263411D01*
X164139765Y-126263408D01*
X164135947Y-126261270D01*
X163877068Y-126161117D01*
X163875825Y-126160636D01*
X163875822Y-126160635D01*
X163871730Y-126159052D01*
X163867453Y-126158061D01*
X163867451Y-126158060D01*
X163600015Y-126096071D01*
X163600011Y-126096070D01*
X163595747Y-126095082D01*
X163382325Y-126076598D01*
X163317869Y-126071015D01*
X163317867Y-126071015D01*
X163313503Y-126070637D01*
X163030630Y-126086205D01*
X163026324Y-126087061D01*
X163026320Y-126087062D01*
X162892861Y-126113609D01*
X162752774Y-126141474D01*
X162748640Y-126142926D01*
X162748639Y-126142926D01*
X162702719Y-126159052D01*
X162485476Y-126235342D01*
X162234072Y-126365936D01*
X162003576Y-126530651D01*
X162000406Y-126533675D01*
X162000400Y-126533680D01*
X161807930Y-126717287D01*
X161798588Y-126726199D01*
X161795873Y-126729642D01*
X161795872Y-126729644D01*
X161669160Y-126890379D01*
X161623199Y-126948680D01*
X161620997Y-126952471D01*
X161620995Y-126952474D01*
X161594747Y-126997663D01*
X161480907Y-127193654D01*
X161374552Y-127456232D01*
X161373495Y-127460486D01*
X161373494Y-127460490D01*
X161338051Y-127603176D01*
X161306255Y-127731177D01*
X161305808Y-127735540D01*
X161279039Y-127996812D01*
X161277380Y-128013002D01*
X160283149Y-128013002D01*
X160267601Y-127793407D01*
X160207975Y-127516453D01*
X160161313Y-127389971D01*
X160111438Y-127254777D01*
X160111437Y-127254774D01*
X160109920Y-127250663D01*
X160077118Y-127189869D01*
X160015072Y-127074878D01*
X159975393Y-127001340D01*
X159807078Y-126773460D01*
X159783395Y-126749402D01*
X159611413Y-126574697D01*
X159611408Y-126574692D01*
X159608334Y-126571570D01*
X159383126Y-126399696D01*
X159279111Y-126341445D01*
X159139771Y-126263411D01*
X159139765Y-126263408D01*
X159135947Y-126261270D01*
X158877068Y-126161117D01*
X158875825Y-126160636D01*
X158875822Y-126160635D01*
X158871730Y-126159052D01*
X158867453Y-126158061D01*
X158867451Y-126158060D01*
X158600015Y-126096071D01*
X158600011Y-126096070D01*
X158595747Y-126095082D01*
X158382325Y-126076598D01*
X158317869Y-126071015D01*
X158317867Y-126071015D01*
X158313503Y-126070637D01*
X158030630Y-126086205D01*
X158026324Y-126087061D01*
X158026320Y-126087062D01*
X157892861Y-126113609D01*
X157752774Y-126141474D01*
X157748640Y-126142926D01*
X157748639Y-126142926D01*
X157702719Y-126159052D01*
X157485476Y-126235342D01*
X157234072Y-126365936D01*
X157003576Y-126530651D01*
X157000406Y-126533675D01*
X157000400Y-126533680D01*
X156807930Y-126717287D01*
X156798588Y-126726199D01*
X156795873Y-126729642D01*
X156795872Y-126729644D01*
X156669160Y-126890379D01*
X156623199Y-126948680D01*
X156620997Y-126952471D01*
X156620995Y-126952474D01*
X156594747Y-126997663D01*
X156480907Y-127193654D01*
X156374552Y-127456232D01*
X156373495Y-127460486D01*
X156373494Y-127460490D01*
X156338051Y-127603176D01*
X156306255Y-127731177D01*
X156305808Y-127735540D01*
X156279039Y-127996812D01*
X156277380Y-128013002D01*
X155283149Y-128013002D01*
X155267601Y-127793407D01*
X155207975Y-127516453D01*
X155161313Y-127389971D01*
X155111438Y-127254777D01*
X155111437Y-127254774D01*
X155109920Y-127250663D01*
X155077118Y-127189869D01*
X155015072Y-127074878D01*
X154975393Y-127001340D01*
X154807078Y-126773460D01*
X154783395Y-126749402D01*
X154611413Y-126574697D01*
X154611408Y-126574692D01*
X154608334Y-126571570D01*
X154383126Y-126399696D01*
X154279111Y-126341445D01*
X154139771Y-126263411D01*
X154139765Y-126263408D01*
X154135947Y-126261270D01*
X153877068Y-126161117D01*
X153875825Y-126160636D01*
X153875822Y-126160635D01*
X153871730Y-126159052D01*
X153867453Y-126158061D01*
X153867451Y-126158060D01*
X153600015Y-126096071D01*
X153600011Y-126096070D01*
X153595747Y-126095082D01*
X153382325Y-126076598D01*
X153317869Y-126071015D01*
X153317867Y-126071015D01*
X153313503Y-126070637D01*
X153030630Y-126086205D01*
X153026324Y-126087061D01*
X153026320Y-126087062D01*
X152892861Y-126113609D01*
X152752774Y-126141474D01*
X152748640Y-126142926D01*
X152748639Y-126142926D01*
X152702719Y-126159052D01*
X152485476Y-126235342D01*
X152234072Y-126365936D01*
X152003576Y-126530651D01*
X152000406Y-126533675D01*
X152000400Y-126533680D01*
X151807930Y-126717287D01*
X151798588Y-126726199D01*
X151795873Y-126729642D01*
X151795872Y-126729644D01*
X151669160Y-126890379D01*
X151623199Y-126948680D01*
X151620997Y-126952471D01*
X151620995Y-126952474D01*
X151594747Y-126997663D01*
X151480907Y-127193654D01*
X151374552Y-127456232D01*
X151373495Y-127460486D01*
X151373494Y-127460490D01*
X151338051Y-127603176D01*
X151306255Y-127731177D01*
X151305808Y-127735540D01*
X151279039Y-127996812D01*
X151277380Y-128013002D01*
X144708499Y-128013002D01*
X144708499Y-126528624D01*
X144701851Y-126467420D01*
X144651526Y-126333176D01*
X144599579Y-126263863D01*
X144570841Y-126225519D01*
X144565546Y-126218454D01*
X144489042Y-126161117D01*
X144457891Y-126137770D01*
X144457889Y-126137769D01*
X144450824Y-126132474D01*
X144316580Y-126082149D01*
X144255377Y-126075500D01*
X142708231Y-126075500D01*
X141160624Y-126075501D01*
X141099420Y-126082149D01*
X140965176Y-126132474D01*
X140958111Y-126137769D01*
X140958109Y-126137770D01*
X140926958Y-126161117D01*
X140850454Y-126218454D01*
X140845159Y-126225519D01*
X140816422Y-126263863D01*
X140764474Y-126333176D01*
X140714149Y-126467420D01*
X140707500Y-126528623D01*
X138901823Y-126528623D01*
X138921858Y-126508588D01*
X138928602Y-126496237D01*
X138920526Y-126485343D01*
X138812331Y-126402771D01*
X138805033Y-126397977D01*
X138565554Y-126263863D01*
X138557644Y-126260141D01*
X138301682Y-126161117D01*
X138293300Y-126158538D01*
X138025942Y-126096568D01*
X138017305Y-126095199D01*
X137743861Y-126071516D01*
X137735119Y-126071379D01*
X137461075Y-126086461D01*
X137452383Y-126087559D01*
X137183213Y-126141100D01*
X137174762Y-126143412D01*
X136915815Y-126234348D01*
X136907783Y-126237824D01*
X136664223Y-126364343D01*
X136656769Y-126368911D01*
X136494962Y-126484539D01*
X136486692Y-126495091D01*
X129906663Y-126495091D01*
X129980576Y-126453698D01*
X130082931Y-126396376D01*
X130082932Y-126396375D01*
X130087884Y-126393602D01*
X130257518Y-126252518D01*
X130357358Y-126132474D01*
X130394971Y-126087250D01*
X130394972Y-126087249D01*
X130398602Y-126082884D01*
X130402534Y-126075864D01*
X130480300Y-125937002D01*
X182995380Y-125937002D01*
X182995552Y-125941384D01*
X182995552Y-125941390D01*
X183001242Y-126086205D01*
X183006502Y-126220084D01*
X183057400Y-126498775D01*
X183090554Y-126598149D01*
X183134424Y-126729644D01*
X183147058Y-126767514D01*
X183167091Y-126807606D01*
X183265958Y-127005470D01*
X183273687Y-127020939D01*
X183276182Y-127024549D01*
X183276185Y-127024554D01*
X183385696Y-127183002D01*
X183434761Y-127253993D01*
X183437731Y-127257205D01*
X183437735Y-127257211D01*
X183557633Y-127386916D01*
X183627065Y-127462027D01*
X183630464Y-127464794D01*
X183630467Y-127464797D01*
X183801168Y-127603768D01*
X183846764Y-127640889D01*
X183850518Y-127643149D01*
X184018090Y-127744036D01*
X184089472Y-127787012D01*
X184204028Y-127835520D01*
X184346309Y-127895768D01*
X184346313Y-127895769D01*
X184350348Y-127897478D01*
X184354591Y-127898603D01*
X184619938Y-127968959D01*
X184619943Y-127968960D01*
X184624186Y-127970085D01*
X184628543Y-127970601D01*
X184628550Y-127970602D01*
X184772884Y-127987685D01*
X184905523Y-128003384D01*
X184909900Y-128003281D01*
X184909903Y-128003281D01*
X185082860Y-127999205D01*
X185188745Y-127996709D01*
X185193062Y-127995990D01*
X185193067Y-127995990D01*
X185463871Y-127950916D01*
X185463877Y-127950915D01*
X185468200Y-127950195D01*
X185472378Y-127948874D01*
X185472385Y-127948872D01*
X185640296Y-127895768D01*
X185738314Y-127864769D01*
X185993697Y-127742136D01*
X185997340Y-127739702D01*
X185997345Y-127739699D01*
X186225603Y-127587182D01*
X186225604Y-127587181D01*
X186229253Y-127584743D01*
X186440281Y-127395730D01*
X186622573Y-127178868D01*
X186626255Y-127172965D01*
X186770167Y-126942208D01*
X186772489Y-126938485D01*
X186887040Y-126679376D01*
X186909090Y-126601193D01*
X186962746Y-126410943D01*
X186962747Y-126410940D01*
X186963939Y-126406712D01*
X187001652Y-126125933D01*
X187005610Y-126000000D01*
X186985601Y-125717407D01*
X186925975Y-125440453D01*
X186827920Y-125174663D01*
X186795118Y-125113869D01*
X186700558Y-124938620D01*
X186693393Y-124925340D01*
X186525078Y-124697460D01*
X186481945Y-124653644D01*
X186329413Y-124498697D01*
X186329408Y-124498692D01*
X186326334Y-124495570D01*
X186101126Y-124323696D01*
X185978692Y-124255130D01*
X185857771Y-124187411D01*
X185857765Y-124187408D01*
X185853947Y-124185270D01*
X185706348Y-124128168D01*
X185593825Y-124084636D01*
X185593822Y-124084635D01*
X185589730Y-124083052D01*
X185585453Y-124082061D01*
X185585451Y-124082060D01*
X185318015Y-124020071D01*
X185318011Y-124020070D01*
X185313747Y-124019082D01*
X185100325Y-124000598D01*
X185035869Y-123995015D01*
X185035867Y-123995015D01*
X185031503Y-123994637D01*
X184748630Y-124010205D01*
X184744324Y-124011061D01*
X184744320Y-124011062D01*
X184610861Y-124037609D01*
X184470774Y-124065474D01*
X184203476Y-124159342D01*
X183952072Y-124289936D01*
X183721576Y-124454651D01*
X183718406Y-124457675D01*
X183718400Y-124457680D01*
X183604491Y-124566344D01*
X183516588Y-124650199D01*
X183513873Y-124653642D01*
X183513872Y-124653644D01*
X183418083Y-124775153D01*
X183341199Y-124872680D01*
X183198907Y-125117654D01*
X183092552Y-125380232D01*
X183091495Y-125384486D01*
X183091494Y-125384490D01*
X183072872Y-125459458D01*
X183024255Y-125655177D01*
X183023808Y-125659540D01*
X183014705Y-125748391D01*
X182995380Y-125937002D01*
X130480300Y-125937002D01*
X130503631Y-125895341D01*
X130506410Y-125890379D01*
X130577331Y-125681452D01*
X130608991Y-125463098D01*
X130610643Y-125400000D01*
X130590454Y-125180289D01*
X130530565Y-124967936D01*
X130432980Y-124770053D01*
X130300967Y-124593267D01*
X130198662Y-124498697D01*
X130195329Y-124495616D01*
X130159462Y-124435655D01*
X130155500Y-124404560D01*
X130155500Y-121500000D01*
X150039666Y-121500000D01*
X150058965Y-121720591D01*
X150116277Y-121934480D01*
X150209858Y-122135167D01*
X150336868Y-122316555D01*
X150493445Y-122473132D01*
X150674833Y-122600142D01*
X150749849Y-122635122D01*
X150870617Y-122691437D01*
X150870620Y-122691438D01*
X150875520Y-122693723D01*
X151089409Y-122751035D01*
X151310000Y-122770334D01*
X151530591Y-122751035D01*
X151744480Y-122693723D01*
X151749380Y-122691438D01*
X151749383Y-122691437D01*
X151870151Y-122635122D01*
X151945167Y-122600142D01*
X152126555Y-122473132D01*
X152283132Y-122316555D01*
X152410142Y-122135167D01*
X152503723Y-121934480D01*
X152561035Y-121720591D01*
X152580334Y-121500000D01*
X152575085Y-121440000D01*
X153739666Y-121440000D01*
X153758965Y-121660591D01*
X153816277Y-121874480D01*
X153909858Y-122075167D01*
X154036868Y-122256555D01*
X154193445Y-122413132D01*
X154374833Y-122540142D01*
X154407055Y-122555167D01*
X154570617Y-122631437D01*
X154570620Y-122631438D01*
X154575520Y-122633723D01*
X154789409Y-122691035D01*
X155010000Y-122710334D01*
X155230591Y-122691035D01*
X155444480Y-122633723D01*
X155449380Y-122631438D01*
X155449383Y-122631437D01*
X155612945Y-122555167D01*
X155645167Y-122540142D01*
X155826555Y-122413132D01*
X155983132Y-122256555D01*
X156110142Y-122075167D01*
X156182497Y-121920000D01*
X163067666Y-121920000D01*
X163086965Y-122140591D01*
X163144277Y-122354480D01*
X163237858Y-122555167D01*
X163364868Y-122736555D01*
X163521445Y-122893132D01*
X163702833Y-123020142D01*
X163820841Y-123075169D01*
X163898617Y-123111437D01*
X163898620Y-123111438D01*
X163903520Y-123113723D01*
X164117409Y-123171035D01*
X164338000Y-123190334D01*
X164558591Y-123171035D01*
X164772480Y-123113723D01*
X164777380Y-123111438D01*
X164777383Y-123111437D01*
X164855159Y-123075169D01*
X164973167Y-123020142D01*
X165154555Y-122893132D01*
X165311132Y-122736555D01*
X165438142Y-122555167D01*
X165531723Y-122354480D01*
X165589035Y-122140591D01*
X165608334Y-121920000D01*
X165589035Y-121699409D01*
X165531723Y-121485520D01*
X165438142Y-121284833D01*
X165311132Y-121103445D01*
X165154555Y-120946868D01*
X165091367Y-120902623D01*
X202361500Y-120902623D01*
X202361501Y-123497376D01*
X202368149Y-123558580D01*
X202418474Y-123692824D01*
X202504454Y-123807546D01*
X202511519Y-123812841D01*
X202612109Y-123888230D01*
X202612111Y-123888231D01*
X202619176Y-123893526D01*
X202753420Y-123943851D01*
X202814623Y-123950500D01*
X204111807Y-123950500D01*
X205409376Y-123950499D01*
X205470580Y-123943851D01*
X205604824Y-123893526D01*
X205611889Y-123888231D01*
X205611891Y-123888230D01*
X205712481Y-123812841D01*
X205719546Y-123807546D01*
X205805526Y-123692824D01*
X205855851Y-123558580D01*
X205862500Y-123497377D01*
X205862499Y-120902624D01*
X205855851Y-120841420D01*
X205818152Y-120740856D01*
X205808626Y-120715445D01*
X205808626Y-120715444D01*
X205805526Y-120707176D01*
X205791065Y-120687880D01*
X205724841Y-120599519D01*
X205719546Y-120592454D01*
X205712481Y-120587159D01*
X205611891Y-120511770D01*
X205611889Y-120511769D01*
X205604824Y-120506474D01*
X205470580Y-120456149D01*
X205409377Y-120449500D01*
X204112194Y-120449500D01*
X202814624Y-120449501D01*
X202753420Y-120456149D01*
X202619176Y-120506474D01*
X202612111Y-120511769D01*
X202612109Y-120511770D01*
X202511519Y-120587159D01*
X202504454Y-120592454D01*
X202499159Y-120599519D01*
X202432936Y-120687880D01*
X202418474Y-120707176D01*
X202415374Y-120715444D01*
X202415374Y-120715445D01*
X202403632Y-120746768D01*
X202368149Y-120841420D01*
X202361500Y-120902623D01*
X165091367Y-120902623D01*
X164973167Y-120819858D01*
X164855159Y-120764831D01*
X164777383Y-120728563D01*
X164777380Y-120728562D01*
X164772480Y-120726277D01*
X164558591Y-120668965D01*
X164338000Y-120649666D01*
X164117409Y-120668965D01*
X163903520Y-120726277D01*
X163898620Y-120728562D01*
X163898617Y-120728563D01*
X163820841Y-120764831D01*
X163702833Y-120819858D01*
X163521445Y-120946868D01*
X163364868Y-121103445D01*
X163237858Y-121284833D01*
X163144277Y-121485520D01*
X163086965Y-121699409D01*
X163067666Y-121920000D01*
X156182497Y-121920000D01*
X156203723Y-121874480D01*
X156261035Y-121660591D01*
X156280334Y-121440000D01*
X156261035Y-121219409D01*
X156203723Y-121005520D01*
X156110142Y-120804833D01*
X155983132Y-120623445D01*
X155826555Y-120466868D01*
X155645167Y-120339858D01*
X155527159Y-120284831D01*
X155449383Y-120248563D01*
X155449380Y-120248562D01*
X155444480Y-120246277D01*
X155230591Y-120188965D01*
X155010000Y-120169666D01*
X154789409Y-120188965D01*
X154575520Y-120246277D01*
X154570620Y-120248562D01*
X154570617Y-120248563D01*
X154492841Y-120284831D01*
X154374833Y-120339858D01*
X154193445Y-120466868D01*
X154036868Y-120623445D01*
X153909858Y-120804833D01*
X153816277Y-121005520D01*
X153758965Y-121219409D01*
X153739666Y-121440000D01*
X152575085Y-121440000D01*
X152561035Y-121279409D01*
X152503723Y-121065520D01*
X152410142Y-120864833D01*
X152283132Y-120683445D01*
X152126555Y-120526868D01*
X151945167Y-120399858D01*
X151811582Y-120337567D01*
X151749383Y-120308563D01*
X151749380Y-120308562D01*
X151744480Y-120306277D01*
X151530591Y-120248965D01*
X151310000Y-120229666D01*
X151089409Y-120248965D01*
X150875520Y-120306277D01*
X150870620Y-120308562D01*
X150870617Y-120308563D01*
X150808418Y-120337567D01*
X150674833Y-120399858D01*
X150493445Y-120526868D01*
X150336868Y-120683445D01*
X150209858Y-120864833D01*
X150116277Y-121065520D01*
X150058965Y-121279409D01*
X150039666Y-121500000D01*
X130155500Y-121500000D01*
X130155500Y-114495518D01*
X130175185Y-114428479D01*
X130200209Y-114400182D01*
X130253151Y-114356150D01*
X130257518Y-114352518D01*
X130340136Y-114253181D01*
X130394971Y-114187250D01*
X130394972Y-114187249D01*
X130398602Y-114182884D01*
X130506410Y-113990379D01*
X130519505Y-113951804D01*
X130558110Y-113838074D01*
X130577331Y-113781452D01*
X130591176Y-113685963D01*
X132694757Y-113685963D01*
X132711175Y-113881483D01*
X132765258Y-114070091D01*
X132768030Y-114075486D01*
X132768031Y-114075487D01*
X132813890Y-114164719D01*
X132854944Y-114244601D01*
X132858709Y-114249351D01*
X132858712Y-114249356D01*
X132973049Y-114393614D01*
X132976818Y-114398369D01*
X133126238Y-114525535D01*
X133297513Y-114621257D01*
X133484118Y-114681889D01*
X133490139Y-114682607D01*
X133581532Y-114693505D01*
X133678946Y-114705121D01*
X133684990Y-114704656D01*
X133684991Y-114704656D01*
X133741678Y-114700294D01*
X133810030Y-114714778D01*
X133859701Y-114763916D01*
X133874756Y-114813552D01*
X133875070Y-114817287D01*
X133877645Y-114847953D01*
X133931728Y-115036561D01*
X134021414Y-115211071D01*
X134025179Y-115215821D01*
X134025182Y-115215826D01*
X134136401Y-115356150D01*
X134143288Y-115364839D01*
X134292708Y-115492005D01*
X134298006Y-115494966D01*
X134349593Y-115523797D01*
X134463983Y-115587727D01*
X134478519Y-115592450D01*
X134638373Y-115644390D01*
X134650588Y-115648359D01*
X134845416Y-115671591D01*
X134851462Y-115671126D01*
X134851470Y-115671126D01*
X134861711Y-115670338D01*
X134930063Y-115684820D01*
X134979735Y-115733958D01*
X134992813Y-115786126D01*
X134994757Y-115785963D01*
X135011175Y-115981483D01*
X135065258Y-116170091D01*
X135154944Y-116344601D01*
X135158709Y-116349351D01*
X135158712Y-116349356D01*
X135273049Y-116493614D01*
X135276818Y-116498369D01*
X135426238Y-116625535D01*
X135597513Y-116721257D01*
X135784118Y-116781889D01*
X135790139Y-116782607D01*
X135818283Y-116785963D01*
X135978946Y-116805121D01*
X135984990Y-116804656D01*
X135984991Y-116804656D01*
X136072196Y-116797946D01*
X136140548Y-116812430D01*
X136190219Y-116861568D01*
X136205274Y-116911205D01*
X136211175Y-116981483D01*
X136265258Y-117170091D01*
X136354944Y-117344601D01*
X136358709Y-117349351D01*
X136358712Y-117349356D01*
X136473049Y-117493614D01*
X136476818Y-117498369D01*
X136626238Y-117625535D01*
X136631536Y-117628496D01*
X136667932Y-117648837D01*
X136797513Y-117721257D01*
X136803285Y-117723132D01*
X136803284Y-117723132D01*
X136936864Y-117766535D01*
X136984118Y-117781889D01*
X137178946Y-117805121D01*
X137184990Y-117804656D01*
X137184991Y-117804656D01*
X137276761Y-117797594D01*
X137374576Y-117790068D01*
X137563556Y-117737303D01*
X137738689Y-117648837D01*
X137743469Y-117645103D01*
X137743473Y-117645100D01*
X137830909Y-117576787D01*
X137895856Y-117551025D01*
X137907251Y-117550500D01*
X154937771Y-117550500D01*
X155004810Y-117570185D01*
X155025452Y-117586819D01*
X156069102Y-118630469D01*
X156102587Y-118691792D01*
X156104986Y-118707774D01*
X156111175Y-118781483D01*
X156165258Y-118970091D01*
X156254944Y-119144601D01*
X156258709Y-119149351D01*
X156258712Y-119149356D01*
X156373049Y-119293614D01*
X156376818Y-119298369D01*
X156526238Y-119425535D01*
X156531536Y-119428496D01*
X156692213Y-119518295D01*
X156697513Y-119521257D01*
X156884118Y-119581889D01*
X157078946Y-119605121D01*
X157084990Y-119604656D01*
X157084991Y-119604656D01*
X157176761Y-119597594D01*
X157274576Y-119590068D01*
X157463556Y-119537303D01*
X157638689Y-119448837D01*
X157793303Y-119328040D01*
X157797259Y-119323456D01*
X157797263Y-119323453D01*
X157917547Y-119184101D01*
X157921509Y-119179511D01*
X158018425Y-119008909D01*
X158080358Y-118822732D01*
X158104949Y-118628071D01*
X158105341Y-118600000D01*
X158086194Y-118404728D01*
X158029484Y-118216894D01*
X157937370Y-118043653D01*
X157813361Y-117891602D01*
X157662180Y-117766535D01*
X157489585Y-117673213D01*
X157302152Y-117615193D01*
X157205478Y-117605032D01*
X157140864Y-117578447D01*
X157130759Y-117569392D01*
X155877570Y-116316203D01*
X155865380Y-116302019D01*
X155852617Y-116284676D01*
X155847131Y-116280016D01*
X155847128Y-116280012D01*
X155812746Y-116250803D01*
X155805350Y-116243983D01*
X155799697Y-116238330D01*
X155777620Y-116220863D01*
X155774311Y-116218150D01*
X155724740Y-116176036D01*
X155724738Y-116176035D01*
X155719245Y-116171368D01*
X155712824Y-116168090D01*
X155707791Y-116164733D01*
X155702701Y-116161589D01*
X155697051Y-116157119D01*
X155631578Y-116126519D01*
X155627729Y-116124637D01*
X155569804Y-116095059D01*
X155569802Y-116095058D01*
X155563384Y-116091781D01*
X155556386Y-116090069D01*
X155550743Y-116087970D01*
X155545029Y-116086069D01*
X155538507Y-116083021D01*
X155467749Y-116068303D01*
X155463553Y-116067353D01*
X155393394Y-116050185D01*
X155387886Y-116049843D01*
X155387884Y-116049843D01*
X155382352Y-116049500D01*
X155382354Y-116049464D01*
X155378500Y-116049231D01*
X155374222Y-116048849D01*
X155367169Y-116047382D01*
X155298841Y-116049231D01*
X155290563Y-116049455D01*
X155287209Y-116049500D01*
X137907110Y-116049500D01*
X137840071Y-116029815D01*
X137828081Y-116021053D01*
X137762180Y-115966535D01*
X137589585Y-115873213D01*
X137402152Y-115815193D01*
X137338576Y-115808511D01*
X137273963Y-115781926D01*
X137233978Y-115724629D01*
X137231318Y-115654810D01*
X137263858Y-115597509D01*
X141230255Y-111631112D01*
X141291578Y-111597627D01*
X141308422Y-111595158D01*
X141374576Y-111590068D01*
X141563556Y-111537303D01*
X141738689Y-111448837D01*
X141893303Y-111328040D01*
X141897259Y-111323456D01*
X141897263Y-111323453D01*
X142017547Y-111184101D01*
X142021509Y-111179511D01*
X142118425Y-111008909D01*
X142180358Y-110822732D01*
X142193846Y-110715966D01*
X142204514Y-110631515D01*
X142204514Y-110631514D01*
X142204949Y-110628071D01*
X142205341Y-110600000D01*
X142186194Y-110404728D01*
X142129484Y-110216894D01*
X142125675Y-110209729D01*
X142040217Y-110049008D01*
X142037370Y-110043653D01*
X141913361Y-109891602D01*
X141831707Y-109824052D01*
X141766856Y-109770403D01*
X141766854Y-109770402D01*
X141762180Y-109766535D01*
X141589585Y-109673213D01*
X141402152Y-109615193D01*
X141207019Y-109594683D01*
X141200986Y-109595232D01*
X141200982Y-109595232D01*
X141037278Y-109610131D01*
X141011618Y-109612466D01*
X140928217Y-109637012D01*
X140829208Y-109666152D01*
X140829203Y-109666154D01*
X140823393Y-109667864D01*
X140818023Y-109670671D01*
X140818019Y-109670673D01*
X140732256Y-109715510D01*
X140649512Y-109758767D01*
X140644789Y-109762564D01*
X140644788Y-109762565D01*
X140551211Y-109837803D01*
X140496600Y-109881711D01*
X140370480Y-110032016D01*
X140275956Y-110203954D01*
X140216628Y-110390978D01*
X140214409Y-110410765D01*
X140204915Y-110495404D01*
X140177881Y-110559831D01*
X140169369Y-110569263D01*
X138162012Y-112576620D01*
X138100689Y-112610105D01*
X138030997Y-112605121D01*
X137975064Y-112563249D01*
X137950647Y-112497785D01*
X137950822Y-112477917D01*
X137951152Y-112474216D01*
X137952618Y-112467169D01*
X137950545Y-112390563D01*
X137950500Y-112387209D01*
X137950500Y-109662229D01*
X137970185Y-109595190D01*
X137986819Y-109574548D01*
X140630255Y-106931112D01*
X140691578Y-106897627D01*
X140708422Y-106895158D01*
X140774576Y-106890068D01*
X140963556Y-106837303D01*
X141138689Y-106748837D01*
X141293303Y-106628040D01*
X141297259Y-106623456D01*
X141297263Y-106623453D01*
X141417547Y-106484101D01*
X141421509Y-106479511D01*
X141448573Y-106431870D01*
X141498802Y-106383303D01*
X141567315Y-106369601D01*
X141632360Y-106395116D01*
X141644071Y-106405438D01*
X150762430Y-115523797D01*
X150774620Y-115537980D01*
X150787383Y-115555324D01*
X150792869Y-115559984D01*
X150792872Y-115559988D01*
X150827254Y-115589197D01*
X150834650Y-115596017D01*
X150840303Y-115601670D01*
X150862380Y-115619137D01*
X150865689Y-115621850D01*
X150904486Y-115654810D01*
X150920755Y-115668632D01*
X150927176Y-115671910D01*
X150932209Y-115675267D01*
X150937299Y-115678411D01*
X150942949Y-115682881D01*
X151008422Y-115713481D01*
X151012271Y-115715363D01*
X151035551Y-115727250D01*
X151076616Y-115748219D01*
X151083614Y-115749931D01*
X151089257Y-115752030D01*
X151094971Y-115753931D01*
X151101493Y-115756979D01*
X151172208Y-115771688D01*
X151176424Y-115772642D01*
X151246606Y-115789815D01*
X151252117Y-115790157D01*
X151252118Y-115790157D01*
X151257648Y-115790500D01*
X151257646Y-115790536D01*
X151261500Y-115790769D01*
X151265782Y-115791151D01*
X151272830Y-115792617D01*
X151349414Y-115790545D01*
X151352769Y-115790500D01*
X153493696Y-115790500D01*
X153512344Y-115791910D01*
X153533630Y-115795148D01*
X153540811Y-115794564D01*
X153540813Y-115794564D01*
X153585761Y-115790908D01*
X153595813Y-115790500D01*
X155999444Y-115790500D01*
X156066483Y-115810185D01*
X156085970Y-115825679D01*
X156237190Y-115972993D01*
X156237195Y-115972997D01*
X156241264Y-115976961D01*
X156245987Y-115980117D01*
X156245991Y-115980120D01*
X156330185Y-116036376D01*
X156424717Y-116099540D01*
X156627436Y-116186635D01*
X156732913Y-116210502D01*
X156837085Y-116234074D01*
X156837087Y-116234074D01*
X156842632Y-116235329D01*
X156980457Y-116240744D01*
X157057418Y-116243768D01*
X157057420Y-116243768D01*
X157063098Y-116243991D01*
X157068718Y-116243176D01*
X157068721Y-116243176D01*
X157275826Y-116213147D01*
X157275829Y-116213146D01*
X157281452Y-116212331D01*
X157389991Y-116175487D01*
X157484989Y-116143240D01*
X157484992Y-116143239D01*
X157490379Y-116141410D01*
X157622623Y-116067350D01*
X157677931Y-116036376D01*
X157677932Y-116036375D01*
X157682884Y-116033602D01*
X157687438Y-116029815D01*
X157848151Y-115896150D01*
X157852518Y-115892518D01*
X157910334Y-115823002D01*
X157989971Y-115727250D01*
X157989972Y-115727249D01*
X157993602Y-115722884D01*
X158004308Y-115703768D01*
X158061631Y-115601410D01*
X158101410Y-115530379D01*
X158103645Y-115523797D01*
X158159217Y-115360084D01*
X158172331Y-115321452D01*
X158203991Y-115103098D01*
X158205643Y-115040000D01*
X158185454Y-114820289D01*
X158125565Y-114607936D01*
X158027980Y-114410053D01*
X157895967Y-114233267D01*
X157733949Y-114083499D01*
X157594227Y-113995341D01*
X157552159Y-113968798D01*
X157552157Y-113968797D01*
X157547350Y-113965764D01*
X157481947Y-113939671D01*
X157426974Y-113896546D01*
X157404044Y-113830547D01*
X157420435Y-113762627D01*
X157470945Y-113714351D01*
X157527895Y-113700499D01*
X157747376Y-113700499D01*
X157808580Y-113693851D01*
X157942824Y-113643526D01*
X157949889Y-113638231D01*
X157949891Y-113638230D01*
X158050481Y-113562841D01*
X158057546Y-113557546D01*
X158102919Y-113497006D01*
X158138230Y-113449891D01*
X158138231Y-113449889D01*
X158143526Y-113442824D01*
X158193851Y-113308580D01*
X158200500Y-113247377D01*
X158200499Y-111752624D01*
X158193851Y-111691420D01*
X158143526Y-111557176D01*
X158129855Y-111538934D01*
X158062841Y-111449519D01*
X158057546Y-111442454D01*
X158001785Y-111400663D01*
X157949891Y-111361770D01*
X157949889Y-111361769D01*
X157942824Y-111356474D01*
X157808580Y-111306149D01*
X157747377Y-111299500D01*
X157000112Y-111299500D01*
X156252624Y-111299501D01*
X156191420Y-111306149D01*
X156057176Y-111356474D01*
X156050111Y-111361769D01*
X156050109Y-111361770D01*
X155998215Y-111400663D01*
X155942454Y-111442454D01*
X155937159Y-111449519D01*
X155870146Y-111538934D01*
X155856474Y-111557176D01*
X155806149Y-111691420D01*
X155799500Y-111752623D01*
X155799501Y-113247376D01*
X155806149Y-113308580D01*
X155856474Y-113442824D01*
X155861769Y-113449889D01*
X155861770Y-113449891D01*
X155897081Y-113497006D01*
X155942454Y-113557546D01*
X155949519Y-113562841D01*
X156050109Y-113638230D01*
X156050111Y-113638231D01*
X156057176Y-113643526D01*
X156191420Y-113693851D01*
X156252623Y-113700500D01*
X156467770Y-113700500D01*
X156534809Y-113720185D01*
X156580564Y-113772989D01*
X156590508Y-113842147D01*
X156561483Y-113905703D01*
X156510687Y-113940836D01*
X156480957Y-113951804D01*
X156291341Y-114064614D01*
X156125457Y-114210090D01*
X156121942Y-114214549D01*
X156121940Y-114214551D01*
X156100091Y-114242267D01*
X156043129Y-114282728D01*
X156002711Y-114289500D01*
X154474500Y-114289500D01*
X154407461Y-114269815D01*
X154361706Y-114217011D01*
X154350500Y-114165500D01*
X154350500Y-108658892D01*
X154370185Y-108591853D01*
X154380632Y-108577868D01*
X154417547Y-108535101D01*
X154421509Y-108530511D01*
X154432002Y-108512041D01*
X154490268Y-108409474D01*
X154518425Y-108359909D01*
X154580358Y-108173732D01*
X154594202Y-108064149D01*
X154604514Y-107982515D01*
X154604514Y-107982514D01*
X154604949Y-107979071D01*
X154605341Y-107951000D01*
X154586194Y-107755728D01*
X154529484Y-107567894D01*
X154437370Y-107394653D01*
X154313361Y-107242602D01*
X154162180Y-107117535D01*
X153989585Y-107024213D01*
X153802152Y-106966193D01*
X153607019Y-106945683D01*
X153600986Y-106946232D01*
X153600982Y-106946232D01*
X153437278Y-106961131D01*
X153411618Y-106963466D01*
X153346583Y-106982607D01*
X153229208Y-107017152D01*
X153229203Y-107017154D01*
X153223393Y-107018864D01*
X153218023Y-107021671D01*
X153218019Y-107021673D01*
X153132256Y-107066510D01*
X153049512Y-107109767D01*
X153039851Y-107117535D01*
X152922199Y-107212129D01*
X152857618Y-107238795D01*
X152788872Y-107226313D01*
X152737788Y-107178646D01*
X152720500Y-107115491D01*
X152720500Y-104985963D01*
X161694757Y-104985963D01*
X161711175Y-105181483D01*
X161765258Y-105370091D01*
X161768030Y-105375486D01*
X161768031Y-105375487D01*
X161778179Y-105395232D01*
X161854944Y-105544601D01*
X161858709Y-105549351D01*
X161858712Y-105549356D01*
X161922678Y-105630061D01*
X161948893Y-105694827D01*
X161949500Y-105707083D01*
X161949500Y-113133696D01*
X161948090Y-113152344D01*
X161944852Y-113173630D01*
X161945436Y-113180811D01*
X161945436Y-113180813D01*
X161949092Y-113225761D01*
X161949500Y-113235813D01*
X161949500Y-113243822D01*
X161949916Y-113247387D01*
X161952759Y-113271774D01*
X161953185Y-113276082D01*
X161956420Y-113315853D01*
X161959039Y-113348059D01*
X161961257Y-113354907D01*
X161962438Y-113360815D01*
X161963823Y-113366672D01*
X161964657Y-113373828D01*
X161967115Y-113380599D01*
X161989313Y-113441754D01*
X161990715Y-113445841D01*
X162012973Y-113514546D01*
X162016711Y-113520705D01*
X162019219Y-113526184D01*
X162021912Y-113531562D01*
X162024369Y-113538331D01*
X162028318Y-113544354D01*
X162063977Y-113598744D01*
X162066277Y-113602389D01*
X162103761Y-113664160D01*
X162107416Y-113668298D01*
X162111085Y-113672452D01*
X162111057Y-113672477D01*
X162113618Y-113675366D01*
X162116375Y-113678663D01*
X162120323Y-113684685D01*
X162175970Y-113737400D01*
X162178373Y-113739740D01*
X163962433Y-115523801D01*
X163974622Y-115537984D01*
X163987383Y-115555324D01*
X163992873Y-115559988D01*
X163992875Y-115559990D01*
X164027240Y-115589185D01*
X164034637Y-115596005D01*
X164040303Y-115601671D01*
X164062392Y-115619147D01*
X164065716Y-115621873D01*
X164095833Y-115647459D01*
X164120755Y-115668632D01*
X164127172Y-115671909D01*
X164132188Y-115675254D01*
X164137297Y-115678409D01*
X164142949Y-115682881D01*
X164208422Y-115713481D01*
X164212271Y-115715363D01*
X164235551Y-115727250D01*
X164276616Y-115748219D01*
X164283614Y-115749931D01*
X164289257Y-115752030D01*
X164294971Y-115753931D01*
X164301493Y-115756979D01*
X164372251Y-115771697D01*
X164376447Y-115772647D01*
X164446606Y-115789815D01*
X164452114Y-115790157D01*
X164452116Y-115790157D01*
X164457648Y-115790500D01*
X164457646Y-115790536D01*
X164461500Y-115790769D01*
X164465778Y-115791151D01*
X164472831Y-115792618D01*
X164549437Y-115790545D01*
X164552791Y-115790500D01*
X166999444Y-115790500D01*
X167066483Y-115810185D01*
X167085970Y-115825679D01*
X167237190Y-115972993D01*
X167237195Y-115972997D01*
X167241264Y-115976961D01*
X167245987Y-115980117D01*
X167245991Y-115980120D01*
X167330185Y-116036376D01*
X167424717Y-116099540D01*
X167627436Y-116186635D01*
X167732913Y-116210502D01*
X167837085Y-116234074D01*
X167837087Y-116234074D01*
X167842632Y-116235329D01*
X167980457Y-116240744D01*
X168057418Y-116243768D01*
X168057420Y-116243768D01*
X168063098Y-116243991D01*
X168068718Y-116243176D01*
X168068721Y-116243176D01*
X168275826Y-116213147D01*
X168275829Y-116213146D01*
X168281452Y-116212331D01*
X168389991Y-116175487D01*
X168484989Y-116143240D01*
X168484992Y-116143239D01*
X168490379Y-116141410D01*
X168622623Y-116067350D01*
X168677931Y-116036376D01*
X168677932Y-116036375D01*
X168682884Y-116033602D01*
X168687438Y-116029815D01*
X168848151Y-115896150D01*
X168852518Y-115892518D01*
X168900181Y-115835209D01*
X168958184Y-115796254D01*
X168995518Y-115790500D01*
X177999444Y-115790500D01*
X178066483Y-115810185D01*
X178085970Y-115825679D01*
X178237190Y-115972993D01*
X178237195Y-115972997D01*
X178241264Y-115976961D01*
X178245987Y-115980117D01*
X178245991Y-115980120D01*
X178330185Y-116036376D01*
X178424717Y-116099540D01*
X178627436Y-116186635D01*
X178732913Y-116210502D01*
X178837085Y-116234074D01*
X178837087Y-116234074D01*
X178842632Y-116235329D01*
X178980457Y-116240744D01*
X179057418Y-116243768D01*
X179057420Y-116243768D01*
X179063098Y-116243991D01*
X179068718Y-116243176D01*
X179068721Y-116243176D01*
X179275826Y-116213147D01*
X179275829Y-116213146D01*
X179281452Y-116212331D01*
X179389991Y-116175487D01*
X179484989Y-116143240D01*
X179484992Y-116143239D01*
X179490379Y-116141410D01*
X179622623Y-116067350D01*
X179677931Y-116036376D01*
X179677932Y-116036375D01*
X179682884Y-116033602D01*
X179687438Y-116029815D01*
X179848151Y-115896150D01*
X179852518Y-115892518D01*
X179910334Y-115823002D01*
X179989971Y-115727250D01*
X179989972Y-115727249D01*
X179993602Y-115722884D01*
X180004308Y-115703768D01*
X180061631Y-115601410D01*
X180101410Y-115530379D01*
X180103645Y-115523797D01*
X180159217Y-115360084D01*
X180172331Y-115321452D01*
X180203991Y-115103098D01*
X180205643Y-115040000D01*
X180202743Y-115008440D01*
X188794770Y-115008440D01*
X188795141Y-115014102D01*
X188795141Y-115014106D01*
X188800956Y-115102821D01*
X188809200Y-115228604D01*
X188863511Y-115442452D01*
X188865887Y-115447606D01*
X188931349Y-115589602D01*
X188955883Y-115642821D01*
X188959797Y-115648359D01*
X189078969Y-115816984D01*
X189083222Y-115823002D01*
X189087293Y-115826968D01*
X189087294Y-115826969D01*
X189237190Y-115972993D01*
X189237195Y-115972997D01*
X189241264Y-115976961D01*
X189245987Y-115980117D01*
X189245991Y-115980120D01*
X189330185Y-116036376D01*
X189424717Y-116099540D01*
X189627436Y-116186635D01*
X189732913Y-116210502D01*
X189837085Y-116234074D01*
X189837087Y-116234074D01*
X189842632Y-116235329D01*
X189980457Y-116240744D01*
X190057418Y-116243768D01*
X190057420Y-116243768D01*
X190063098Y-116243991D01*
X190068718Y-116243176D01*
X190068721Y-116243176D01*
X190275826Y-116213147D01*
X190275829Y-116213146D01*
X190281452Y-116212331D01*
X190389991Y-116175487D01*
X190484989Y-116143240D01*
X190484992Y-116143239D01*
X190490379Y-116141410D01*
X190622623Y-116067350D01*
X190677931Y-116036376D01*
X190677932Y-116036375D01*
X190682884Y-116033602D01*
X190687438Y-116029815D01*
X190848151Y-115896150D01*
X190852518Y-115892518D01*
X190910334Y-115823002D01*
X190989971Y-115727250D01*
X190989972Y-115727249D01*
X190993602Y-115722884D01*
X191004308Y-115703768D01*
X191061631Y-115601410D01*
X191101410Y-115530379D01*
X191103645Y-115523797D01*
X191159217Y-115360084D01*
X191172331Y-115321452D01*
X191203991Y-115103098D01*
X191205643Y-115040000D01*
X191202743Y-115008440D01*
X199794770Y-115008440D01*
X199795141Y-115014102D01*
X199795141Y-115014106D01*
X199800956Y-115102821D01*
X199809200Y-115228604D01*
X199863511Y-115442452D01*
X199865887Y-115447606D01*
X199931349Y-115589602D01*
X199955883Y-115642821D01*
X199959797Y-115648359D01*
X200078969Y-115816984D01*
X200083222Y-115823002D01*
X200087293Y-115826968D01*
X200087294Y-115826969D01*
X200237190Y-115972993D01*
X200237195Y-115972997D01*
X200241264Y-115976961D01*
X200245987Y-115980117D01*
X200245991Y-115980120D01*
X200330185Y-116036376D01*
X200424717Y-116099540D01*
X200627436Y-116186635D01*
X200732913Y-116210502D01*
X200837085Y-116234074D01*
X200837087Y-116234074D01*
X200842632Y-116235329D01*
X200980457Y-116240744D01*
X201057418Y-116243768D01*
X201057420Y-116243768D01*
X201063098Y-116243991D01*
X201068718Y-116243176D01*
X201068721Y-116243176D01*
X201275826Y-116213147D01*
X201275829Y-116213146D01*
X201281452Y-116212331D01*
X201389991Y-116175487D01*
X201484989Y-116143240D01*
X201484992Y-116143239D01*
X201490379Y-116141410D01*
X201622623Y-116067350D01*
X201677931Y-116036376D01*
X201677932Y-116036375D01*
X201682884Y-116033602D01*
X201687438Y-116029815D01*
X201848151Y-115896150D01*
X201852518Y-115892518D01*
X201910334Y-115823002D01*
X201989971Y-115727250D01*
X201989972Y-115727249D01*
X201993602Y-115722884D01*
X202004308Y-115703768D01*
X202061631Y-115601410D01*
X202101410Y-115530379D01*
X202103645Y-115523797D01*
X202159217Y-115360084D01*
X202172331Y-115321452D01*
X202203991Y-115103098D01*
X202205643Y-115040000D01*
X202185454Y-114820289D01*
X202125565Y-114607936D01*
X202027980Y-114410053D01*
X201895967Y-114233267D01*
X201733949Y-114083499D01*
X201594227Y-113995341D01*
X201552159Y-113968798D01*
X201552157Y-113968797D01*
X201547350Y-113965764D01*
X201481947Y-113939671D01*
X201426974Y-113896546D01*
X201404044Y-113830547D01*
X201420435Y-113762627D01*
X201470945Y-113714351D01*
X201527895Y-113700499D01*
X201747376Y-113700499D01*
X201808580Y-113693851D01*
X201942824Y-113643526D01*
X201949889Y-113638231D01*
X201949891Y-113638230D01*
X202050481Y-113562841D01*
X202057546Y-113557546D01*
X202102919Y-113497006D01*
X202138230Y-113449891D01*
X202138231Y-113449889D01*
X202143526Y-113442824D01*
X202193851Y-113308580D01*
X202200500Y-113247377D01*
X202200499Y-111752624D01*
X202193851Y-111691420D01*
X202143526Y-111557176D01*
X202129855Y-111538934D01*
X202062841Y-111449519D01*
X202057546Y-111442454D01*
X202001785Y-111400663D01*
X201949891Y-111361770D01*
X201949889Y-111361769D01*
X201942824Y-111356474D01*
X201808580Y-111306149D01*
X201747377Y-111299500D01*
X201000112Y-111299500D01*
X200252624Y-111299501D01*
X200191420Y-111306149D01*
X200057176Y-111356474D01*
X200050111Y-111361769D01*
X200050109Y-111361770D01*
X199998215Y-111400663D01*
X199942454Y-111442454D01*
X199937159Y-111449519D01*
X199870146Y-111538934D01*
X199856474Y-111557176D01*
X199806149Y-111691420D01*
X199799500Y-111752623D01*
X199799501Y-113247376D01*
X199806149Y-113308580D01*
X199856474Y-113442824D01*
X199861769Y-113449889D01*
X199861770Y-113449891D01*
X199897081Y-113497006D01*
X199942454Y-113557546D01*
X199949519Y-113562841D01*
X200050109Y-113638230D01*
X200050111Y-113638231D01*
X200057176Y-113643526D01*
X200191420Y-113693851D01*
X200252623Y-113700500D01*
X200467770Y-113700500D01*
X200534809Y-113720185D01*
X200580564Y-113772989D01*
X200590508Y-113842147D01*
X200561483Y-113905703D01*
X200510687Y-113940836D01*
X200480957Y-113951804D01*
X200291341Y-114064614D01*
X200125457Y-114210090D01*
X199988863Y-114383360D01*
X199886131Y-114578620D01*
X199820703Y-114789333D01*
X199820035Y-114794978D01*
X199820034Y-114794982D01*
X199807314Y-114902452D01*
X199794770Y-115008440D01*
X191202743Y-115008440D01*
X191185454Y-114820289D01*
X191125565Y-114607936D01*
X191027980Y-114410053D01*
X190895967Y-114233267D01*
X190733949Y-114083499D01*
X190594227Y-113995341D01*
X190552159Y-113968798D01*
X190552157Y-113968797D01*
X190547350Y-113965764D01*
X190481947Y-113939671D01*
X190426974Y-113896546D01*
X190404044Y-113830547D01*
X190420435Y-113762627D01*
X190470945Y-113714351D01*
X190527895Y-113700499D01*
X190747376Y-113700499D01*
X190808580Y-113693851D01*
X190942824Y-113643526D01*
X190949889Y-113638231D01*
X190949891Y-113638230D01*
X191050481Y-113562841D01*
X191057546Y-113557546D01*
X191102919Y-113497006D01*
X191138230Y-113449891D01*
X191138231Y-113449889D01*
X191143526Y-113442824D01*
X191193851Y-113308580D01*
X191200500Y-113247377D01*
X191200499Y-111752624D01*
X191193851Y-111691420D01*
X191143526Y-111557176D01*
X191129855Y-111538934D01*
X191062841Y-111449519D01*
X191057546Y-111442454D01*
X191001785Y-111400663D01*
X190949891Y-111361770D01*
X190949889Y-111361769D01*
X190942824Y-111356474D01*
X190808580Y-111306149D01*
X190747377Y-111299500D01*
X190000112Y-111299500D01*
X189252624Y-111299501D01*
X189191420Y-111306149D01*
X189057176Y-111356474D01*
X189050111Y-111361769D01*
X189050109Y-111361770D01*
X188998215Y-111400663D01*
X188942454Y-111442454D01*
X188937159Y-111449519D01*
X188870146Y-111538934D01*
X188856474Y-111557176D01*
X188806149Y-111691420D01*
X188799500Y-111752623D01*
X188799501Y-113247376D01*
X188806149Y-113308580D01*
X188856474Y-113442824D01*
X188861769Y-113449889D01*
X188861770Y-113449891D01*
X188897081Y-113497006D01*
X188942454Y-113557546D01*
X188949519Y-113562841D01*
X189050109Y-113638230D01*
X189050111Y-113638231D01*
X189057176Y-113643526D01*
X189191420Y-113693851D01*
X189252623Y-113700500D01*
X189467770Y-113700500D01*
X189534809Y-113720185D01*
X189580564Y-113772989D01*
X189590508Y-113842147D01*
X189561483Y-113905703D01*
X189510687Y-113940836D01*
X189480957Y-113951804D01*
X189291341Y-114064614D01*
X189125457Y-114210090D01*
X188988863Y-114383360D01*
X188886131Y-114578620D01*
X188820703Y-114789333D01*
X188820035Y-114794978D01*
X188820034Y-114794982D01*
X188807314Y-114902452D01*
X188794770Y-115008440D01*
X180202743Y-115008440D01*
X180185454Y-114820289D01*
X180125565Y-114607936D01*
X180027980Y-114410053D01*
X179895967Y-114233267D01*
X179733949Y-114083499D01*
X179594227Y-113995341D01*
X179552159Y-113968798D01*
X179552157Y-113968797D01*
X179547350Y-113965764D01*
X179481947Y-113939671D01*
X179426974Y-113896546D01*
X179404044Y-113830547D01*
X179420435Y-113762627D01*
X179470945Y-113714351D01*
X179527895Y-113700499D01*
X179747376Y-113700499D01*
X179808580Y-113693851D01*
X179942824Y-113643526D01*
X179949889Y-113638231D01*
X179949891Y-113638230D01*
X180050481Y-113562841D01*
X180057546Y-113557546D01*
X180102919Y-113497006D01*
X180138230Y-113449891D01*
X180138231Y-113449889D01*
X180143526Y-113442824D01*
X180193851Y-113308580D01*
X180200500Y-113247377D01*
X180200499Y-111752624D01*
X180193851Y-111691420D01*
X180143526Y-111557176D01*
X180129855Y-111538934D01*
X180062841Y-111449519D01*
X180057546Y-111442454D01*
X180001785Y-111400663D01*
X179949891Y-111361770D01*
X179949889Y-111361769D01*
X179942824Y-111356474D01*
X179808580Y-111306149D01*
X179747377Y-111299500D01*
X179000112Y-111299500D01*
X178252624Y-111299501D01*
X178191420Y-111306149D01*
X178057176Y-111356474D01*
X178050111Y-111361769D01*
X178050109Y-111361770D01*
X177998215Y-111400663D01*
X177942454Y-111442454D01*
X177937159Y-111449519D01*
X177870146Y-111538934D01*
X177856474Y-111557176D01*
X177806149Y-111691420D01*
X177799500Y-111752623D01*
X177799501Y-113247376D01*
X177806149Y-113308580D01*
X177856474Y-113442824D01*
X177861769Y-113449889D01*
X177861770Y-113449891D01*
X177897081Y-113497006D01*
X177942454Y-113557546D01*
X177949519Y-113562841D01*
X178050109Y-113638230D01*
X178050111Y-113638231D01*
X178057176Y-113643526D01*
X178191420Y-113693851D01*
X178252623Y-113700500D01*
X178467770Y-113700500D01*
X178534809Y-113720185D01*
X178580564Y-113772989D01*
X178590508Y-113842147D01*
X178561483Y-113905703D01*
X178510687Y-113940836D01*
X178480957Y-113951804D01*
X178291341Y-114064614D01*
X178125457Y-114210090D01*
X178121942Y-114214549D01*
X178121940Y-114214551D01*
X178100091Y-114242267D01*
X178043129Y-114282728D01*
X178002711Y-114289500D01*
X169000121Y-114289500D01*
X168933082Y-114269815D01*
X168903235Y-114241995D01*
X168903175Y-114242049D01*
X168902556Y-114241361D01*
X168900767Y-114239694D01*
X168899370Y-114237823D01*
X168899365Y-114237817D01*
X168895967Y-114233267D01*
X168891797Y-114229412D01*
X168891794Y-114229409D01*
X168822657Y-114165500D01*
X168733949Y-114083499D01*
X168594227Y-113995341D01*
X168552159Y-113968798D01*
X168552157Y-113968797D01*
X168547350Y-113965764D01*
X168481947Y-113939671D01*
X168426974Y-113896546D01*
X168404044Y-113830547D01*
X168420435Y-113762627D01*
X168470945Y-113714351D01*
X168527895Y-113700499D01*
X168747376Y-113700499D01*
X168808580Y-113693851D01*
X168942824Y-113643526D01*
X168949889Y-113638231D01*
X168949891Y-113638230D01*
X169050481Y-113562841D01*
X169057546Y-113557546D01*
X169102919Y-113497006D01*
X169138230Y-113449891D01*
X169138231Y-113449889D01*
X169143526Y-113442824D01*
X169193851Y-113308580D01*
X169200500Y-113247377D01*
X169200499Y-111752624D01*
X169193851Y-111691420D01*
X169143526Y-111557176D01*
X169129855Y-111538934D01*
X169062841Y-111449519D01*
X169057546Y-111442454D01*
X169001785Y-111400663D01*
X168949891Y-111361770D01*
X168949889Y-111361769D01*
X168942824Y-111356474D01*
X168808580Y-111306149D01*
X168747377Y-111299500D01*
X168000112Y-111299500D01*
X167252624Y-111299501D01*
X167191420Y-111306149D01*
X167057176Y-111356474D01*
X167050111Y-111361769D01*
X167050109Y-111361770D01*
X166998215Y-111400663D01*
X166942454Y-111442454D01*
X166937159Y-111449519D01*
X166870146Y-111538934D01*
X166856474Y-111557176D01*
X166806149Y-111691420D01*
X166799500Y-111752623D01*
X166799501Y-113247376D01*
X166806149Y-113308580D01*
X166856474Y-113442824D01*
X166861769Y-113449889D01*
X166861770Y-113449891D01*
X166897081Y-113497006D01*
X166942454Y-113557546D01*
X166949519Y-113562841D01*
X167050109Y-113638230D01*
X167050111Y-113638231D01*
X167057176Y-113643526D01*
X167191420Y-113693851D01*
X167252623Y-113700500D01*
X167467770Y-113700500D01*
X167534809Y-113720185D01*
X167580564Y-113772989D01*
X167590508Y-113842147D01*
X167561483Y-113905703D01*
X167510687Y-113940836D01*
X167480957Y-113951804D01*
X167291341Y-114064614D01*
X167125457Y-114210090D01*
X167121942Y-114214549D01*
X167121940Y-114214551D01*
X167100091Y-114242267D01*
X167043129Y-114282728D01*
X167002711Y-114289500D01*
X164902229Y-114289500D01*
X164835190Y-114269815D01*
X164814548Y-114253181D01*
X163486819Y-112925452D01*
X163453334Y-112864129D01*
X163450500Y-112837771D01*
X163450500Y-105707892D01*
X163470185Y-105640853D01*
X163480632Y-105626868D01*
X163517547Y-105584101D01*
X163521509Y-105579511D01*
X163528881Y-105566535D01*
X163573011Y-105488851D01*
X163618425Y-105408909D01*
X163656988Y-105292986D01*
X163678446Y-105228480D01*
X163678446Y-105228479D01*
X163680358Y-105222732D01*
X163686021Y-105177910D01*
X163704514Y-105031515D01*
X163704514Y-105031514D01*
X163704949Y-105028071D01*
X163705341Y-105000000D01*
X163686194Y-104804728D01*
X163629484Y-104616894D01*
X163625675Y-104609729D01*
X163569817Y-104504677D01*
X163537370Y-104443653D01*
X163413361Y-104291602D01*
X163312031Y-104207775D01*
X163266856Y-104170403D01*
X163266854Y-104170402D01*
X163262180Y-104166535D01*
X163089585Y-104073213D01*
X162902152Y-104015193D01*
X162707019Y-103994683D01*
X162700986Y-103995232D01*
X162700982Y-103995232D01*
X162561196Y-104007954D01*
X162511618Y-104012466D01*
X162428217Y-104037012D01*
X162329208Y-104066152D01*
X162329203Y-104066154D01*
X162323393Y-104067864D01*
X162318023Y-104070671D01*
X162318019Y-104070673D01*
X162241792Y-104110524D01*
X162149512Y-104158767D01*
X162144789Y-104162564D01*
X162144788Y-104162565D01*
X162076575Y-104217410D01*
X161996600Y-104281711D01*
X161870480Y-104432016D01*
X161849548Y-104470091D01*
X161780554Y-104595591D01*
X161775956Y-104603954D01*
X161774124Y-104609729D01*
X161741025Y-104714071D01*
X161716628Y-104790978D01*
X161715952Y-104797006D01*
X161697210Y-104964096D01*
X161694757Y-104985963D01*
X152720500Y-104985963D01*
X152720500Y-103597623D01*
X171974500Y-103597623D01*
X171974501Y-105042376D01*
X171981149Y-105103580D01*
X172031474Y-105237824D01*
X172036769Y-105244889D01*
X172036770Y-105244891D01*
X172105907Y-105337139D01*
X172117454Y-105352546D01*
X172124519Y-105357841D01*
X172225109Y-105433230D01*
X172225111Y-105433231D01*
X172232176Y-105438526D01*
X172240444Y-105441626D01*
X172240445Y-105441626D01*
X172245852Y-105443653D01*
X172366420Y-105488851D01*
X172427623Y-105495500D01*
X173149892Y-105495500D01*
X173872376Y-105495499D01*
X173933580Y-105488851D01*
X174054148Y-105443653D01*
X174059555Y-105441626D01*
X174059556Y-105441626D01*
X174067824Y-105438526D01*
X174074889Y-105433231D01*
X174074891Y-105433230D01*
X174175481Y-105357841D01*
X174182546Y-105352546D01*
X174194093Y-105337139D01*
X174263230Y-105244891D01*
X174263231Y-105244889D01*
X174268526Y-105237824D01*
X174318851Y-105103580D01*
X174325500Y-105042377D01*
X174325500Y-104715090D01*
X174345185Y-104648051D01*
X174397989Y-104602296D01*
X174467147Y-104592352D01*
X174530703Y-104621377D01*
X174569685Y-104684567D01*
X174577178Y-104714071D01*
X174579552Y-104719221D01*
X174579554Y-104719226D01*
X174665248Y-104905110D01*
X174667626Y-104910268D01*
X174792313Y-105086697D01*
X174947065Y-105237449D01*
X175126697Y-105357475D01*
X175325194Y-105442756D01*
X175352824Y-105449008D01*
X175530362Y-105489181D01*
X175530364Y-105489181D01*
X175535909Y-105490436D01*
X175664767Y-105495499D01*
X175746104Y-105498695D01*
X175746106Y-105498695D01*
X175751784Y-105498918D01*
X175757404Y-105498103D01*
X175757407Y-105498103D01*
X175959971Y-105468733D01*
X175959973Y-105468733D01*
X175965591Y-105467918D01*
X175970968Y-105466093D01*
X175970971Y-105466092D01*
X176085031Y-105427373D01*
X176170167Y-105398473D01*
X176297126Y-105327373D01*
X176353710Y-105295685D01*
X176353712Y-105295684D01*
X176358663Y-105292911D01*
X176524765Y-105154765D01*
X176615462Y-105045714D01*
X176659280Y-104993029D01*
X176659281Y-104993028D01*
X176662911Y-104988663D01*
X176768473Y-104800167D01*
X176837918Y-104595591D01*
X176838733Y-104589971D01*
X176838735Y-104589963D01*
X176839022Y-104587982D01*
X176839418Y-104587118D01*
X176840062Y-104584435D01*
X176840589Y-104584562D01*
X176868124Y-104524462D01*
X176926948Y-104486759D01*
X176996817Y-104486843D01*
X177055549Y-104524689D01*
X177081923Y-104575254D01*
X177117178Y-104714071D01*
X177119552Y-104719221D01*
X177119554Y-104719226D01*
X177205248Y-104905110D01*
X177207626Y-104910268D01*
X177332313Y-105086697D01*
X177487065Y-105237449D01*
X177666697Y-105357475D01*
X177865194Y-105442756D01*
X177892824Y-105449008D01*
X178070362Y-105489181D01*
X178070364Y-105489181D01*
X178075909Y-105490436D01*
X178204767Y-105495499D01*
X178286104Y-105498695D01*
X178286106Y-105498695D01*
X178291784Y-105498918D01*
X178297404Y-105498103D01*
X178297407Y-105498103D01*
X178499971Y-105468733D01*
X178499973Y-105468733D01*
X178505591Y-105467918D01*
X178510968Y-105466093D01*
X178510971Y-105466092D01*
X178625031Y-105427373D01*
X178710167Y-105398473D01*
X178837126Y-105327373D01*
X178893710Y-105295685D01*
X178893712Y-105295684D01*
X178898663Y-105292911D01*
X179064765Y-105154765D01*
X179155462Y-105045714D01*
X179199280Y-104993029D01*
X179199281Y-104993028D01*
X179202911Y-104988663D01*
X179308473Y-104800167D01*
X179377918Y-104595591D01*
X179378733Y-104589971D01*
X179378735Y-104589963D01*
X179379022Y-104587982D01*
X179379418Y-104587118D01*
X179380062Y-104584435D01*
X179380589Y-104584562D01*
X179408124Y-104524462D01*
X179466948Y-104486759D01*
X179536817Y-104486843D01*
X179595549Y-104524689D01*
X179621923Y-104575254D01*
X179657178Y-104714071D01*
X179659552Y-104719221D01*
X179659554Y-104719226D01*
X179745248Y-104905110D01*
X179747626Y-104910268D01*
X179872313Y-105086697D01*
X180027065Y-105237449D01*
X180206697Y-105357475D01*
X180405194Y-105442756D01*
X180432824Y-105449008D01*
X180610362Y-105489181D01*
X180610364Y-105489181D01*
X180615909Y-105490436D01*
X180744767Y-105495499D01*
X180826104Y-105498695D01*
X180826106Y-105498695D01*
X180831784Y-105498918D01*
X180837404Y-105498103D01*
X180837407Y-105498103D01*
X181039971Y-105468733D01*
X181039973Y-105468733D01*
X181045591Y-105467918D01*
X181050968Y-105466093D01*
X181050971Y-105466092D01*
X181165031Y-105427373D01*
X181250167Y-105398473D01*
X181377126Y-105327373D01*
X181433710Y-105295685D01*
X181433712Y-105295684D01*
X181438663Y-105292911D01*
X181604765Y-105154765D01*
X181695462Y-105045714D01*
X181739280Y-104993029D01*
X181739281Y-104993028D01*
X181742911Y-104988663D01*
X181848473Y-104800167D01*
X181917918Y-104595591D01*
X181918733Y-104589971D01*
X181918735Y-104589963D01*
X181919022Y-104587982D01*
X181919418Y-104587118D01*
X181920062Y-104584435D01*
X181920589Y-104584562D01*
X181948124Y-104524462D01*
X182006948Y-104486759D01*
X182076817Y-104486843D01*
X182135549Y-104524689D01*
X182161923Y-104575254D01*
X182197178Y-104714071D01*
X182199552Y-104719221D01*
X182199554Y-104719226D01*
X182285248Y-104905110D01*
X182287626Y-104910268D01*
X182412313Y-105086697D01*
X182567065Y-105237449D01*
X182746697Y-105357475D01*
X182945194Y-105442756D01*
X182972824Y-105449008D01*
X183150362Y-105489181D01*
X183150364Y-105489181D01*
X183155909Y-105490436D01*
X183284767Y-105495499D01*
X183366104Y-105498695D01*
X183366106Y-105498695D01*
X183371784Y-105498918D01*
X183377404Y-105498103D01*
X183377407Y-105498103D01*
X183579971Y-105468733D01*
X183579973Y-105468733D01*
X183585591Y-105467918D01*
X183590968Y-105466093D01*
X183590971Y-105466092D01*
X183705031Y-105427373D01*
X183790167Y-105398473D01*
X183917126Y-105327373D01*
X183973710Y-105295685D01*
X183973712Y-105295684D01*
X183978663Y-105292911D01*
X184144765Y-105154765D01*
X184235462Y-105045714D01*
X184279280Y-104993029D01*
X184279281Y-104993028D01*
X184282911Y-104988663D01*
X184388473Y-104800167D01*
X184457918Y-104595591D01*
X184458733Y-104589971D01*
X184458735Y-104589963D01*
X184459022Y-104587982D01*
X184459418Y-104587118D01*
X184460062Y-104584435D01*
X184460589Y-104584562D01*
X184488124Y-104524462D01*
X184546948Y-104486759D01*
X184616817Y-104486843D01*
X184675549Y-104524689D01*
X184701923Y-104575254D01*
X184737178Y-104714071D01*
X184739552Y-104719221D01*
X184739554Y-104719226D01*
X184825248Y-104905110D01*
X184827626Y-104910268D01*
X184952313Y-105086697D01*
X185107065Y-105237449D01*
X185286697Y-105357475D01*
X185485194Y-105442756D01*
X185512824Y-105449008D01*
X185690362Y-105489181D01*
X185690364Y-105489181D01*
X185695909Y-105490436D01*
X185824767Y-105495499D01*
X185906104Y-105498695D01*
X185906106Y-105498695D01*
X185911784Y-105498918D01*
X185917404Y-105498103D01*
X185917407Y-105498103D01*
X186119971Y-105468733D01*
X186119973Y-105468733D01*
X186125591Y-105467918D01*
X186130968Y-105466093D01*
X186130971Y-105466092D01*
X186245031Y-105427373D01*
X186330167Y-105398473D01*
X186457126Y-105327373D01*
X186513710Y-105295685D01*
X186513712Y-105295684D01*
X186518663Y-105292911D01*
X186684765Y-105154765D01*
X186775462Y-105045714D01*
X186819280Y-104993029D01*
X186819281Y-104993028D01*
X186822911Y-104988663D01*
X186928473Y-104800167D01*
X186997918Y-104595591D01*
X187013686Y-104486843D01*
X187028395Y-104385391D01*
X187028918Y-104381784D01*
X187030536Y-104320000D01*
X187010768Y-104104864D01*
X186952125Y-103896934D01*
X186856572Y-103703172D01*
X186727309Y-103530067D01*
X186723139Y-103526212D01*
X186723136Y-103526209D01*
X186622613Y-103433287D01*
X186568665Y-103383418D01*
X186563855Y-103380383D01*
X186390761Y-103271169D01*
X186390759Y-103271168D01*
X186385952Y-103268135D01*
X186185290Y-103188079D01*
X186179709Y-103186969D01*
X186179706Y-103186968D01*
X186101540Y-103171420D01*
X185973400Y-103145931D01*
X185967713Y-103145857D01*
X185967708Y-103145856D01*
X185763063Y-103143177D01*
X185763058Y-103143177D01*
X185757376Y-103143103D01*
X185544455Y-103179690D01*
X185341766Y-103254466D01*
X185336888Y-103257368D01*
X185336886Y-103257369D01*
X185160982Y-103362020D01*
X185160979Y-103362022D01*
X185156098Y-103364926D01*
X185151825Y-103368673D01*
X185151824Y-103368674D01*
X185113623Y-103402176D01*
X184993669Y-103507373D01*
X184990154Y-103511832D01*
X184990151Y-103511835D01*
X184863436Y-103672572D01*
X184863433Y-103672576D01*
X184859919Y-103677034D01*
X184759327Y-103868228D01*
X184701967Y-104052961D01*
X184697278Y-104068061D01*
X184658599Y-104126248D01*
X184594602Y-104154286D01*
X184525605Y-104143274D01*
X184473515Y-104096708D01*
X184459511Y-104064949D01*
X184422183Y-103932598D01*
X184412125Y-103896934D01*
X184316572Y-103703172D01*
X184187309Y-103530067D01*
X184183139Y-103526212D01*
X184183136Y-103526209D01*
X184082613Y-103433287D01*
X184028665Y-103383418D01*
X184023855Y-103380383D01*
X183850761Y-103271169D01*
X183850759Y-103271168D01*
X183845952Y-103268135D01*
X183645290Y-103188079D01*
X183639709Y-103186969D01*
X183639706Y-103186968D01*
X183561540Y-103171420D01*
X183433400Y-103145931D01*
X183427713Y-103145857D01*
X183427708Y-103145856D01*
X183223063Y-103143177D01*
X183223058Y-103143177D01*
X183217376Y-103143103D01*
X183004455Y-103179690D01*
X182801766Y-103254466D01*
X182796888Y-103257368D01*
X182796886Y-103257369D01*
X182620982Y-103362020D01*
X182620979Y-103362022D01*
X182616098Y-103364926D01*
X182611825Y-103368673D01*
X182611824Y-103368674D01*
X182573623Y-103402176D01*
X182453669Y-103507373D01*
X182450154Y-103511832D01*
X182450151Y-103511835D01*
X182323436Y-103672572D01*
X182323433Y-103672576D01*
X182319919Y-103677034D01*
X182219327Y-103868228D01*
X182161967Y-104052961D01*
X182157278Y-104068061D01*
X182118599Y-104126248D01*
X182054602Y-104154286D01*
X181985605Y-104143274D01*
X181933515Y-104096708D01*
X181919511Y-104064949D01*
X181882183Y-103932598D01*
X181872125Y-103896934D01*
X181776572Y-103703172D01*
X181647309Y-103530067D01*
X181643139Y-103526212D01*
X181643136Y-103526209D01*
X181542613Y-103433287D01*
X181488665Y-103383418D01*
X181483855Y-103380383D01*
X181310761Y-103271169D01*
X181310759Y-103271168D01*
X181305952Y-103268135D01*
X181105290Y-103188079D01*
X181099709Y-103186969D01*
X181099706Y-103186968D01*
X181021540Y-103171420D01*
X180893400Y-103145931D01*
X180887713Y-103145857D01*
X180887708Y-103145856D01*
X180683063Y-103143177D01*
X180683058Y-103143177D01*
X180677376Y-103143103D01*
X180464455Y-103179690D01*
X180261766Y-103254466D01*
X180256888Y-103257368D01*
X180256886Y-103257369D01*
X180080982Y-103362020D01*
X180080979Y-103362022D01*
X180076098Y-103364926D01*
X180071825Y-103368673D01*
X180071824Y-103368674D01*
X180033623Y-103402176D01*
X179913669Y-103507373D01*
X179910154Y-103511832D01*
X179910151Y-103511835D01*
X179783436Y-103672572D01*
X179783433Y-103672576D01*
X179779919Y-103677034D01*
X179679327Y-103868228D01*
X179621967Y-104052961D01*
X179617278Y-104068061D01*
X179578599Y-104126248D01*
X179514602Y-104154286D01*
X179445605Y-104143274D01*
X179393515Y-104096708D01*
X179379511Y-104064949D01*
X179342183Y-103932598D01*
X179332125Y-103896934D01*
X179236572Y-103703172D01*
X179107309Y-103530067D01*
X179103139Y-103526212D01*
X179103136Y-103526209D01*
X179002613Y-103433287D01*
X178948665Y-103383418D01*
X178943855Y-103380383D01*
X178770761Y-103271169D01*
X178770759Y-103271168D01*
X178765952Y-103268135D01*
X178565290Y-103188079D01*
X178559709Y-103186969D01*
X178559706Y-103186968D01*
X178481540Y-103171420D01*
X178353400Y-103145931D01*
X178347713Y-103145857D01*
X178347708Y-103145856D01*
X178143063Y-103143177D01*
X178143058Y-103143177D01*
X178137376Y-103143103D01*
X177924455Y-103179690D01*
X177721766Y-103254466D01*
X177716888Y-103257368D01*
X177716886Y-103257369D01*
X177540982Y-103362020D01*
X177540979Y-103362022D01*
X177536098Y-103364926D01*
X177531825Y-103368673D01*
X177531824Y-103368674D01*
X177493623Y-103402176D01*
X177373669Y-103507373D01*
X177370154Y-103511832D01*
X177370151Y-103511835D01*
X177243436Y-103672572D01*
X177243433Y-103672576D01*
X177239919Y-103677034D01*
X177139327Y-103868228D01*
X177081967Y-104052961D01*
X177077278Y-104068061D01*
X177038599Y-104126248D01*
X176974602Y-104154286D01*
X176905605Y-104143274D01*
X176853515Y-104096708D01*
X176839511Y-104064949D01*
X176802183Y-103932598D01*
X176792125Y-103896934D01*
X176696572Y-103703172D01*
X176567309Y-103530067D01*
X176563139Y-103526212D01*
X176563136Y-103526209D01*
X176462613Y-103433287D01*
X176408665Y-103383418D01*
X176403855Y-103380383D01*
X176230761Y-103271169D01*
X176230759Y-103271168D01*
X176225952Y-103268135D01*
X176025290Y-103188079D01*
X176019709Y-103186969D01*
X176019706Y-103186968D01*
X175941540Y-103171420D01*
X175813400Y-103145931D01*
X175807713Y-103145857D01*
X175807708Y-103145856D01*
X175603063Y-103143177D01*
X175603058Y-103143177D01*
X175597376Y-103143103D01*
X175384455Y-103179690D01*
X175181766Y-103254466D01*
X175176888Y-103257368D01*
X175176886Y-103257369D01*
X175000982Y-103362020D01*
X175000979Y-103362022D01*
X174996098Y-103364926D01*
X174991825Y-103368673D01*
X174991824Y-103368674D01*
X174953623Y-103402176D01*
X174833669Y-103507373D01*
X174830154Y-103511832D01*
X174830151Y-103511835D01*
X174703436Y-103672572D01*
X174703433Y-103672576D01*
X174699919Y-103677034D01*
X174599327Y-103868228D01*
X174588016Y-103904656D01*
X174567922Y-103969369D01*
X174529242Y-104027556D01*
X174465245Y-104055594D01*
X174396249Y-104044582D01*
X174344159Y-103998016D01*
X174325499Y-103932598D01*
X174325499Y-103597624D01*
X174318851Y-103536420D01*
X174268526Y-103402176D01*
X174260602Y-103391602D01*
X174187841Y-103294519D01*
X174182546Y-103287454D01*
X174135909Y-103252501D01*
X174074891Y-103206770D01*
X174074889Y-103206769D01*
X174067824Y-103201474D01*
X173933580Y-103151149D01*
X173872377Y-103144500D01*
X173150108Y-103144500D01*
X172427624Y-103144501D01*
X172366420Y-103151149D01*
X172232176Y-103201474D01*
X172225111Y-103206769D01*
X172225109Y-103206770D01*
X172164091Y-103252501D01*
X172117454Y-103287454D01*
X172112159Y-103294519D01*
X172039399Y-103391602D01*
X172031474Y-103402176D01*
X171981149Y-103536420D01*
X171974500Y-103597623D01*
X152720500Y-103597623D01*
X152720500Y-96436304D01*
X152721910Y-96417655D01*
X152724064Y-96403493D01*
X152725148Y-96396370D01*
X152720908Y-96344239D01*
X152720500Y-96334187D01*
X152720500Y-96326178D01*
X152717241Y-96298221D01*
X152716815Y-96293918D01*
X152711545Y-96229116D01*
X152711544Y-96229112D01*
X152710961Y-96221941D01*
X152708743Y-96215093D01*
X152707562Y-96209185D01*
X152706177Y-96203328D01*
X152705343Y-96196172D01*
X152680685Y-96128239D01*
X152679282Y-96124152D01*
X152659248Y-96062310D01*
X152657027Y-96055454D01*
X152653289Y-96049295D01*
X152650781Y-96043816D01*
X152648088Y-96038438D01*
X152645631Y-96031669D01*
X152606023Y-95971256D01*
X152603714Y-95967597D01*
X152566239Y-95905840D01*
X152558915Y-95897548D01*
X152558943Y-95897523D01*
X152556382Y-95894634D01*
X152553625Y-95891337D01*
X152549677Y-95885315D01*
X152494028Y-95832598D01*
X152491626Y-95830259D01*
X149141570Y-92480203D01*
X149129380Y-92466019D01*
X149116617Y-92448676D01*
X149111131Y-92444016D01*
X149111128Y-92444012D01*
X149076746Y-92414803D01*
X149069350Y-92407983D01*
X149063697Y-92402330D01*
X149041620Y-92384863D01*
X149038311Y-92382150D01*
X148988740Y-92340036D01*
X148988738Y-92340035D01*
X148983245Y-92335368D01*
X148976824Y-92332090D01*
X148971791Y-92328733D01*
X148966701Y-92325589D01*
X148961051Y-92321119D01*
X148895578Y-92290519D01*
X148891729Y-92288637D01*
X148833804Y-92259059D01*
X148833802Y-92259058D01*
X148827384Y-92255781D01*
X148820386Y-92254069D01*
X148814743Y-92251970D01*
X148809029Y-92250069D01*
X148802507Y-92247021D01*
X148748897Y-92235870D01*
X148687271Y-92202945D01*
X148653228Y-92141930D01*
X148657577Y-92072196D01*
X148698936Y-92015883D01*
X148762562Y-91991624D01*
X148762555Y-91991587D01*
X148762749Y-91991553D01*
X148764634Y-91990834D01*
X148768522Y-91990535D01*
X148768534Y-91990533D01*
X148774576Y-91990068D01*
X148963556Y-91937303D01*
X149138689Y-91848837D01*
X149293303Y-91728040D01*
X149297259Y-91723456D01*
X149297263Y-91723453D01*
X149355422Y-91656074D01*
X149414128Y-91618188D01*
X149483998Y-91618054D01*
X149546468Y-91660076D01*
X149576818Y-91698369D01*
X149726238Y-91825535D01*
X149731536Y-91828496D01*
X149892213Y-91918295D01*
X149897513Y-91921257D01*
X149903285Y-91923132D01*
X149903284Y-91923132D01*
X150075821Y-91979193D01*
X150084118Y-91981889D01*
X150278946Y-92005121D01*
X150284990Y-92004656D01*
X150284991Y-92004656D01*
X150376761Y-91997595D01*
X150474576Y-91990068D01*
X150663556Y-91937303D01*
X150838689Y-91848837D01*
X150993303Y-91728040D01*
X150997259Y-91723456D01*
X150997263Y-91723453D01*
X151117547Y-91584101D01*
X151121509Y-91579511D01*
X151137383Y-91551569D01*
X151172320Y-91490068D01*
X151218425Y-91408909D01*
X151280358Y-91222732D01*
X151283426Y-91198450D01*
X151304514Y-91031515D01*
X151304514Y-91031514D01*
X151304949Y-91028071D01*
X151305341Y-91000000D01*
X151286194Y-90804728D01*
X151229484Y-90616894D01*
X151137370Y-90443653D01*
X151078407Y-90371356D01*
X151051290Y-90306964D01*
X151050500Y-90292986D01*
X151050500Y-84007892D01*
X151070185Y-83940853D01*
X151080632Y-83926868D01*
X151117547Y-83884101D01*
X151121509Y-83879511D01*
X151138614Y-83849402D01*
X151176385Y-83782912D01*
X151218425Y-83708909D01*
X151280358Y-83522732D01*
X151287742Y-83464285D01*
X151304514Y-83331515D01*
X151304514Y-83331514D01*
X151304949Y-83328071D01*
X151305341Y-83300000D01*
X151286194Y-83104728D01*
X151229484Y-82916894D01*
X151218910Y-82897006D01*
X151156436Y-82779511D01*
X151137370Y-82743653D01*
X151013361Y-82591602D01*
X150974505Y-82559458D01*
X150866856Y-82470403D01*
X150866854Y-82470402D01*
X150862180Y-82466535D01*
X150689585Y-82373213D01*
X150502152Y-82315193D01*
X150307019Y-82294683D01*
X150300986Y-82295232D01*
X150300982Y-82295232D01*
X150137278Y-82310131D01*
X150111618Y-82312466D01*
X150028217Y-82337012D01*
X149929208Y-82366152D01*
X149929203Y-82366154D01*
X149923393Y-82367864D01*
X149918023Y-82370671D01*
X149918019Y-82370673D01*
X149876234Y-82392518D01*
X149749512Y-82458767D01*
X149744789Y-82462564D01*
X149744788Y-82462565D01*
X149608477Y-82572162D01*
X149596600Y-82581711D01*
X149570223Y-82613147D01*
X149569490Y-82614020D01*
X149511319Y-82652723D01*
X149441458Y-82653832D01*
X149382088Y-82616995D01*
X149352058Y-82553908D01*
X149350500Y-82534315D01*
X149350500Y-81662229D01*
X149370185Y-81595190D01*
X149386819Y-81574548D01*
X151274548Y-79686819D01*
X151335871Y-79653334D01*
X151362229Y-79650500D01*
X155098434Y-79650500D01*
X155165473Y-79670185D01*
X155211228Y-79722989D01*
X155214544Y-79730974D01*
X155243637Y-79808580D01*
X155256474Y-79842824D01*
X155342454Y-79957546D01*
X155349519Y-79962841D01*
X155450109Y-80038230D01*
X155450111Y-80038231D01*
X155457176Y-80043526D01*
X155465444Y-80046626D01*
X155465445Y-80046626D01*
X155494575Y-80057546D01*
X155591420Y-80093851D01*
X155652623Y-80100500D01*
X155867770Y-80100500D01*
X155934809Y-80120185D01*
X155980564Y-80172989D01*
X155990508Y-80242147D01*
X155961483Y-80305703D01*
X155910687Y-80340836D01*
X155903657Y-80343429D01*
X155880957Y-80351804D01*
X155805753Y-80396546D01*
X155712873Y-80451804D01*
X155691341Y-80464614D01*
X155525457Y-80610090D01*
X155388863Y-80783360D01*
X155386216Y-80788391D01*
X155313094Y-80927373D01*
X155286131Y-80978620D01*
X155284443Y-80984055D01*
X155284443Y-80984056D01*
X155256644Y-81073585D01*
X155220703Y-81189333D01*
X155220035Y-81194978D01*
X155220034Y-81194982D01*
X155200649Y-81358767D01*
X155194770Y-81408440D01*
X155195141Y-81414102D01*
X155195141Y-81414106D01*
X155200767Y-81499944D01*
X155209200Y-81628604D01*
X155263511Y-81842452D01*
X155355883Y-82042821D01*
X155377498Y-82073405D01*
X155479847Y-82218226D01*
X155483222Y-82223002D01*
X155487293Y-82226968D01*
X155487294Y-82226969D01*
X155637190Y-82372993D01*
X155637195Y-82372997D01*
X155641264Y-82376961D01*
X155645987Y-82380117D01*
X155645991Y-82380120D01*
X155727481Y-82434569D01*
X155824717Y-82499540D01*
X156027436Y-82586635D01*
X156084468Y-82599540D01*
X156237085Y-82634074D01*
X156237087Y-82634074D01*
X156242632Y-82635329D01*
X156380457Y-82640744D01*
X156457418Y-82643768D01*
X156457420Y-82643768D01*
X156463098Y-82643991D01*
X156468718Y-82643176D01*
X156468721Y-82643176D01*
X156675826Y-82613147D01*
X156675829Y-82613146D01*
X156681452Y-82612331D01*
X156826488Y-82563098D01*
X156884989Y-82543240D01*
X156884992Y-82543239D01*
X156890379Y-82541410D01*
X157029231Y-82463649D01*
X157077931Y-82436376D01*
X157077932Y-82436375D01*
X157082884Y-82433602D01*
X157139689Y-82386358D01*
X157248151Y-82296150D01*
X157252518Y-82292518D01*
X157310432Y-82222884D01*
X157389971Y-82127250D01*
X157389972Y-82127249D01*
X157393602Y-82122884D01*
X157397819Y-82115355D01*
X157494649Y-81942452D01*
X157501410Y-81930379D01*
X157572331Y-81721452D01*
X157576978Y-81689406D01*
X157599270Y-81535655D01*
X157603991Y-81503098D01*
X157604440Y-81485963D01*
X161394757Y-81485963D01*
X161411175Y-81681483D01*
X161465258Y-81870091D01*
X161468030Y-81875486D01*
X161468031Y-81875487D01*
X161502809Y-81943158D01*
X161554944Y-82044601D01*
X161558709Y-82049351D01*
X161558712Y-82049356D01*
X161673049Y-82193614D01*
X161676818Y-82198369D01*
X161826238Y-82325535D01*
X161831536Y-82328496D01*
X161939504Y-82388837D01*
X161997513Y-82421257D01*
X162003285Y-82423132D01*
X162003284Y-82423132D01*
X162170004Y-82477303D01*
X162184118Y-82481889D01*
X162378946Y-82505121D01*
X162384990Y-82504656D01*
X162384991Y-82504656D01*
X162476761Y-82497595D01*
X162574576Y-82490068D01*
X162763556Y-82437303D01*
X162938689Y-82348837D01*
X162943469Y-82345103D01*
X162943473Y-82345100D01*
X163030909Y-82276787D01*
X163095856Y-82251025D01*
X163107251Y-82250500D01*
X163643949Y-82250500D01*
X163710988Y-82270185D01*
X163724312Y-82280066D01*
X163824738Y-82365535D01*
X163830036Y-82368496D01*
X163986533Y-82455959D01*
X163996013Y-82461257D01*
X164036983Y-82474569D01*
X164131012Y-82505121D01*
X164182618Y-82521889D01*
X164377446Y-82545121D01*
X164383490Y-82544656D01*
X164383491Y-82544656D01*
X164478750Y-82537326D01*
X164573076Y-82530068D01*
X164762056Y-82477303D01*
X164937189Y-82388837D01*
X165091803Y-82268040D01*
X165095759Y-82263456D01*
X165095763Y-82263453D01*
X165216047Y-82124101D01*
X165220009Y-82119511D01*
X165223040Y-82114177D01*
X165286234Y-82002934D01*
X165316925Y-81948909D01*
X165378858Y-81762732D01*
X165383170Y-81728604D01*
X165403014Y-81571515D01*
X165403014Y-81571514D01*
X165403449Y-81568071D01*
X165403738Y-81547359D01*
X165403793Y-81543460D01*
X165403793Y-81543454D01*
X165403841Y-81540000D01*
X165384694Y-81344728D01*
X165327984Y-81156894D01*
X165304861Y-81113405D01*
X165251689Y-81013405D01*
X165235870Y-80983653D01*
X165111861Y-80831602D01*
X165070947Y-80797755D01*
X164965356Y-80710403D01*
X164965354Y-80710402D01*
X164960680Y-80706535D01*
X164788085Y-80613213D01*
X164600652Y-80555193D01*
X164405519Y-80534683D01*
X164399486Y-80535232D01*
X164399482Y-80535232D01*
X164235778Y-80550131D01*
X164210118Y-80552466D01*
X164126717Y-80577012D01*
X164027708Y-80606152D01*
X164027703Y-80606154D01*
X164021893Y-80607864D01*
X164016523Y-80610671D01*
X164016519Y-80610673D01*
X163964581Y-80637826D01*
X163848012Y-80698767D01*
X163843291Y-80702563D01*
X163843283Y-80702568D01*
X163818943Y-80722138D01*
X163754362Y-80748804D01*
X163741245Y-80749500D01*
X163107110Y-80749500D01*
X163040071Y-80729815D01*
X163028081Y-80721053D01*
X162962180Y-80666535D01*
X162789585Y-80573213D01*
X162602152Y-80515193D01*
X162407019Y-80494683D01*
X162400986Y-80495232D01*
X162400982Y-80495232D01*
X162237278Y-80510131D01*
X162211618Y-80512466D01*
X162128217Y-80537012D01*
X162029208Y-80566152D01*
X162029203Y-80566154D01*
X162023393Y-80567864D01*
X162018023Y-80570671D01*
X162018019Y-80570673D01*
X161950155Y-80606152D01*
X161849512Y-80658767D01*
X161844789Y-80662564D01*
X161844788Y-80662565D01*
X161732469Y-80752872D01*
X161696600Y-80781711D01*
X161570480Y-80932016D01*
X161548350Y-80972271D01*
X161489884Y-81078620D01*
X161475956Y-81103954D01*
X161474124Y-81109729D01*
X161440669Y-81215193D01*
X161416628Y-81290978D01*
X161414371Y-81311100D01*
X161399913Y-81440000D01*
X161394757Y-81485963D01*
X157604440Y-81485963D01*
X157605643Y-81440000D01*
X157585454Y-81220289D01*
X157525565Y-81007936D01*
X157477295Y-80910053D01*
X157461930Y-80878897D01*
X157427980Y-80810053D01*
X157295967Y-80633267D01*
X157133949Y-80483499D01*
X157104018Y-80464614D01*
X156952159Y-80368798D01*
X156952157Y-80368797D01*
X156947350Y-80365764D01*
X156881947Y-80339671D01*
X156826974Y-80296546D01*
X156804044Y-80230547D01*
X156820435Y-80162627D01*
X156870945Y-80114351D01*
X156927895Y-80100499D01*
X157147376Y-80100499D01*
X157208580Y-80093851D01*
X157342824Y-80043526D01*
X157349889Y-80038231D01*
X157349891Y-80038230D01*
X157450481Y-79962841D01*
X157457546Y-79957546D01*
X157543526Y-79842824D01*
X157593851Y-79708580D01*
X157600500Y-79647377D01*
X157600499Y-78152624D01*
X157593851Y-78091420D01*
X157543526Y-77957176D01*
X157537788Y-77949519D01*
X157462841Y-77849519D01*
X157457546Y-77842454D01*
X157412745Y-77808877D01*
X157349891Y-77761770D01*
X157349889Y-77761769D01*
X157342824Y-77756474D01*
X157208580Y-77706149D01*
X157147377Y-77699500D01*
X156400112Y-77699500D01*
X155652624Y-77699501D01*
X155591420Y-77706149D01*
X155457176Y-77756474D01*
X155450111Y-77761769D01*
X155450109Y-77761770D01*
X155387255Y-77808877D01*
X155342454Y-77842454D01*
X155337159Y-77849519D01*
X155262213Y-77949519D01*
X155256474Y-77957176D01*
X155253374Y-77965445D01*
X155253373Y-77965447D01*
X155214544Y-78069026D01*
X155172579Y-78124890D01*
X155107075Y-78149199D01*
X155098434Y-78149500D01*
X151066310Y-78149500D01*
X151047663Y-78148090D01*
X151026370Y-78144851D01*
X151019189Y-78145435D01*
X151019187Y-78145435D01*
X150974231Y-78149092D01*
X150964178Y-78149500D01*
X150956178Y-78149500D01*
X150928242Y-78152757D01*
X150923943Y-78153182D01*
X150859118Y-78158455D01*
X150859116Y-78158455D01*
X150851941Y-78159039D01*
X150845093Y-78161257D01*
X150839174Y-78162440D01*
X150833324Y-78163823D01*
X150826172Y-78164657D01*
X150772486Y-78184144D01*
X150758246Y-78189313D01*
X150754159Y-78190715D01*
X150685454Y-78212973D01*
X150679293Y-78216712D01*
X150673817Y-78219219D01*
X150668441Y-78221911D01*
X150661669Y-78224369D01*
X150655645Y-78228318D01*
X150655644Y-78228319D01*
X150601257Y-78263977D01*
X150597596Y-78266287D01*
X150540560Y-78300897D01*
X150540557Y-78300899D01*
X150535841Y-78303761D01*
X150527548Y-78311084D01*
X150527523Y-78311056D01*
X150524634Y-78313619D01*
X150521341Y-78316372D01*
X150515315Y-78320323D01*
X150510363Y-78325550D01*
X150510361Y-78325552D01*
X150462617Y-78375952D01*
X150460277Y-78378355D01*
X148116203Y-80722430D01*
X148102020Y-80734620D01*
X148084676Y-80747383D01*
X148080016Y-80752869D01*
X148080012Y-80752872D01*
X148050803Y-80787254D01*
X148043983Y-80794650D01*
X148038330Y-80800303D01*
X148020863Y-80822380D01*
X148018150Y-80825689D01*
X148013127Y-80831602D01*
X147971368Y-80880755D01*
X147968090Y-80887176D01*
X147964733Y-80892209D01*
X147961589Y-80897299D01*
X147957119Y-80902949D01*
X147926519Y-80968422D01*
X147924637Y-80972271D01*
X147891781Y-81036616D01*
X147890069Y-81043614D01*
X147887970Y-81049257D01*
X147886069Y-81054971D01*
X147883021Y-81061493D01*
X147875294Y-81098644D01*
X147868306Y-81132238D01*
X147867353Y-81136447D01*
X147850185Y-81206606D01*
X147849843Y-81212114D01*
X147849843Y-81212116D01*
X147849675Y-81214819D01*
X147849500Y-81217648D01*
X147849464Y-81217646D01*
X147849231Y-81221500D01*
X147848849Y-81225778D01*
X147847382Y-81232831D01*
X147849064Y-81294982D01*
X147849455Y-81309437D01*
X147849500Y-81312791D01*
X147849500Y-81432905D01*
X147829815Y-81499944D01*
X147777011Y-81545699D01*
X147707853Y-81555643D01*
X147644297Y-81526618D01*
X147629408Y-81511277D01*
X147617196Y-81496304D01*
X147617195Y-81496303D01*
X147613361Y-81491602D01*
X147555400Y-81443653D01*
X147466856Y-81370403D01*
X147466854Y-81370402D01*
X147462180Y-81366535D01*
X147289585Y-81273213D01*
X147102152Y-81215193D01*
X146907019Y-81194683D01*
X146900986Y-81195232D01*
X146900982Y-81195232D01*
X146737278Y-81210131D01*
X146711618Y-81212466D01*
X146665804Y-81225950D01*
X146529208Y-81266152D01*
X146529203Y-81266154D01*
X146523393Y-81267864D01*
X146518023Y-81270671D01*
X146518019Y-81270673D01*
X146457957Y-81302073D01*
X146349512Y-81358767D01*
X146344789Y-81362564D01*
X146344788Y-81362565D01*
X146253007Y-81436359D01*
X146196600Y-81481711D01*
X146070480Y-81632016D01*
X145975956Y-81803954D01*
X145974124Y-81809729D01*
X145930387Y-81947606D01*
X145916628Y-81990978D01*
X145915952Y-81997005D01*
X145914692Y-82002934D01*
X145912397Y-82002446D01*
X145889390Y-82057295D01*
X145831820Y-82096886D01*
X145780227Y-82102378D01*
X145707019Y-82094683D01*
X145700986Y-82095232D01*
X145700982Y-82095232D01*
X145537278Y-82110131D01*
X145511618Y-82112466D01*
X145461387Y-82127250D01*
X145329208Y-82166152D01*
X145329203Y-82166154D01*
X145323393Y-82167864D01*
X145318023Y-82170671D01*
X145318019Y-82170673D01*
X145265042Y-82198369D01*
X145149512Y-82258767D01*
X145144789Y-82262564D01*
X145144788Y-82262565D01*
X145010329Y-82370673D01*
X144996600Y-82381711D01*
X144870480Y-82532016D01*
X144845249Y-82577911D01*
X144804121Y-82652723D01*
X144775956Y-82703954D01*
X144774124Y-82709729D01*
X144730138Y-82848391D01*
X144716628Y-82890978D01*
X144710145Y-82948778D01*
X144699458Y-83044056D01*
X144694757Y-83085963D01*
X144711175Y-83281483D01*
X144712849Y-83287320D01*
X144763593Y-83464285D01*
X144763150Y-83534153D01*
X144725004Y-83592690D01*
X144661265Y-83621311D01*
X144614044Y-83617438D01*
X144613887Y-83618205D01*
X144607937Y-83616984D01*
X144602152Y-83615193D01*
X144407019Y-83594683D01*
X144400986Y-83595232D01*
X144400982Y-83595232D01*
X144237278Y-83610131D01*
X144211618Y-83612466D01*
X144128217Y-83637012D01*
X144029208Y-83666152D01*
X144029203Y-83666154D01*
X144023393Y-83667864D01*
X144018023Y-83670671D01*
X144018019Y-83670673D01*
X143944881Y-83708909D01*
X143849512Y-83758767D01*
X143844789Y-83762564D01*
X143844788Y-83762565D01*
X143742756Y-83844601D01*
X143696600Y-83881711D01*
X143570480Y-84032016D01*
X143475956Y-84203954D01*
X143474124Y-84209729D01*
X143430214Y-84348151D01*
X143416628Y-84390978D01*
X143415952Y-84397006D01*
X143397721Y-84559540D01*
X143394757Y-84585963D01*
X143395265Y-84592009D01*
X143407845Y-84741824D01*
X143411175Y-84781483D01*
X143412848Y-84787316D01*
X143413461Y-84790657D01*
X143406204Y-84860149D01*
X143362529Y-84914685D01*
X143296302Y-84936952D01*
X143254831Y-84931499D01*
X143207946Y-84916985D01*
X143207931Y-84916982D01*
X143202152Y-84915193D01*
X143007019Y-84894683D01*
X143000986Y-84895232D01*
X143000982Y-84895232D01*
X142837278Y-84910131D01*
X142811618Y-84912466D01*
X142746950Y-84931499D01*
X142629208Y-84966152D01*
X142629203Y-84966154D01*
X142623393Y-84967864D01*
X142618023Y-84970671D01*
X142618019Y-84970673D01*
X142532256Y-85015510D01*
X142449512Y-85058767D01*
X142296600Y-85181711D01*
X142170480Y-85332016D01*
X142075956Y-85503954D01*
X142016628Y-85690978D01*
X141994757Y-85885963D01*
X142011175Y-86081483D01*
X142031567Y-86152599D01*
X142054588Y-86232881D01*
X142054145Y-86302749D01*
X142015999Y-86361286D01*
X141952260Y-86389907D01*
X141883166Y-86379525D01*
X141866520Y-86370125D01*
X141862180Y-86366535D01*
X141689585Y-86273213D01*
X141679500Y-86270091D01*
X141661102Y-86264396D01*
X141502152Y-86215193D01*
X141307019Y-86194683D01*
X141300986Y-86195232D01*
X141300982Y-86195232D01*
X141137278Y-86210131D01*
X141111618Y-86212466D01*
X141028217Y-86237012D01*
X140929208Y-86266152D01*
X140929203Y-86266154D01*
X140923393Y-86267864D01*
X140918023Y-86270671D01*
X140918019Y-86270673D01*
X140885647Y-86287597D01*
X140749512Y-86358767D01*
X140744789Y-86362564D01*
X140744788Y-86362565D01*
X140642756Y-86444601D01*
X140596600Y-86481711D01*
X140470480Y-86632016D01*
X140375956Y-86803954D01*
X140316628Y-86990978D01*
X140294757Y-87185963D01*
X140311175Y-87381483D01*
X140365258Y-87570091D01*
X140368030Y-87575486D01*
X140368031Y-87575487D01*
X140393728Y-87625487D01*
X140454944Y-87744601D01*
X140458709Y-87749351D01*
X140458712Y-87749356D01*
X140522678Y-87830061D01*
X140548893Y-87894827D01*
X140549500Y-87907083D01*
X140549500Y-89592711D01*
X140529815Y-89659750D01*
X140520490Y-89672416D01*
X140470480Y-89732016D01*
X140375956Y-89903954D01*
X140374124Y-89909729D01*
X140327824Y-90055685D01*
X140316628Y-90090978D01*
X140313656Y-90117475D01*
X140297791Y-90258918D01*
X140294757Y-90285963D01*
X140311175Y-90481483D01*
X140365258Y-90670091D01*
X140454944Y-90844601D01*
X140458709Y-90849351D01*
X140458712Y-90849356D01*
X140573049Y-90993614D01*
X140576818Y-90998369D01*
X140581437Y-91002300D01*
X140688736Y-91093618D01*
X140726238Y-91125535D01*
X140731536Y-91128496D01*
X140858483Y-91199444D01*
X140897513Y-91221257D01*
X141084118Y-91281889D01*
X141278946Y-91305121D01*
X141284990Y-91304656D01*
X141284991Y-91304656D01*
X141376761Y-91297594D01*
X141474576Y-91290068D01*
X141663556Y-91237303D01*
X141838689Y-91148837D01*
X141975179Y-91042200D01*
X142040126Y-91016439D01*
X142108691Y-91029879D01*
X142148698Y-91062890D01*
X142176818Y-91098369D01*
X142326238Y-91225535D01*
X142331536Y-91228496D01*
X142423719Y-91280015D01*
X142497513Y-91321257D01*
X142538483Y-91334569D01*
X142647808Y-91370091D01*
X142684118Y-91381889D01*
X142878946Y-91405121D01*
X142884990Y-91404656D01*
X142884991Y-91404656D01*
X142976761Y-91397594D01*
X143074576Y-91390068D01*
X143263556Y-91337303D01*
X143438689Y-91248837D01*
X143503182Y-91198450D01*
X143514681Y-91189466D01*
X143579628Y-91163705D01*
X143648193Y-91177145D01*
X143676749Y-91198450D01*
X143676818Y-91198369D01*
X143681431Y-91202295D01*
X143802252Y-91305121D01*
X143826238Y-91325535D01*
X143831536Y-91328496D01*
X143967356Y-91404403D01*
X143997513Y-91421257D01*
X144184118Y-91481889D01*
X144378946Y-91505121D01*
X144384990Y-91504656D01*
X144384991Y-91504656D01*
X144476761Y-91497595D01*
X144574576Y-91490068D01*
X144763556Y-91437303D01*
X144768966Y-91434570D01*
X144768969Y-91434569D01*
X144852558Y-91392345D01*
X144921272Y-91379689D01*
X144988833Y-91408595D01*
X145126238Y-91525535D01*
X145131536Y-91528496D01*
X145222817Y-91579511D01*
X145297513Y-91621257D01*
X145484118Y-91681889D01*
X145678946Y-91705121D01*
X145684990Y-91704656D01*
X145684991Y-91704656D01*
X145776761Y-91697594D01*
X145874576Y-91690068D01*
X146063556Y-91637303D01*
X146238689Y-91548837D01*
X146238760Y-91548977D01*
X146303357Y-91530407D01*
X146363146Y-91546162D01*
X146497513Y-91621257D01*
X146684118Y-91681889D01*
X146878946Y-91705121D01*
X146884990Y-91704656D01*
X146884991Y-91704656D01*
X146976761Y-91697594D01*
X147074576Y-91690068D01*
X147263556Y-91637303D01*
X147438689Y-91548837D01*
X147547778Y-91463608D01*
X147612725Y-91437847D01*
X147681290Y-91451287D01*
X147734408Y-91504642D01*
X147754944Y-91544601D01*
X147758709Y-91549351D01*
X147758712Y-91549356D01*
X147870607Y-91690533D01*
X147876818Y-91698369D01*
X148026238Y-91825535D01*
X148031536Y-91828496D01*
X148192213Y-91918295D01*
X148197513Y-91921257D01*
X148312698Y-91958683D01*
X148352356Y-91971569D01*
X148410032Y-92011007D01*
X148437230Y-92075365D01*
X148425315Y-92144212D01*
X148378071Y-92195687D01*
X148314038Y-92213500D01*
X141169110Y-92213500D01*
X141102071Y-92193815D01*
X141090081Y-92185053D01*
X141024180Y-92130535D01*
X140851585Y-92037213D01*
X140664152Y-91979193D01*
X140469019Y-91958683D01*
X140462986Y-91959232D01*
X140462982Y-91959232D01*
X140299278Y-91974131D01*
X140273618Y-91976466D01*
X140222242Y-91991587D01*
X140091208Y-92030152D01*
X140091203Y-92030154D01*
X140085393Y-92031864D01*
X140080023Y-92034671D01*
X140080019Y-92034673D01*
X140008245Y-92072196D01*
X139911512Y-92122767D01*
X139906789Y-92126564D01*
X139906788Y-92126565D01*
X139797811Y-92214185D01*
X139758600Y-92245711D01*
X139632480Y-92396016D01*
X139623651Y-92412076D01*
X139555713Y-92535655D01*
X139537956Y-92567954D01*
X139536124Y-92573729D01*
X139506745Y-92666344D01*
X139478628Y-92754978D01*
X139477952Y-92761006D01*
X139466232Y-92865495D01*
X139456757Y-92949963D01*
X139473175Y-93145483D01*
X139527258Y-93334091D01*
X139616944Y-93508601D01*
X139620709Y-93513351D01*
X139620712Y-93513356D01*
X139667321Y-93572162D01*
X139738818Y-93662369D01*
X139888238Y-93789535D01*
X139893536Y-93792496D01*
X139929932Y-93812837D01*
X140059513Y-93885257D01*
X140246118Y-93945889D01*
X140440946Y-93969121D01*
X140446990Y-93968656D01*
X140446991Y-93968656D01*
X140538761Y-93961594D01*
X140636576Y-93954068D01*
X140825556Y-93901303D01*
X141000689Y-93812837D01*
X141005469Y-93809103D01*
X141005473Y-93809100D01*
X141092909Y-93740787D01*
X141157856Y-93715025D01*
X141169251Y-93714500D01*
X148201771Y-93714500D01*
X148268810Y-93734185D01*
X148289452Y-93750819D01*
X151183181Y-96644548D01*
X151216666Y-96705871D01*
X151219500Y-96732229D01*
X151219500Y-110577964D01*
X151199815Y-110645003D01*
X151190497Y-110657661D01*
X151170480Y-110681516D01*
X151161141Y-110698504D01*
X151108482Y-110794289D01*
X151058935Y-110843553D01*
X150990620Y-110858209D01*
X150925226Y-110833605D01*
X150890336Y-110792767D01*
X150837370Y-110693153D01*
X150778407Y-110620856D01*
X150751290Y-110556464D01*
X150750500Y-110542486D01*
X150750500Y-102766304D01*
X150751910Y-102747655D01*
X150754064Y-102733493D01*
X150755148Y-102726370D01*
X150750908Y-102674239D01*
X150750500Y-102664187D01*
X150750500Y-102656178D01*
X150747241Y-102628221D01*
X150746815Y-102623918D01*
X150741545Y-102559116D01*
X150741544Y-102559112D01*
X150740961Y-102551941D01*
X150738743Y-102545093D01*
X150737562Y-102539185D01*
X150736177Y-102533328D01*
X150735343Y-102526172D01*
X150710685Y-102458239D01*
X150709282Y-102454152D01*
X150689248Y-102392310D01*
X150687027Y-102385454D01*
X150683289Y-102379295D01*
X150680781Y-102373816D01*
X150678088Y-102368438D01*
X150675631Y-102361669D01*
X150636023Y-102301256D01*
X150633715Y-102297597D01*
X150599105Y-102240563D01*
X150599099Y-102240555D01*
X150596238Y-102235840D01*
X150588915Y-102227548D01*
X150588943Y-102227523D01*
X150586386Y-102224639D01*
X150583626Y-102221338D01*
X150579677Y-102215315D01*
X150524028Y-102162598D01*
X150521626Y-102160259D01*
X150330644Y-101969277D01*
X150297159Y-101907954D01*
X150294917Y-101893696D01*
X150286786Y-101810764D01*
X150286786Y-101810762D01*
X150286194Y-101804728D01*
X150229484Y-101616894D01*
X150225675Y-101609729D01*
X150161041Y-101488172D01*
X150137370Y-101443653D01*
X150013361Y-101291602D01*
X149991674Y-101273661D01*
X149866856Y-101170403D01*
X149866854Y-101170402D01*
X149862180Y-101166535D01*
X149689585Y-101073213D01*
X149502152Y-101015193D01*
X149307019Y-100994683D01*
X149300986Y-100995232D01*
X149300982Y-100995232D01*
X149137278Y-101010131D01*
X149111618Y-101012466D01*
X149028217Y-101037012D01*
X148929208Y-101066152D01*
X148929203Y-101066154D01*
X148923393Y-101067864D01*
X148918023Y-101070671D01*
X148918019Y-101070673D01*
X148832256Y-101115510D01*
X148749512Y-101158767D01*
X148744789Y-101162564D01*
X148744788Y-101162565D01*
X148621585Y-101261623D01*
X148596600Y-101281711D01*
X148470480Y-101432016D01*
X148375956Y-101603954D01*
X148374124Y-101609729D01*
X148318973Y-101783587D01*
X148316628Y-101790978D01*
X148315952Y-101797006D01*
X148296629Y-101969277D01*
X148294757Y-101985963D01*
X148311175Y-102181483D01*
X148365258Y-102370091D01*
X148368030Y-102375486D01*
X148368031Y-102375487D01*
X148408842Y-102454897D01*
X148454944Y-102544601D01*
X148458709Y-102549351D01*
X148458712Y-102549356D01*
X148549726Y-102664187D01*
X148576818Y-102698369D01*
X148726238Y-102825535D01*
X148897513Y-102921257D01*
X148982655Y-102948922D01*
X149054145Y-102972150D01*
X149084118Y-102981889D01*
X149090136Y-102982607D01*
X149090138Y-102982607D01*
X149117692Y-102985892D01*
X149140182Y-102988574D01*
X149204419Y-103016058D01*
X149243600Y-103073908D01*
X149249500Y-103111702D01*
X149249500Y-110542211D01*
X149229815Y-110609250D01*
X149220490Y-110621916D01*
X149170480Y-110681516D01*
X149161141Y-110698504D01*
X149089686Y-110828480D01*
X149075956Y-110853454D01*
X149074124Y-110859229D01*
X149024970Y-111014182D01*
X149016628Y-111040478D01*
X149015952Y-111046506D01*
X149001625Y-111174236D01*
X148994757Y-111235463D01*
X148995265Y-111241509D01*
X149002881Y-111332211D01*
X148988875Y-111400663D01*
X148940085Y-111450676D01*
X148872001Y-111466371D01*
X148806240Y-111442766D01*
X148791635Y-111430268D01*
X147396784Y-110035417D01*
X147363299Y-109974094D01*
X147368283Y-109904402D01*
X147410155Y-109848469D01*
X147475619Y-109824052D01*
X147522781Y-109829805D01*
X147684618Y-109882389D01*
X147879446Y-109905621D01*
X147885490Y-109905156D01*
X147885491Y-109905156D01*
X148000543Y-109896303D01*
X148075076Y-109890568D01*
X148264056Y-109837803D01*
X148439189Y-109749337D01*
X148593803Y-109628540D01*
X148597759Y-109623956D01*
X148597763Y-109623953D01*
X148718047Y-109484601D01*
X148722009Y-109480011D01*
X148748280Y-109433767D01*
X148767994Y-109399064D01*
X148818925Y-109309409D01*
X148880858Y-109123232D01*
X148888658Y-109061493D01*
X148905014Y-108932015D01*
X148905014Y-108932014D01*
X148905449Y-108928571D01*
X148905841Y-108900500D01*
X148886694Y-108705228D01*
X148829984Y-108517394D01*
X148818397Y-108495601D01*
X148763422Y-108392209D01*
X148737870Y-108344153D01*
X148613861Y-108192102D01*
X148462680Y-108067035D01*
X148290085Y-107973713D01*
X148102652Y-107915693D01*
X148005978Y-107905532D01*
X147941364Y-107878947D01*
X147931259Y-107869892D01*
X145819305Y-105757938D01*
X145785820Y-105696615D01*
X145790804Y-105626923D01*
X145813115Y-105589237D01*
X145817543Y-105584106D01*
X145817547Y-105584101D01*
X145821509Y-105579511D01*
X145828881Y-105566535D01*
X145873011Y-105488851D01*
X145918425Y-105408909D01*
X145956988Y-105292986D01*
X145978446Y-105228480D01*
X145978446Y-105228479D01*
X145980358Y-105222732D01*
X145986021Y-105177910D01*
X146004514Y-105031515D01*
X146004514Y-105031514D01*
X146004949Y-105028071D01*
X146005341Y-105000000D01*
X145986194Y-104804728D01*
X145929484Y-104616894D01*
X145925675Y-104609729D01*
X145869817Y-104504677D01*
X145837370Y-104443653D01*
X145713361Y-104291602D01*
X145612031Y-104207775D01*
X145566856Y-104170403D01*
X145566854Y-104170402D01*
X145562180Y-104166535D01*
X145408533Y-104083458D01*
X145365771Y-104041047D01*
X145299992Y-104045102D01*
X145290873Y-104042656D01*
X145207939Y-104016984D01*
X145207935Y-104016983D01*
X145202152Y-104015193D01*
X145007019Y-103994683D01*
X145000986Y-103995232D01*
X145000982Y-103995232D01*
X144861196Y-104007954D01*
X144811618Y-104012466D01*
X144728217Y-104037012D01*
X144629208Y-104066152D01*
X144629203Y-104066154D01*
X144623393Y-104067864D01*
X144618023Y-104070671D01*
X144618019Y-104070673D01*
X144541792Y-104110524D01*
X144449512Y-104158767D01*
X144444789Y-104162564D01*
X144444788Y-104162565D01*
X144376575Y-104217410D01*
X144296600Y-104281711D01*
X144170480Y-104432016D01*
X144149548Y-104470091D01*
X144080554Y-104595591D01*
X144075956Y-104603954D01*
X144074124Y-104609729D01*
X144041025Y-104714071D01*
X144016628Y-104790978D01*
X144015952Y-104797006D01*
X143997210Y-104964096D01*
X143994757Y-104985963D01*
X144011175Y-105181483D01*
X144065258Y-105370091D01*
X144068030Y-105375486D01*
X144068031Y-105375487D01*
X144078179Y-105395232D01*
X144154944Y-105544601D01*
X144158709Y-105549351D01*
X144158712Y-105549356D01*
X144222678Y-105630061D01*
X144248893Y-105694827D01*
X144249500Y-105707083D01*
X144249500Y-105933696D01*
X144248090Y-105952344D01*
X144244852Y-105973630D01*
X144245436Y-105980811D01*
X144245436Y-105980813D01*
X144249092Y-106025761D01*
X144249500Y-106035813D01*
X144249500Y-106043822D01*
X144249916Y-106047387D01*
X144252759Y-106071774D01*
X144253185Y-106076082D01*
X144256744Y-106119838D01*
X144259039Y-106148059D01*
X144261257Y-106154907D01*
X144262438Y-106160815D01*
X144263823Y-106166672D01*
X144264657Y-106173828D01*
X144280226Y-106216719D01*
X144289313Y-106241754D01*
X144290715Y-106245841D01*
X144312973Y-106314546D01*
X144316711Y-106320705D01*
X144319219Y-106326184D01*
X144321912Y-106331562D01*
X144324369Y-106338331D01*
X144328318Y-106344354D01*
X144363977Y-106398744D01*
X144366277Y-106402389D01*
X144403761Y-106464160D01*
X144407416Y-106468298D01*
X144411085Y-106472452D01*
X144411057Y-106472477D01*
X144413618Y-106475366D01*
X144416375Y-106478663D01*
X144420323Y-106484685D01*
X144475971Y-106537401D01*
X144478374Y-106539741D01*
X146869602Y-108930969D01*
X146903087Y-108992292D01*
X146905486Y-109008275D01*
X146909955Y-109061493D01*
X146911675Y-109081983D01*
X146965315Y-109269046D01*
X146965758Y-109270591D01*
X146965464Y-109270675D01*
X146971548Y-109337085D01*
X146939294Y-109399064D01*
X146878652Y-109433767D01*
X146808874Y-109430175D01*
X146762199Y-109400832D01*
X141430644Y-104069277D01*
X141397159Y-104007954D01*
X141394917Y-103993696D01*
X141392449Y-103968518D01*
X141386194Y-103904728D01*
X141381276Y-103888437D01*
X141331235Y-103722694D01*
X141329484Y-103716894D01*
X141237370Y-103543653D01*
X141113361Y-103391602D01*
X141103468Y-103383418D01*
X140966856Y-103270403D01*
X140966854Y-103270402D01*
X140962180Y-103266535D01*
X140789585Y-103173213D01*
X140602152Y-103115193D01*
X140505478Y-103105032D01*
X140440864Y-103078447D01*
X140430759Y-103069392D01*
X140302150Y-102940783D01*
X140268665Y-102879460D01*
X140273649Y-102809768D01*
X140315521Y-102753835D01*
X140380985Y-102729418D01*
X140389831Y-102729102D01*
X144516373Y-102729102D01*
X144583412Y-102748787D01*
X144604054Y-102765421D01*
X144769102Y-102930469D01*
X144802587Y-102991792D01*
X144804986Y-103007774D01*
X144811175Y-103081483D01*
X144812847Y-103087315D01*
X144812848Y-103087319D01*
X144831934Y-103153877D01*
X144865258Y-103270091D01*
X144954944Y-103444601D01*
X144958709Y-103449351D01*
X144958712Y-103449356D01*
X145037695Y-103549008D01*
X145076818Y-103598369D01*
X145081437Y-103602300D01*
X145205958Y-103708275D01*
X145226238Y-103725535D01*
X145388037Y-103815961D01*
X145429220Y-103857962D01*
X145493369Y-103853108D01*
X145505821Y-103856448D01*
X145584118Y-103881889D01*
X145778946Y-103905121D01*
X145784990Y-103904656D01*
X145784991Y-103904656D01*
X145885345Y-103896934D01*
X145974576Y-103890068D01*
X146163556Y-103837303D01*
X146338689Y-103748837D01*
X146493303Y-103628040D01*
X146497259Y-103623456D01*
X146497263Y-103623453D01*
X146617547Y-103484101D01*
X146621509Y-103479511D01*
X146718425Y-103308909D01*
X146758620Y-103188079D01*
X146778446Y-103128480D01*
X146778446Y-103128479D01*
X146780358Y-103122732D01*
X146781311Y-103115193D01*
X146804514Y-102931515D01*
X146804514Y-102931514D01*
X146804949Y-102928071D01*
X146805341Y-102900000D01*
X146790403Y-102747655D01*
X146786786Y-102710765D01*
X146786786Y-102710764D01*
X146786194Y-102704728D01*
X146729484Y-102516894D01*
X146637370Y-102343653D01*
X146513361Y-102191602D01*
X146426389Y-102119653D01*
X146366856Y-102070403D01*
X146366854Y-102070402D01*
X146362180Y-102066535D01*
X146189585Y-101973213D01*
X146002152Y-101915193D01*
X145905478Y-101905032D01*
X145840864Y-101878447D01*
X145830759Y-101869392D01*
X145456172Y-101494805D01*
X145443982Y-101480621D01*
X145435490Y-101469081D01*
X145435488Y-101469079D01*
X145431219Y-101463278D01*
X145402586Y-101438952D01*
X145391355Y-101429411D01*
X145383958Y-101422591D01*
X145378299Y-101416932D01*
X145356222Y-101399465D01*
X145352913Y-101396752D01*
X145303342Y-101354638D01*
X145303340Y-101354637D01*
X145297847Y-101349970D01*
X145291426Y-101346692D01*
X145286393Y-101343335D01*
X145281303Y-101340191D01*
X145275653Y-101335721D01*
X145210180Y-101305121D01*
X145206331Y-101303239D01*
X145148406Y-101273661D01*
X145148404Y-101273660D01*
X145141986Y-101270383D01*
X145134988Y-101268671D01*
X145129345Y-101266572D01*
X145123631Y-101264671D01*
X145117109Y-101261623D01*
X145046351Y-101246905D01*
X145042155Y-101245955D01*
X144971996Y-101228787D01*
X144966488Y-101228445D01*
X144966486Y-101228445D01*
X144960954Y-101228102D01*
X144960956Y-101228066D01*
X144957102Y-101227833D01*
X144952824Y-101227451D01*
X144945771Y-101225984D01*
X144877443Y-101227833D01*
X144869165Y-101228057D01*
X144865811Y-101228102D01*
X140328508Y-101228102D01*
X140261469Y-101208417D01*
X140249479Y-101199655D01*
X140183578Y-101145137D01*
X140010983Y-101051815D01*
X139823550Y-100993795D01*
X139628417Y-100973285D01*
X139622384Y-100973834D01*
X139622380Y-100973834D01*
X139474199Y-100987320D01*
X139433016Y-100991068D01*
X139354499Y-101014177D01*
X139250606Y-101044754D01*
X139250601Y-101044756D01*
X139244791Y-101046466D01*
X139239421Y-101049273D01*
X139239417Y-101049275D01*
X139188108Y-101076099D01*
X139070910Y-101137369D01*
X139066187Y-101141166D01*
X139066186Y-101141167D01*
X138934671Y-101246908D01*
X138917998Y-101260313D01*
X138912192Y-101267233D01*
X138869785Y-101317772D01*
X138811613Y-101356474D01*
X138741752Y-101357582D01*
X138687114Y-101325747D01*
X138241248Y-100879881D01*
X138207763Y-100818558D01*
X138205373Y-100799997D01*
X138205341Y-100800000D01*
X138205237Y-100798935D01*
X138205235Y-100798921D01*
X138204558Y-100792009D01*
X138186786Y-100610765D01*
X138186786Y-100610764D01*
X138186194Y-100604728D01*
X138129484Y-100416894D01*
X138125675Y-100409729D01*
X138040217Y-100249008D01*
X138037370Y-100243653D01*
X137913361Y-100091602D01*
X137762180Y-99966535D01*
X137589585Y-99873213D01*
X137402152Y-99815193D01*
X137207019Y-99794683D01*
X137200986Y-99795232D01*
X137200982Y-99795232D01*
X137037278Y-99810131D01*
X137011618Y-99812466D01*
X136928217Y-99837012D01*
X136829208Y-99866152D01*
X136829203Y-99866154D01*
X136823393Y-99867864D01*
X136818023Y-99870671D01*
X136818019Y-99870673D01*
X136732256Y-99915510D01*
X136649512Y-99958767D01*
X136644789Y-99962564D01*
X136644788Y-99962565D01*
X136635040Y-99970403D01*
X136496600Y-100081711D01*
X136370480Y-100232016D01*
X136275956Y-100403954D01*
X136216628Y-100590978D01*
X136194757Y-100785963D01*
X136211175Y-100981483D01*
X136265258Y-101170091D01*
X136268030Y-101175486D01*
X136268031Y-101175487D01*
X136304737Y-101246908D01*
X136354944Y-101344601D01*
X136358709Y-101349351D01*
X136358712Y-101349356D01*
X136473049Y-101493614D01*
X136476818Y-101498369D01*
X136626238Y-101625535D01*
X136631536Y-101628496D01*
X136678280Y-101654620D01*
X136797513Y-101721257D01*
X136803285Y-101723132D01*
X136803284Y-101723132D01*
X136966117Y-101776040D01*
X136984118Y-101781889D01*
X136990140Y-101782607D01*
X136994596Y-101783587D01*
X137055646Y-101817013D01*
X139369102Y-104130469D01*
X139402587Y-104191792D01*
X139404986Y-104207774D01*
X139411175Y-104281483D01*
X139412847Y-104287315D01*
X139412848Y-104287319D01*
X139423267Y-104323653D01*
X139465258Y-104470091D01*
X139468030Y-104475486D01*
X139468031Y-104475487D01*
X139513890Y-104564719D01*
X139554944Y-104644601D01*
X139558709Y-104649351D01*
X139558712Y-104649356D01*
X139670960Y-104790978D01*
X139676818Y-104798369D01*
X139826238Y-104925535D01*
X139831536Y-104928496D01*
X139895235Y-104964096D01*
X139944152Y-105013984D01*
X139958332Y-105082400D01*
X139933272Y-105147621D01*
X139912438Y-105168977D01*
X139896600Y-105181711D01*
X139770480Y-105332016D01*
X139749548Y-105370091D01*
X139679173Y-105498103D01*
X139675956Y-105503954D01*
X139674124Y-105509729D01*
X139619568Y-105681711D01*
X139616628Y-105690978D01*
X139615952Y-105697005D01*
X139604914Y-105795407D01*
X139577879Y-105859834D01*
X139569368Y-105869265D01*
X139266954Y-106171679D01*
X139205631Y-106205164D01*
X139135939Y-106200180D01*
X139080006Y-106158308D01*
X139060566Y-106119838D01*
X139031239Y-106022704D01*
X139031236Y-106022696D01*
X139029484Y-106016894D01*
X139025675Y-106009729D01*
X138950988Y-105869265D01*
X138937370Y-105843653D01*
X138813361Y-105691602D01*
X138707412Y-105603954D01*
X138666856Y-105570403D01*
X138666854Y-105570402D01*
X138662180Y-105566535D01*
X138489585Y-105473213D01*
X138475113Y-105468733D01*
X138461102Y-105464396D01*
X138302152Y-105415193D01*
X138107019Y-105394683D01*
X138100986Y-105395232D01*
X138100982Y-105395232D01*
X137937278Y-105410131D01*
X137911618Y-105412466D01*
X137828217Y-105437012D01*
X137729208Y-105466152D01*
X137729203Y-105466154D01*
X137723393Y-105467864D01*
X137718023Y-105470671D01*
X137718019Y-105470673D01*
X137670532Y-105495499D01*
X137549512Y-105558767D01*
X137544789Y-105562564D01*
X137544788Y-105562565D01*
X137470003Y-105622694D01*
X137396600Y-105681711D01*
X137270480Y-105832016D01*
X137261139Y-105849008D01*
X137185847Y-105985963D01*
X137175956Y-106003954D01*
X137174124Y-106009729D01*
X137126245Y-106160663D01*
X137116628Y-106190978D01*
X137116238Y-106194454D01*
X137083050Y-106255582D01*
X136105922Y-107232711D01*
X135116203Y-108222430D01*
X135102020Y-108234620D01*
X135084676Y-108247383D01*
X135080016Y-108252869D01*
X135080012Y-108252872D01*
X135050803Y-108287254D01*
X135043983Y-108294650D01*
X135038330Y-108300303D01*
X135020863Y-108322380D01*
X135018150Y-108325689D01*
X135006458Y-108339452D01*
X134971368Y-108380755D01*
X134968090Y-108387176D01*
X134964733Y-108392209D01*
X134961589Y-108397299D01*
X134957119Y-108402949D01*
X134926519Y-108468422D01*
X134924637Y-108472271D01*
X134898635Y-108523194D01*
X134891781Y-108536616D01*
X134890069Y-108543614D01*
X134887970Y-108549257D01*
X134886069Y-108554971D01*
X134883021Y-108561493D01*
X134881555Y-108568542D01*
X134868306Y-108632238D01*
X134867353Y-108636447D01*
X134850185Y-108706606D01*
X134849500Y-108717648D01*
X134849464Y-108717646D01*
X134849231Y-108721500D01*
X134848849Y-108725778D01*
X134847382Y-108732831D01*
X134847577Y-108740031D01*
X134849455Y-108809437D01*
X134849500Y-108812791D01*
X134849500Y-111437771D01*
X134829815Y-111504810D01*
X134813181Y-111525452D01*
X133669377Y-112669256D01*
X133608054Y-112702741D01*
X133592935Y-112705065D01*
X133532650Y-112710552D01*
X133511618Y-112712466D01*
X133453280Y-112729636D01*
X133329208Y-112766152D01*
X133329203Y-112766154D01*
X133323393Y-112767864D01*
X133318023Y-112770671D01*
X133318019Y-112770673D01*
X133247680Y-112807446D01*
X133149512Y-112858767D01*
X132996600Y-112981711D01*
X132870480Y-113132016D01*
X132843654Y-113180813D01*
X132807060Y-113247377D01*
X132775956Y-113303954D01*
X132774124Y-113309729D01*
X132729662Y-113449891D01*
X132716628Y-113490978D01*
X132712714Y-113525875D01*
X132695946Y-113675366D01*
X132694757Y-113685963D01*
X130591176Y-113685963D01*
X130608991Y-113563098D01*
X130610643Y-113500000D01*
X130590454Y-113280289D01*
X130530565Y-113067936D01*
X130432980Y-112870053D01*
X130300967Y-112693267D01*
X130205611Y-112605121D01*
X130195329Y-112595616D01*
X130159462Y-112535655D01*
X130155500Y-112504560D01*
X130155500Y-105985963D01*
X132894757Y-105985963D01*
X132911175Y-106181483D01*
X132965258Y-106370091D01*
X133054944Y-106544601D01*
X133058709Y-106549351D01*
X133058712Y-106549356D01*
X133173049Y-106693614D01*
X133176818Y-106698369D01*
X133326238Y-106825535D01*
X133331536Y-106828496D01*
X133438788Y-106888437D01*
X133497513Y-106921257D01*
X133538483Y-106934569D01*
X133625729Y-106962917D01*
X133684118Y-106981889D01*
X133878946Y-107005121D01*
X133884990Y-107004656D01*
X133884991Y-107004656D01*
X133976761Y-106997595D01*
X134074576Y-106990068D01*
X134263556Y-106937303D01*
X134438689Y-106848837D01*
X134593303Y-106728040D01*
X134597259Y-106723456D01*
X134597263Y-106723453D01*
X134717547Y-106584101D01*
X134721509Y-106579511D01*
X134818425Y-106408909D01*
X134880358Y-106222732D01*
X134882578Y-106205164D01*
X134904514Y-106031515D01*
X134904514Y-106031514D01*
X134904949Y-106028071D01*
X134905341Y-106000000D01*
X134886194Y-105804728D01*
X134829484Y-105616894D01*
X134825675Y-105609729D01*
X134766609Y-105498644D01*
X134737370Y-105443653D01*
X134678407Y-105371356D01*
X134651290Y-105306964D01*
X134650500Y-105292986D01*
X134650500Y-99307892D01*
X134670185Y-99240853D01*
X134680632Y-99226868D01*
X134717547Y-99184101D01*
X134721509Y-99179511D01*
X134818425Y-99008909D01*
X134880358Y-98822732D01*
X134904949Y-98628071D01*
X134905341Y-98600000D01*
X134886194Y-98404728D01*
X134829484Y-98216894D01*
X134825675Y-98209729D01*
X134740217Y-98049008D01*
X134737370Y-98043653D01*
X134613361Y-97891602D01*
X134462180Y-97766535D01*
X134289585Y-97673213D01*
X134102152Y-97615193D01*
X133907019Y-97594683D01*
X133900986Y-97595232D01*
X133900982Y-97595232D01*
X133737278Y-97610131D01*
X133711618Y-97612466D01*
X133628217Y-97637012D01*
X133529208Y-97666152D01*
X133529203Y-97666154D01*
X133523393Y-97667864D01*
X133518023Y-97670671D01*
X133518019Y-97670673D01*
X133432256Y-97715510D01*
X133349512Y-97758767D01*
X133344789Y-97762564D01*
X133344788Y-97762565D01*
X133335040Y-97770403D01*
X133196600Y-97881711D01*
X133070480Y-98032016D01*
X132975956Y-98203954D01*
X132916628Y-98390978D01*
X132894757Y-98585963D01*
X132911175Y-98781483D01*
X132965258Y-98970091D01*
X133054944Y-99144601D01*
X133058709Y-99149351D01*
X133058712Y-99149356D01*
X133122678Y-99230061D01*
X133148893Y-99294827D01*
X133149500Y-99307083D01*
X133149500Y-105292711D01*
X133129815Y-105359750D01*
X133120490Y-105372416D01*
X133070480Y-105432016D01*
X133047832Y-105473213D01*
X132986868Y-105584106D01*
X132975956Y-105603954D01*
X132916628Y-105790978D01*
X132915952Y-105797006D01*
X132899568Y-105943076D01*
X132894757Y-105985963D01*
X130155500Y-105985963D01*
X130155500Y-103111518D01*
X130175185Y-103044479D01*
X130200209Y-103016182D01*
X130253151Y-102972150D01*
X130257518Y-102968518D01*
X130373974Y-102828496D01*
X130394971Y-102803250D01*
X130394972Y-102803249D01*
X130398602Y-102798884D01*
X130443235Y-102719187D01*
X130503631Y-102611341D01*
X130506410Y-102606379D01*
X130577331Y-102397452D01*
X130582145Y-102364255D01*
X130601966Y-102227548D01*
X130608991Y-102179098D01*
X130610643Y-102116000D01*
X130590454Y-101896289D01*
X130530565Y-101683936D01*
X130432980Y-101486053D01*
X130300967Y-101309267D01*
X130262449Y-101273661D01*
X130195329Y-101211616D01*
X130159462Y-101151655D01*
X130155500Y-101120560D01*
X130155500Y-94495518D01*
X130175185Y-94428479D01*
X130200209Y-94400182D01*
X130253151Y-94356150D01*
X130257518Y-94352518D01*
X130398602Y-94182884D01*
X130506410Y-93990379D01*
X130522149Y-93944015D01*
X130575502Y-93786839D01*
X130577331Y-93781452D01*
X130584185Y-93734185D01*
X130595287Y-93657614D01*
X130608991Y-93563098D01*
X130610643Y-93500000D01*
X130590454Y-93280289D01*
X130530565Y-93067936D01*
X130432980Y-92870053D01*
X130300967Y-92693267D01*
X130269550Y-92664225D01*
X130195329Y-92595616D01*
X130159462Y-92535655D01*
X130155500Y-92504560D01*
X130155500Y-83495518D01*
X130175185Y-83428479D01*
X130200209Y-83400182D01*
X130253151Y-83356150D01*
X130257518Y-83352518D01*
X130398602Y-83182884D01*
X130442372Y-83104728D01*
X130503631Y-82995341D01*
X130506410Y-82990379D01*
X130577331Y-82781452D01*
X130608991Y-82563098D01*
X130610643Y-82500000D01*
X130590454Y-82280289D01*
X130530565Y-82067936D01*
X130519058Y-82044601D01*
X130435495Y-81875153D01*
X130432980Y-81870053D01*
X130300967Y-81693267D01*
X130229683Y-81627373D01*
X130195329Y-81595616D01*
X130159462Y-81535655D01*
X130155500Y-81504560D01*
X130155500Y-73479500D01*
X130175185Y-73412461D01*
X130227989Y-73366706D01*
X130279500Y-73355500D01*
X152450208Y-73355500D01*
X152517247Y-73375185D01*
X152563002Y-73427989D01*
X152572946Y-73497147D01*
X152543921Y-73560703D01*
X152527908Y-73576137D01*
X152505472Y-73594176D01*
X152402048Y-73677331D01*
X152396600Y-73681711D01*
X152270480Y-73832016D01*
X152175956Y-74003954D01*
X152174124Y-74009729D01*
X152158764Y-74058151D01*
X152116628Y-74190978D01*
X152115952Y-74197006D01*
X152098047Y-74356635D01*
X152094757Y-74385963D01*
X152111175Y-74581483D01*
X152165258Y-74770091D01*
X152254944Y-74944601D01*
X152258709Y-74949351D01*
X152258712Y-74949356D01*
X152373049Y-75093614D01*
X152376818Y-75098369D01*
X152526238Y-75225535D01*
X152531536Y-75228496D01*
X152567932Y-75248837D01*
X152697513Y-75321257D01*
X152884118Y-75381889D01*
X153078946Y-75405121D01*
X153084990Y-75404656D01*
X153084991Y-75404656D01*
X153176761Y-75397595D01*
X153274576Y-75390068D01*
X153463556Y-75337303D01*
X153638689Y-75248837D01*
X153643469Y-75245103D01*
X153643473Y-75245100D01*
X153730909Y-75176787D01*
X153795856Y-75151025D01*
X153807251Y-75150500D01*
X160887771Y-75150500D01*
X160954810Y-75170185D01*
X160975452Y-75186819D01*
X173069102Y-87280469D01*
X173102587Y-87341792D01*
X173104986Y-87357774D01*
X173111175Y-87431483D01*
X173165258Y-87620091D01*
X173168030Y-87625486D01*
X173168031Y-87625487D01*
X173218184Y-87723074D01*
X173231319Y-87791698D01*
X173205269Y-87856529D01*
X173148304Y-87896986D01*
X173106273Y-87903743D01*
X173063064Y-87903177D01*
X173063059Y-87903177D01*
X173057376Y-87903103D01*
X172844455Y-87939690D01*
X172641766Y-88014466D01*
X172636888Y-88017368D01*
X172636886Y-88017369D01*
X172460982Y-88122020D01*
X172460979Y-88122022D01*
X172456098Y-88124926D01*
X172451825Y-88128673D01*
X172451824Y-88128674D01*
X172427845Y-88149703D01*
X172293669Y-88267373D01*
X172290154Y-88271832D01*
X172290151Y-88271835D01*
X172163436Y-88432572D01*
X172163433Y-88432576D01*
X172159919Y-88437034D01*
X172059327Y-88628228D01*
X171995262Y-88834553D01*
X171969869Y-89049097D01*
X171970240Y-89054759D01*
X171970240Y-89054763D01*
X171971894Y-89080000D01*
X171983998Y-89264677D01*
X172037178Y-89474071D01*
X172039552Y-89479221D01*
X172039554Y-89479226D01*
X172112353Y-89637139D01*
X172127626Y-89670268D01*
X172252313Y-89846697D01*
X172407065Y-89997449D01*
X172586697Y-90117475D01*
X172785194Y-90202756D01*
X172888324Y-90226092D01*
X172990362Y-90249181D01*
X172990364Y-90249181D01*
X172995909Y-90250436D01*
X173129683Y-90255692D01*
X173206104Y-90258695D01*
X173206106Y-90258695D01*
X173211784Y-90258918D01*
X173217404Y-90258103D01*
X173217407Y-90258103D01*
X173419971Y-90228733D01*
X173419973Y-90228733D01*
X173425591Y-90227918D01*
X173430968Y-90226093D01*
X173430971Y-90226092D01*
X173522009Y-90195188D01*
X173630167Y-90158473D01*
X173818663Y-90052911D01*
X173984765Y-89914765D01*
X174122911Y-89748663D01*
X174228473Y-89560167D01*
X174297918Y-89355591D01*
X174298733Y-89349971D01*
X174298735Y-89349963D01*
X174299022Y-89347982D01*
X174299418Y-89347118D01*
X174300062Y-89344435D01*
X174300589Y-89344562D01*
X174328124Y-89284462D01*
X174386948Y-89246759D01*
X174456817Y-89246843D01*
X174515549Y-89284689D01*
X174541923Y-89335254D01*
X174577178Y-89474071D01*
X174579552Y-89479221D01*
X174579554Y-89479226D01*
X174652353Y-89637139D01*
X174667626Y-89670268D01*
X174792313Y-89846697D01*
X174947065Y-89997449D01*
X175126697Y-90117475D01*
X175325194Y-90202756D01*
X175428324Y-90226092D01*
X175530362Y-90249181D01*
X175530364Y-90249181D01*
X175535909Y-90250436D01*
X175669683Y-90255692D01*
X175746104Y-90258695D01*
X175746106Y-90258695D01*
X175751784Y-90258918D01*
X175757404Y-90258103D01*
X175757407Y-90258103D01*
X175959971Y-90228733D01*
X175959973Y-90228733D01*
X175965591Y-90227918D01*
X175970968Y-90226093D01*
X175970971Y-90226092D01*
X176062009Y-90195188D01*
X176170167Y-90158473D01*
X176358663Y-90052911D01*
X176524765Y-89914765D01*
X176662911Y-89748663D01*
X176768473Y-89560167D01*
X176837918Y-89355591D01*
X176838733Y-89349971D01*
X176838735Y-89349963D01*
X176839022Y-89347982D01*
X176839418Y-89347118D01*
X176840062Y-89344435D01*
X176840589Y-89344562D01*
X176868124Y-89284462D01*
X176926948Y-89246759D01*
X176996817Y-89246843D01*
X177055549Y-89284689D01*
X177081923Y-89335254D01*
X177117178Y-89474071D01*
X177119552Y-89479221D01*
X177119554Y-89479226D01*
X177192353Y-89637139D01*
X177207626Y-89670268D01*
X177332313Y-89846697D01*
X177487065Y-89997449D01*
X177666697Y-90117475D01*
X177865194Y-90202756D01*
X177968324Y-90226092D01*
X178070362Y-90249181D01*
X178070364Y-90249181D01*
X178075909Y-90250436D01*
X178209683Y-90255692D01*
X178286104Y-90258695D01*
X178286106Y-90258695D01*
X178291784Y-90258918D01*
X178297404Y-90258103D01*
X178297407Y-90258103D01*
X178499971Y-90228733D01*
X178499973Y-90228733D01*
X178505591Y-90227918D01*
X178510968Y-90226093D01*
X178510971Y-90226092D01*
X178602009Y-90195188D01*
X178710167Y-90158473D01*
X178898663Y-90052911D01*
X179064765Y-89914765D01*
X179202911Y-89748663D01*
X179308473Y-89560167D01*
X179377918Y-89355591D01*
X179378733Y-89349971D01*
X179378735Y-89349963D01*
X179379022Y-89347982D01*
X179379418Y-89347118D01*
X179380062Y-89344435D01*
X179380589Y-89344562D01*
X179408124Y-89284462D01*
X179466948Y-89246759D01*
X179536817Y-89246843D01*
X179595549Y-89284689D01*
X179621923Y-89335254D01*
X179657178Y-89474071D01*
X179659552Y-89479221D01*
X179659554Y-89479226D01*
X179732353Y-89637139D01*
X179747626Y-89670268D01*
X179872313Y-89846697D01*
X180027065Y-89997449D01*
X180206697Y-90117475D01*
X180405194Y-90202756D01*
X180508324Y-90226092D01*
X180610362Y-90249181D01*
X180610364Y-90249181D01*
X180615909Y-90250436D01*
X180749683Y-90255692D01*
X180826104Y-90258695D01*
X180826106Y-90258695D01*
X180831784Y-90258918D01*
X180837404Y-90258103D01*
X180837407Y-90258103D01*
X181039971Y-90228733D01*
X181039973Y-90228733D01*
X181045591Y-90227918D01*
X181050968Y-90226093D01*
X181050971Y-90226092D01*
X181142009Y-90195188D01*
X181250167Y-90158473D01*
X181438663Y-90052911D01*
X181604765Y-89914765D01*
X181742911Y-89748663D01*
X181848473Y-89560167D01*
X181917918Y-89355591D01*
X181918733Y-89349971D01*
X181918735Y-89349963D01*
X181919022Y-89347982D01*
X181919418Y-89347118D01*
X181920062Y-89344435D01*
X181920589Y-89344562D01*
X181948124Y-89284462D01*
X182006948Y-89246759D01*
X182076817Y-89246843D01*
X182135549Y-89284689D01*
X182161923Y-89335254D01*
X182197178Y-89474071D01*
X182199552Y-89479221D01*
X182199554Y-89479226D01*
X182272353Y-89637139D01*
X182287626Y-89670268D01*
X182412313Y-89846697D01*
X182567065Y-89997449D01*
X182746697Y-90117475D01*
X182945194Y-90202756D01*
X183048324Y-90226092D01*
X183150362Y-90249181D01*
X183150364Y-90249181D01*
X183155909Y-90250436D01*
X183289683Y-90255692D01*
X183366104Y-90258695D01*
X183366106Y-90258695D01*
X183371784Y-90258918D01*
X183377404Y-90258103D01*
X183377407Y-90258103D01*
X183579971Y-90228733D01*
X183579973Y-90228733D01*
X183585591Y-90227918D01*
X183590968Y-90226093D01*
X183590971Y-90226092D01*
X183682009Y-90195188D01*
X183790167Y-90158473D01*
X183978663Y-90052911D01*
X184144765Y-89914765D01*
X184282911Y-89748663D01*
X184388473Y-89560167D01*
X184457918Y-89355591D01*
X184458733Y-89349971D01*
X184458735Y-89349963D01*
X184459022Y-89347982D01*
X184459418Y-89347118D01*
X184460062Y-89344435D01*
X184460589Y-89344562D01*
X184488124Y-89284462D01*
X184546948Y-89246759D01*
X184616817Y-89246843D01*
X184675549Y-89284689D01*
X184701923Y-89335254D01*
X184737178Y-89474071D01*
X184739552Y-89479221D01*
X184739554Y-89479226D01*
X184812353Y-89637139D01*
X184827626Y-89670268D01*
X184952313Y-89846697D01*
X185107065Y-89997449D01*
X185286697Y-90117475D01*
X185485194Y-90202756D01*
X185588324Y-90226092D01*
X185690362Y-90249181D01*
X185690364Y-90249181D01*
X185695909Y-90250436D01*
X185829683Y-90255692D01*
X185906104Y-90258695D01*
X185906106Y-90258695D01*
X185911784Y-90258918D01*
X185917404Y-90258103D01*
X185917407Y-90258103D01*
X186119971Y-90228733D01*
X186119973Y-90228733D01*
X186125591Y-90227918D01*
X186130968Y-90226093D01*
X186130971Y-90226092D01*
X186222009Y-90195188D01*
X186330167Y-90158473D01*
X186518663Y-90052911D01*
X186684765Y-89914765D01*
X186822911Y-89748663D01*
X186928473Y-89560167D01*
X186997918Y-89355591D01*
X187013686Y-89246843D01*
X187028395Y-89145391D01*
X187028918Y-89141784D01*
X187030536Y-89080000D01*
X187010768Y-88864864D01*
X186952125Y-88656934D01*
X186856572Y-88463172D01*
X186727309Y-88290067D01*
X186723139Y-88286212D01*
X186723136Y-88286209D01*
X186642430Y-88211606D01*
X186568665Y-88143418D01*
X186534751Y-88122020D01*
X186390761Y-88031169D01*
X186390759Y-88031168D01*
X186385952Y-88028135D01*
X186185290Y-87948079D01*
X186179709Y-87946969D01*
X186179706Y-87946968D01*
X186107016Y-87932509D01*
X185973400Y-87905931D01*
X185967713Y-87905857D01*
X185967708Y-87905856D01*
X185763063Y-87903177D01*
X185763058Y-87903177D01*
X185757376Y-87903103D01*
X185544455Y-87939690D01*
X185341766Y-88014466D01*
X185336888Y-88017368D01*
X185336886Y-88017369D01*
X185160982Y-88122020D01*
X185160979Y-88122022D01*
X185156098Y-88124926D01*
X185151825Y-88128673D01*
X185151824Y-88128674D01*
X185127845Y-88149703D01*
X184993669Y-88267373D01*
X184990154Y-88271832D01*
X184990151Y-88271835D01*
X184863436Y-88432572D01*
X184863433Y-88432576D01*
X184859919Y-88437034D01*
X184759327Y-88628228D01*
X184757643Y-88633652D01*
X184697278Y-88828061D01*
X184658599Y-88886248D01*
X184594602Y-88914286D01*
X184525605Y-88903274D01*
X184473515Y-88856708D01*
X184459511Y-88824949D01*
X184413668Y-88662406D01*
X184412125Y-88656934D01*
X184316572Y-88463172D01*
X184187309Y-88290067D01*
X184183139Y-88286212D01*
X184183136Y-88286209D01*
X184102430Y-88211606D01*
X184028665Y-88143418D01*
X183994751Y-88122020D01*
X183850761Y-88031169D01*
X183850759Y-88031168D01*
X183845952Y-88028135D01*
X183645290Y-87948079D01*
X183639709Y-87946969D01*
X183639706Y-87946968D01*
X183567016Y-87932509D01*
X183433400Y-87905931D01*
X183427713Y-87905857D01*
X183427708Y-87905856D01*
X183223063Y-87903177D01*
X183223058Y-87903177D01*
X183217376Y-87903103D01*
X183004455Y-87939690D01*
X182801766Y-88014466D01*
X182796888Y-88017368D01*
X182796886Y-88017369D01*
X182620982Y-88122020D01*
X182620979Y-88122022D01*
X182616098Y-88124926D01*
X182611825Y-88128673D01*
X182611824Y-88128674D01*
X182587845Y-88149703D01*
X182453669Y-88267373D01*
X182450154Y-88271832D01*
X182450151Y-88271835D01*
X182323436Y-88432572D01*
X182323433Y-88432576D01*
X182319919Y-88437034D01*
X182219327Y-88628228D01*
X182217643Y-88633652D01*
X182157278Y-88828061D01*
X182118599Y-88886248D01*
X182054602Y-88914286D01*
X181985605Y-88903274D01*
X181933515Y-88856708D01*
X181919511Y-88824949D01*
X181873668Y-88662406D01*
X181872125Y-88656934D01*
X181776572Y-88463172D01*
X181647309Y-88290067D01*
X181643139Y-88286212D01*
X181643136Y-88286209D01*
X181562430Y-88211606D01*
X181488665Y-88143418D01*
X181454751Y-88122020D01*
X181310761Y-88031169D01*
X181310759Y-88031168D01*
X181305952Y-88028135D01*
X181105290Y-87948079D01*
X181099709Y-87946969D01*
X181099706Y-87946968D01*
X181027016Y-87932509D01*
X180893400Y-87905931D01*
X180887713Y-87905857D01*
X180887708Y-87905856D01*
X180683063Y-87903177D01*
X180683058Y-87903177D01*
X180677376Y-87903103D01*
X180464455Y-87939690D01*
X180261766Y-88014466D01*
X180256888Y-88017368D01*
X180256886Y-88017369D01*
X180080982Y-88122020D01*
X180080979Y-88122022D01*
X180076098Y-88124926D01*
X180071825Y-88128673D01*
X180071824Y-88128674D01*
X180047845Y-88149703D01*
X179913669Y-88267373D01*
X179910154Y-88271832D01*
X179910151Y-88271835D01*
X179783436Y-88432572D01*
X179783433Y-88432576D01*
X179779919Y-88437034D01*
X179679327Y-88628228D01*
X179677643Y-88633652D01*
X179617278Y-88828061D01*
X179578599Y-88886248D01*
X179514602Y-88914286D01*
X179445605Y-88903274D01*
X179393515Y-88856708D01*
X179379511Y-88824949D01*
X179333668Y-88662406D01*
X179332125Y-88656934D01*
X179236572Y-88463172D01*
X179107309Y-88290067D01*
X179103139Y-88286212D01*
X179103136Y-88286209D01*
X179022430Y-88211606D01*
X178948665Y-88143418D01*
X178914751Y-88122020D01*
X178770761Y-88031169D01*
X178770759Y-88031168D01*
X178765952Y-88028135D01*
X178565290Y-87948079D01*
X178559709Y-87946969D01*
X178559706Y-87946968D01*
X178487016Y-87932509D01*
X178353400Y-87905931D01*
X178347713Y-87905857D01*
X178347708Y-87905856D01*
X178143063Y-87903177D01*
X178143058Y-87903177D01*
X178137376Y-87903103D01*
X177924455Y-87939690D01*
X177721766Y-88014466D01*
X177716888Y-88017368D01*
X177716886Y-88017369D01*
X177540982Y-88122020D01*
X177540979Y-88122022D01*
X177536098Y-88124926D01*
X177531825Y-88128673D01*
X177531824Y-88128674D01*
X177507845Y-88149703D01*
X177373669Y-88267373D01*
X177370154Y-88271832D01*
X177370151Y-88271835D01*
X177243436Y-88432572D01*
X177243433Y-88432576D01*
X177239919Y-88437034D01*
X177139327Y-88628228D01*
X177137643Y-88633652D01*
X177077278Y-88828061D01*
X177038599Y-88886248D01*
X176974602Y-88914286D01*
X176905605Y-88903274D01*
X176853515Y-88856708D01*
X176839511Y-88824949D01*
X176793668Y-88662406D01*
X176792125Y-88656934D01*
X176696572Y-88463172D01*
X176567309Y-88290067D01*
X176563139Y-88286212D01*
X176563136Y-88286209D01*
X176516258Y-88242876D01*
X176480328Y-88209663D01*
X176444462Y-88149703D01*
X176440500Y-88118608D01*
X176440500Y-86756304D01*
X176441910Y-86737655D01*
X176444064Y-86723493D01*
X176445148Y-86716370D01*
X176440908Y-86664239D01*
X176440500Y-86654187D01*
X176440500Y-86646178D01*
X176437241Y-86618221D01*
X176436815Y-86613918D01*
X176431545Y-86549116D01*
X176431544Y-86549112D01*
X176430961Y-86541941D01*
X176428743Y-86535093D01*
X176427562Y-86529185D01*
X176426177Y-86523328D01*
X176425343Y-86516172D01*
X176400685Y-86448239D01*
X176399282Y-86444152D01*
X176379248Y-86382310D01*
X176377027Y-86375454D01*
X176373289Y-86369295D01*
X176370781Y-86363816D01*
X176368088Y-86358438D01*
X176365631Y-86351669D01*
X176326023Y-86291256D01*
X176323714Y-86287597D01*
X176316737Y-86276099D01*
X176286239Y-86225840D01*
X176278915Y-86217548D01*
X176278943Y-86217523D01*
X176276382Y-86214634D01*
X176273625Y-86211337D01*
X176269677Y-86205315D01*
X176214028Y-86152598D01*
X176211626Y-86150259D01*
X171569807Y-81508440D01*
X179794770Y-81508440D01*
X179795141Y-81514102D01*
X179795141Y-81514106D01*
X179800974Y-81603098D01*
X179809200Y-81728604D01*
X179863511Y-81942452D01*
X179865887Y-81947606D01*
X179934707Y-82096886D01*
X179955883Y-82142821D01*
X179968052Y-82160040D01*
X180078969Y-82316984D01*
X180083222Y-82323002D01*
X180087293Y-82326968D01*
X180087294Y-82326969D01*
X180237190Y-82472993D01*
X180237195Y-82472997D01*
X180241264Y-82476961D01*
X180245987Y-82480117D01*
X180245991Y-82480120D01*
X180327101Y-82534315D01*
X180424717Y-82599540D01*
X180627436Y-82686635D01*
X180680508Y-82698644D01*
X180837085Y-82734074D01*
X180837087Y-82734074D01*
X180842632Y-82735329D01*
X180980457Y-82740744D01*
X181057418Y-82743768D01*
X181057420Y-82743768D01*
X181063098Y-82743991D01*
X181068718Y-82743176D01*
X181068721Y-82743176D01*
X181275826Y-82713147D01*
X181275829Y-82713146D01*
X181281452Y-82712331D01*
X181416926Y-82666344D01*
X181484989Y-82643240D01*
X181484992Y-82643239D01*
X181490379Y-82641410D01*
X181646625Y-82553908D01*
X181677931Y-82536376D01*
X181677932Y-82536375D01*
X181682884Y-82533602D01*
X181699221Y-82520015D01*
X181848151Y-82396150D01*
X181852518Y-82392518D01*
X181911497Y-82321604D01*
X181989971Y-82227250D01*
X181989972Y-82227249D01*
X181993602Y-82222884D01*
X182025374Y-82166152D01*
X182098631Y-82035341D01*
X182101410Y-82030379D01*
X182110727Y-82002934D01*
X182151373Y-81883191D01*
X182172331Y-81821452D01*
X182203991Y-81603098D01*
X182205643Y-81540000D01*
X182185454Y-81320289D01*
X182125565Y-81107936D01*
X182027980Y-80910053D01*
X181895967Y-80733267D01*
X181733949Y-80583499D01*
X181689087Y-80555193D01*
X181552159Y-80468798D01*
X181552157Y-80468797D01*
X181547350Y-80465764D01*
X181481947Y-80439671D01*
X181426974Y-80396546D01*
X181404044Y-80330547D01*
X181420435Y-80262627D01*
X181470945Y-80214351D01*
X181527895Y-80200499D01*
X181747376Y-80200499D01*
X181808580Y-80193851D01*
X181942824Y-80143526D01*
X181949889Y-80138231D01*
X181949891Y-80138230D01*
X182050481Y-80062841D01*
X182057546Y-80057546D01*
X182065730Y-80046626D01*
X182138230Y-79949891D01*
X182138231Y-79949889D01*
X182143526Y-79942824D01*
X182193851Y-79808580D01*
X182200500Y-79747377D01*
X182200499Y-78252624D01*
X182193851Y-78191420D01*
X182143526Y-78057176D01*
X182074779Y-77965447D01*
X182062841Y-77949519D01*
X182057546Y-77942454D01*
X182050481Y-77937159D01*
X181949891Y-77861770D01*
X181949889Y-77861769D01*
X181942824Y-77856474D01*
X181924272Y-77849519D01*
X181891300Y-77837159D01*
X181808580Y-77806149D01*
X181747377Y-77799500D01*
X181000112Y-77799500D01*
X180252624Y-77799501D01*
X180191420Y-77806149D01*
X180057176Y-77856474D01*
X180050111Y-77861769D01*
X180050109Y-77861770D01*
X179949519Y-77937159D01*
X179942454Y-77942454D01*
X179937159Y-77949519D01*
X179925222Y-77965447D01*
X179856474Y-78057176D01*
X179806149Y-78191420D01*
X179799500Y-78252623D01*
X179799501Y-79747376D01*
X179806149Y-79808580D01*
X179856474Y-79942824D01*
X179861769Y-79949889D01*
X179861770Y-79949891D01*
X179934270Y-80046626D01*
X179942454Y-80057546D01*
X179949519Y-80062841D01*
X180050109Y-80138230D01*
X180050111Y-80138231D01*
X180057176Y-80143526D01*
X180191420Y-80193851D01*
X180252623Y-80200500D01*
X180467770Y-80200500D01*
X180534809Y-80220185D01*
X180580564Y-80272989D01*
X180590508Y-80342147D01*
X180561483Y-80405703D01*
X180510687Y-80440836D01*
X180480957Y-80451804D01*
X180453121Y-80468365D01*
X180312683Y-80551917D01*
X180291341Y-80564614D01*
X180125457Y-80710090D01*
X179988863Y-80883360D01*
X179986216Y-80888391D01*
X179908231Y-81036616D01*
X179886131Y-81078620D01*
X179884443Y-81084055D01*
X179884443Y-81084056D01*
X179843921Y-81214560D01*
X179820703Y-81289333D01*
X179820035Y-81294978D01*
X179820034Y-81294982D01*
X179806175Y-81412076D01*
X179794770Y-81508440D01*
X171569807Y-81508440D01*
X165386819Y-75325452D01*
X165353334Y-75264129D01*
X165350500Y-75237771D01*
X165350500Y-72862229D01*
X165370185Y-72795190D01*
X165386819Y-72774548D01*
X165927146Y-72234221D01*
X165988469Y-72200736D01*
X166058161Y-72205720D01*
X166101351Y-72233079D01*
X166141264Y-72271961D01*
X166145987Y-72275117D01*
X166145991Y-72275120D01*
X166231475Y-72332238D01*
X166324717Y-72394540D01*
X166527436Y-72481635D01*
X166600871Y-72498252D01*
X166661910Y-72532245D01*
X166694884Y-72593845D01*
X166697237Y-72611083D01*
X166700891Y-72666826D01*
X166709200Y-72793604D01*
X166763511Y-73007452D01*
X166765887Y-73012606D01*
X166831763Y-73155500D01*
X166855883Y-73207821D01*
X166859161Y-73212459D01*
X166974164Y-73375185D01*
X166983222Y-73388002D01*
X166987293Y-73391968D01*
X166987294Y-73391969D01*
X167137190Y-73537993D01*
X167137195Y-73537997D01*
X167141264Y-73541961D01*
X167145987Y-73545117D01*
X167145991Y-73545120D01*
X167226740Y-73599074D01*
X167324717Y-73664540D01*
X167527436Y-73751635D01*
X167614643Y-73771368D01*
X167737085Y-73799074D01*
X167737087Y-73799074D01*
X167742632Y-73800329D01*
X167880457Y-73805744D01*
X167957418Y-73808768D01*
X167957420Y-73808768D01*
X167963098Y-73808991D01*
X167968718Y-73808176D01*
X167968721Y-73808176D01*
X168175826Y-73778147D01*
X168175829Y-73778146D01*
X168181452Y-73777331D01*
X168336684Y-73724637D01*
X168384989Y-73708240D01*
X168384992Y-73708239D01*
X168390379Y-73706410D01*
X168492063Y-73649464D01*
X168577931Y-73601376D01*
X168577932Y-73601375D01*
X168582884Y-73598602D01*
X168597373Y-73586552D01*
X168740078Y-73467864D01*
X168752518Y-73457518D01*
X168800181Y-73400209D01*
X168858184Y-73361254D01*
X168895518Y-73355500D01*
X178002096Y-73355500D01*
X178069135Y-73375185D01*
X178088622Y-73390679D01*
X178137190Y-73437993D01*
X178137195Y-73437997D01*
X178141264Y-73441961D01*
X178145987Y-73445117D01*
X178145991Y-73445120D01*
X178230185Y-73501376D01*
X178324717Y-73564540D01*
X178527436Y-73651635D01*
X178584468Y-73664540D01*
X178737085Y-73699074D01*
X178737087Y-73699074D01*
X178742632Y-73700329D01*
X178880457Y-73705744D01*
X178957418Y-73708768D01*
X178957420Y-73708768D01*
X178963098Y-73708991D01*
X178968718Y-73708176D01*
X178968721Y-73708176D01*
X179175826Y-73678147D01*
X179175829Y-73678146D01*
X179181452Y-73677331D01*
X179339191Y-73623786D01*
X179384989Y-73608240D01*
X179384992Y-73608239D01*
X179390379Y-73606410D01*
X179505461Y-73541961D01*
X179577931Y-73501376D01*
X179577932Y-73501375D01*
X179582884Y-73498602D01*
X179593671Y-73489631D01*
X179748151Y-73361150D01*
X179752518Y-73357518D01*
X179883352Y-73200208D01*
X179941353Y-73161254D01*
X179978687Y-73155500D01*
X188899444Y-73155500D01*
X188966483Y-73175185D01*
X188985970Y-73190679D01*
X189137190Y-73337993D01*
X189137195Y-73337997D01*
X189141264Y-73341961D01*
X189145987Y-73345117D01*
X189145991Y-73345120D01*
X189228439Y-73400209D01*
X189324717Y-73464540D01*
X189527436Y-73551635D01*
X189594394Y-73566786D01*
X189737085Y-73599074D01*
X189737087Y-73599074D01*
X189742632Y-73600329D01*
X189880457Y-73605744D01*
X189957418Y-73608768D01*
X189957420Y-73608768D01*
X189963098Y-73608991D01*
X189968718Y-73608176D01*
X189968721Y-73608176D01*
X190175826Y-73578147D01*
X190175829Y-73578146D01*
X190181452Y-73577331D01*
X190298393Y-73537635D01*
X190384989Y-73508240D01*
X190384992Y-73508239D01*
X190390379Y-73506410D01*
X190582884Y-73398602D01*
X190592411Y-73390679D01*
X190748151Y-73261150D01*
X190752518Y-73257518D01*
X190767794Y-73239151D01*
X190800182Y-73200209D01*
X190858184Y-73161254D01*
X190895518Y-73155500D01*
X199913815Y-73155500D01*
X199980854Y-73175185D01*
X200000341Y-73190679D01*
X200137190Y-73323993D01*
X200137195Y-73323997D01*
X200141264Y-73327961D01*
X200145987Y-73331117D01*
X200145991Y-73331120D01*
X200230185Y-73387376D01*
X200324717Y-73450540D01*
X200527436Y-73537635D01*
X200620826Y-73558767D01*
X200737085Y-73585074D01*
X200737087Y-73585074D01*
X200742632Y-73586329D01*
X200880457Y-73591744D01*
X200957418Y-73594768D01*
X200957420Y-73594768D01*
X200963098Y-73594991D01*
X200968718Y-73594176D01*
X200968721Y-73594176D01*
X201175826Y-73564147D01*
X201175829Y-73564146D01*
X201181452Y-73563331D01*
X201317518Y-73517143D01*
X201384989Y-73494240D01*
X201384992Y-73494239D01*
X201390379Y-73492410D01*
X201564883Y-73394683D01*
X201577931Y-73387376D01*
X201577932Y-73387375D01*
X201582884Y-73384602D01*
X201604402Y-73366706D01*
X201748151Y-73247150D01*
X201752518Y-73243518D01*
X201796464Y-73190679D01*
X201889971Y-73078250D01*
X201889972Y-73078249D01*
X201893602Y-73073884D01*
X202001410Y-72881379D01*
X202072331Y-72672452D01*
X202081582Y-72608653D01*
X202098081Y-72494856D01*
X202103991Y-72454098D01*
X202105643Y-72391000D01*
X202085454Y-72171289D01*
X202025565Y-71958936D01*
X201997871Y-71902777D01*
X201930495Y-71766153D01*
X201927980Y-71761053D01*
X201795967Y-71584267D01*
X201633949Y-71434499D01*
X201629139Y-71431464D01*
X201452159Y-71319798D01*
X201452157Y-71319797D01*
X201447350Y-71316764D01*
X201242421Y-71235006D01*
X201243117Y-71233261D01*
X201191559Y-71199955D01*
X201162684Y-71136331D01*
X201172790Y-71067197D01*
X201218669Y-71014500D01*
X201245605Y-71001554D01*
X201384989Y-70954240D01*
X201384992Y-70954239D01*
X201390379Y-70952410D01*
X201475576Y-70904698D01*
X201577931Y-70847376D01*
X201577932Y-70847375D01*
X201582884Y-70844602D01*
X201620432Y-70813374D01*
X201748151Y-70707150D01*
X201752518Y-70703518D01*
X201808089Y-70636702D01*
X201889971Y-70538250D01*
X201889972Y-70538249D01*
X201893602Y-70533884D01*
X201909728Y-70505090D01*
X201991198Y-70359614D01*
X202001410Y-70341379D01*
X202013729Y-70305090D01*
X202055512Y-70181998D01*
X202072331Y-70132452D01*
X202081582Y-70068653D01*
X202090631Y-70006242D01*
X202103991Y-69914098D01*
X202105643Y-69851000D01*
X202085454Y-69631289D01*
X202025565Y-69418936D01*
X201927980Y-69221053D01*
X201795967Y-69044267D01*
X201633949Y-68894499D01*
X201576257Y-68858098D01*
X201452159Y-68779798D01*
X201452157Y-68779797D01*
X201447350Y-68776764D01*
X201242421Y-68695006D01*
X201204581Y-68687479D01*
X201142673Y-68655096D01*
X201108099Y-68594380D01*
X201105295Y-68577210D01*
X201085974Y-68366949D01*
X201085454Y-68361289D01*
X201025565Y-68148936D01*
X201008445Y-68114219D01*
X200930495Y-67956153D01*
X200927980Y-67951053D01*
X200795967Y-67774267D01*
X200633949Y-67624499D01*
X200629139Y-67621464D01*
X200452159Y-67509798D01*
X200452157Y-67509797D01*
X200447350Y-67506764D01*
X200242421Y-67425006D01*
X200236840Y-67423896D01*
X200236837Y-67423895D01*
X200101992Y-67397073D01*
X200026024Y-67381962D01*
X200020337Y-67381888D01*
X200020332Y-67381887D01*
X199811095Y-67379148D01*
X199811090Y-67379148D01*
X199805406Y-67379074D01*
X199799802Y-67380037D01*
X199799801Y-67380037D01*
X199593560Y-67415475D01*
X199593557Y-67415476D01*
X199587957Y-67416438D01*
X199380957Y-67492804D01*
X199357425Y-67506804D01*
X199207565Y-67595962D01*
X199191341Y-67605614D01*
X199025457Y-67751090D01*
X199021942Y-67755549D01*
X199021938Y-67755553D01*
X198989053Y-67797268D01*
X198932091Y-67837728D01*
X198891674Y-67844500D01*
X189900121Y-67844500D01*
X189833082Y-67824815D01*
X189803235Y-67796995D01*
X189803175Y-67797049D01*
X189802556Y-67796361D01*
X189800767Y-67794694D01*
X189799370Y-67792823D01*
X189799365Y-67792817D01*
X189795967Y-67788267D01*
X189791797Y-67784412D01*
X189791794Y-67784409D01*
X189705713Y-67704837D01*
X189633949Y-67638499D01*
X189617878Y-67628359D01*
X189452159Y-67523798D01*
X189452157Y-67523797D01*
X189447350Y-67520764D01*
X189242421Y-67439006D01*
X189236840Y-67437896D01*
X189236837Y-67437895D01*
X189128964Y-67416438D01*
X189026024Y-67395962D01*
X189020337Y-67395888D01*
X189020332Y-67395887D01*
X188811095Y-67393148D01*
X188811090Y-67393148D01*
X188805406Y-67393074D01*
X188799802Y-67394037D01*
X188799801Y-67394037D01*
X188593560Y-67429475D01*
X188593557Y-67429476D01*
X188587957Y-67430438D01*
X188380957Y-67506804D01*
X188323284Y-67541116D01*
X188212873Y-67606804D01*
X188191341Y-67619614D01*
X188025457Y-67765090D01*
X187964544Y-67842359D01*
X187921258Y-67897267D01*
X187864295Y-67937728D01*
X187823878Y-67944500D01*
X178900121Y-67944500D01*
X178833082Y-67924815D01*
X178803235Y-67896995D01*
X178803175Y-67897049D01*
X178802556Y-67896361D01*
X178800767Y-67894694D01*
X178799370Y-67892823D01*
X178799365Y-67892817D01*
X178795967Y-67888267D01*
X178791797Y-67884412D01*
X178791794Y-67884409D01*
X178697288Y-67797049D01*
X178633949Y-67738499D01*
X178604018Y-67719614D01*
X178452159Y-67623798D01*
X178452157Y-67623797D01*
X178447350Y-67620764D01*
X178242421Y-67539006D01*
X178236840Y-67537896D01*
X178236837Y-67537895D01*
X178095582Y-67509798D01*
X178026024Y-67495962D01*
X178020337Y-67495888D01*
X178020332Y-67495887D01*
X177811095Y-67493148D01*
X177811090Y-67493148D01*
X177805406Y-67493074D01*
X177799802Y-67494037D01*
X177799801Y-67494037D01*
X177593560Y-67529475D01*
X177593557Y-67529476D01*
X177587957Y-67530438D01*
X177380957Y-67606804D01*
X177323284Y-67641116D01*
X177212873Y-67706804D01*
X177191341Y-67719614D01*
X177025457Y-67865090D01*
X177021942Y-67869549D01*
X177021940Y-67869551D01*
X177000091Y-67897267D01*
X176943129Y-67937728D01*
X176902711Y-67944500D01*
X167797152Y-67944500D01*
X167730113Y-67924815D01*
X167712989Y-67911563D01*
X167633949Y-67838499D01*
X167554336Y-67788267D01*
X167452159Y-67723798D01*
X167452157Y-67723797D01*
X167447350Y-67720764D01*
X167242421Y-67639006D01*
X167236840Y-67637896D01*
X167236837Y-67637895D01*
X167130301Y-67616704D01*
X167026024Y-67595962D01*
X167020337Y-67595888D01*
X167020332Y-67595887D01*
X166811095Y-67593148D01*
X166811090Y-67593148D01*
X166805406Y-67593074D01*
X166799802Y-67594037D01*
X166799801Y-67594037D01*
X166593560Y-67629475D01*
X166593557Y-67629476D01*
X166587957Y-67630438D01*
X166380957Y-67706804D01*
X166353121Y-67723365D01*
X166230426Y-67796361D01*
X166191341Y-67819614D01*
X166025457Y-67965090D01*
X166021942Y-67969549D01*
X166021940Y-67969551D01*
X166000091Y-67997267D01*
X165943129Y-68037728D01*
X165902711Y-68044500D01*
X163771304Y-68044500D01*
X163752655Y-68043090D01*
X163731370Y-68039852D01*
X163724189Y-68040436D01*
X163724187Y-68040436D01*
X163679239Y-68044092D01*
X163669187Y-68044500D01*
X163661178Y-68044500D01*
X163633221Y-68047759D01*
X163628922Y-68048185D01*
X163619179Y-68048977D01*
X163564116Y-68053455D01*
X163564112Y-68053456D01*
X163556941Y-68054039D01*
X163550093Y-68056257D01*
X163544185Y-68057438D01*
X163538328Y-68058823D01*
X163531172Y-68059657D01*
X163463246Y-68084313D01*
X163459159Y-68085715D01*
X163390454Y-68107973D01*
X163384295Y-68111711D01*
X163378816Y-68114219D01*
X163373438Y-68116912D01*
X163366669Y-68119369D01*
X163360646Y-68123318D01*
X163306256Y-68158977D01*
X163302611Y-68161277D01*
X163240840Y-68198761D01*
X163232548Y-68206085D01*
X163232523Y-68206057D01*
X163229634Y-68208618D01*
X163226337Y-68211375D01*
X163220315Y-68215323D01*
X163167599Y-68270971D01*
X163165259Y-68273374D01*
X162160452Y-69278181D01*
X162099129Y-69311666D01*
X162072771Y-69314500D01*
X161372110Y-69314500D01*
X161305071Y-69294815D01*
X161293081Y-69286053D01*
X161227180Y-69231535D01*
X161054585Y-69138213D01*
X160867152Y-69080193D01*
X160672019Y-69059683D01*
X160665986Y-69060232D01*
X160665982Y-69060232D01*
X160502278Y-69075131D01*
X160476618Y-69077466D01*
X160393217Y-69102012D01*
X160294208Y-69131152D01*
X160294203Y-69131154D01*
X160288393Y-69132864D01*
X160283023Y-69135671D01*
X160283019Y-69135673D01*
X160197256Y-69180510D01*
X160114512Y-69223767D01*
X160109789Y-69227564D01*
X160109788Y-69227565D01*
X160035694Y-69287138D01*
X159971113Y-69313804D01*
X159957995Y-69314500D01*
X157900121Y-69314500D01*
X157833082Y-69294815D01*
X157803235Y-69266995D01*
X157803175Y-69267049D01*
X157802556Y-69266361D01*
X157800767Y-69264694D01*
X157799370Y-69262823D01*
X157799365Y-69262817D01*
X157795967Y-69258267D01*
X157791797Y-69254412D01*
X157791794Y-69254409D01*
X157666093Y-69138213D01*
X157633949Y-69108499D01*
X157589087Y-69080193D01*
X157452159Y-68993798D01*
X157452157Y-68993797D01*
X157447350Y-68990764D01*
X157242421Y-68909006D01*
X157204581Y-68901479D01*
X157142673Y-68869096D01*
X157108099Y-68808380D01*
X157105295Y-68791210D01*
X157085974Y-68580949D01*
X157085454Y-68575289D01*
X157025565Y-68362936D01*
X156927980Y-68165053D01*
X156795967Y-67988267D01*
X156633949Y-67838499D01*
X156554336Y-67788267D01*
X156452159Y-67723798D01*
X156452157Y-67723797D01*
X156447350Y-67720764D01*
X156242421Y-67639006D01*
X156236840Y-67637896D01*
X156236837Y-67637895D01*
X156130301Y-67616704D01*
X156026024Y-67595962D01*
X156020337Y-67595888D01*
X156020332Y-67595887D01*
X155811095Y-67593148D01*
X155811090Y-67593148D01*
X155805406Y-67593074D01*
X155799802Y-67594037D01*
X155799801Y-67594037D01*
X155593560Y-67629475D01*
X155593557Y-67629476D01*
X155587957Y-67630438D01*
X155380957Y-67706804D01*
X155353121Y-67723365D01*
X155230426Y-67796361D01*
X155191341Y-67819614D01*
X155025457Y-67965090D01*
X155021942Y-67969549D01*
X155021940Y-67969551D01*
X155000091Y-67997267D01*
X154943129Y-68037728D01*
X154902711Y-68044500D01*
X126971304Y-68044500D01*
X126952656Y-68043090D01*
X126938486Y-68040934D01*
X126938482Y-68040934D01*
X126931370Y-68039852D01*
X126882013Y-68043866D01*
X126879239Y-68044092D01*
X126869187Y-68044500D01*
X126861178Y-68044500D01*
X126833221Y-68047759D01*
X126828922Y-68048185D01*
X126819179Y-68048977D01*
X126764116Y-68053455D01*
X126764112Y-68053456D01*
X126756941Y-68054039D01*
X126750093Y-68056257D01*
X126744185Y-68057438D01*
X126738328Y-68058823D01*
X126731172Y-68059657D01*
X126663246Y-68084313D01*
X126659159Y-68085715D01*
X126590454Y-68107973D01*
X126584295Y-68111711D01*
X126578816Y-68114219D01*
X126573438Y-68116912D01*
X126566669Y-68119369D01*
X126560646Y-68123318D01*
X126506256Y-68158977D01*
X126502611Y-68161277D01*
X126440840Y-68198761D01*
X126432548Y-68206085D01*
X126432523Y-68206057D01*
X126429634Y-68208618D01*
X126426337Y-68211375D01*
X126420315Y-68215323D01*
X126367599Y-68270971D01*
X126365259Y-68273374D01*
X125111203Y-69527430D01*
X125097020Y-69539620D01*
X125079676Y-69552383D01*
X125075016Y-69557869D01*
X125075012Y-69557872D01*
X125045803Y-69592254D01*
X125038983Y-69599650D01*
X125033330Y-69605303D01*
X125015863Y-69627380D01*
X125013150Y-69630689D01*
X124995573Y-69651379D01*
X124966368Y-69685755D01*
X124963090Y-69692176D01*
X124959733Y-69697209D01*
X124956589Y-69702299D01*
X124952119Y-69707949D01*
X124921519Y-69773422D01*
X124919637Y-69777271D01*
X124894596Y-69826312D01*
X124886781Y-69841616D01*
X124885069Y-69848614D01*
X124882970Y-69854257D01*
X124881069Y-69859971D01*
X124878021Y-69866493D01*
X124866996Y-69919500D01*
X124863306Y-69937238D01*
X124862353Y-69941447D01*
X124845185Y-70011606D01*
X124844500Y-70022648D01*
X124844464Y-70022646D01*
X124844231Y-70026500D01*
X124843849Y-70030778D01*
X124842382Y-70037831D01*
X124842732Y-70050763D01*
X124844455Y-70114437D01*
X124844500Y-70117791D01*
X124844500Y-82505123D01*
X124824815Y-82572162D01*
X124802259Y-82598351D01*
X124790220Y-82608909D01*
X124720457Y-82670090D01*
X124583863Y-82843360D01*
X124481131Y-83038620D01*
X124415703Y-83249333D01*
X124415035Y-83254978D01*
X124415034Y-83254982D01*
X124405976Y-83331515D01*
X124389770Y-83468440D01*
X124390141Y-83474102D01*
X124390141Y-83474106D01*
X124392934Y-83516719D01*
X124404200Y-83688604D01*
X124458511Y-83902452D01*
X124550883Y-84102821D01*
X124554161Y-84107459D01*
X124622357Y-84203954D01*
X124678222Y-84283002D01*
X124795250Y-84397006D01*
X124807026Y-84408478D01*
X124841311Y-84469357D01*
X124844500Y-84497299D01*
X124844500Y-93505123D01*
X124824815Y-93572162D01*
X124802259Y-93598351D01*
X124720457Y-93670090D01*
X124583863Y-93843360D01*
X124481131Y-94038620D01*
X124415703Y-94249333D01*
X124389770Y-94468440D01*
X124390141Y-94474102D01*
X124390141Y-94474106D01*
X124396985Y-94578522D01*
X124404200Y-94688604D01*
X124458511Y-94902452D01*
X124550883Y-95102821D01*
X124678222Y-95283002D01*
X124682293Y-95286968D01*
X124682294Y-95286969D01*
X124807026Y-95408478D01*
X124841311Y-95469357D01*
X124844500Y-95497299D01*
X124844500Y-102121123D01*
X124824815Y-102188162D01*
X124802259Y-102214351D01*
X124787211Y-102227548D01*
X124720457Y-102286090D01*
X124583863Y-102459360D01*
X124481131Y-102654620D01*
X124479443Y-102660055D01*
X124479443Y-102660056D01*
X124461082Y-102719187D01*
X124415703Y-102865333D01*
X124415035Y-102870978D01*
X124415034Y-102870982D01*
X124397849Y-103016182D01*
X124389770Y-103084440D01*
X124390141Y-103090102D01*
X124390141Y-103090106D01*
X124395950Y-103178728D01*
X124404200Y-103304604D01*
X124458511Y-103518452D01*
X124460887Y-103523606D01*
X124496559Y-103600983D01*
X124550883Y-103718821D01*
X124554161Y-103723459D01*
X124673158Y-103891836D01*
X124678222Y-103899002D01*
X124797495Y-104015193D01*
X124807026Y-104024478D01*
X124841311Y-104085357D01*
X124844500Y-104113299D01*
X124844500Y-113505123D01*
X124824815Y-113572162D01*
X124802259Y-113598351D01*
X124720457Y-113670090D01*
X124583863Y-113843360D01*
X124581216Y-113848391D01*
X124551063Y-113905703D01*
X124481131Y-114038620D01*
X124479443Y-114044055D01*
X124479443Y-114044056D01*
X124468138Y-114080464D01*
X124415703Y-114249333D01*
X124415035Y-114254978D01*
X124415034Y-114254982D01*
X124396077Y-114415153D01*
X124389770Y-114468440D01*
X124390141Y-114474102D01*
X124390141Y-114474106D01*
X124393254Y-114521604D01*
X124404200Y-114688604D01*
X124458511Y-114902452D01*
X124460887Y-114907606D01*
X124520337Y-115036561D01*
X124550883Y-115102821D01*
X124678222Y-115283002D01*
X124682293Y-115286968D01*
X124682294Y-115286969D01*
X124807026Y-115408478D01*
X124841311Y-115469357D01*
X124844500Y-115497299D01*
X124844500Y-125405123D01*
X124824815Y-125472162D01*
X124802259Y-125498351D01*
X124720457Y-125570090D01*
X124583863Y-125743360D01*
X124481131Y-125938620D01*
X124415703Y-126149333D01*
X124415035Y-126154978D01*
X124415034Y-126154982D01*
X124402588Y-126260141D01*
X124389770Y-126368440D01*
X117500500Y-126368440D01*
X117500500Y-64132200D01*
X119898747Y-64132200D01*
X119936129Y-64416149D01*
X120011702Y-64692398D01*
X120013358Y-64696281D01*
X120013360Y-64696286D01*
X120099445Y-64898108D01*
X120124068Y-64955835D01*
X120126237Y-64959460D01*
X120126238Y-64959461D01*
X120135794Y-64975427D01*
X120271146Y-65201585D01*
X120450215Y-65425100D01*
X120569103Y-65537920D01*
X120654897Y-65619337D01*
X120654902Y-65619341D01*
X120657962Y-65622245D01*
X120661388Y-65624707D01*
X120661393Y-65624711D01*
X120791669Y-65718323D01*
X120890543Y-65789371D01*
X120915963Y-65802830D01*
X121139928Y-65921414D01*
X121139931Y-65921416D01*
X121143653Y-65923386D01*
X121278131Y-65972598D01*
X121408655Y-66020363D01*
X121408659Y-66020364D01*
X121412610Y-66021810D01*
X121416724Y-66022707D01*
X121688316Y-66081924D01*
X121688320Y-66081925D01*
X121692436Y-66082822D01*
X121696640Y-66083153D01*
X121696641Y-66083153D01*
X121721037Y-66085073D01*
X121917053Y-66100500D01*
X122071992Y-66100500D01*
X122244449Y-66088743D01*
X122281528Y-66086215D01*
X122281529Y-66086215D01*
X122285737Y-66085928D01*
X122300736Y-66082822D01*
X122351913Y-66072224D01*
X122566186Y-66027850D01*
X122570154Y-66026445D01*
X122570157Y-66026444D01*
X122670428Y-65990936D01*
X122836158Y-65932248D01*
X122977122Y-65859491D01*
X123086902Y-65802830D01*
X123086906Y-65802827D01*
X123090658Y-65800891D01*
X123094114Y-65798462D01*
X123094119Y-65798459D01*
X123321519Y-65638639D01*
X123321522Y-65638636D01*
X123324976Y-65636209D01*
X123534776Y-65441251D01*
X123716177Y-65219623D01*
X123865820Y-64975427D01*
X123874421Y-64955835D01*
X123979241Y-64717047D01*
X123980938Y-64713182D01*
X124059400Y-64437739D01*
X124099754Y-64154196D01*
X124099869Y-64132200D01*
X209898747Y-64132200D01*
X209936129Y-64416149D01*
X210011702Y-64692398D01*
X210013358Y-64696281D01*
X210013360Y-64696286D01*
X210099445Y-64898108D01*
X210124068Y-64955835D01*
X210126237Y-64959460D01*
X210126238Y-64959461D01*
X210135794Y-64975427D01*
X210271146Y-65201585D01*
X210450215Y-65425100D01*
X210569103Y-65537920D01*
X210654897Y-65619337D01*
X210654902Y-65619341D01*
X210657962Y-65622245D01*
X210661388Y-65624707D01*
X210661393Y-65624711D01*
X210791669Y-65718323D01*
X210890543Y-65789371D01*
X210915963Y-65802830D01*
X211139928Y-65921414D01*
X211139931Y-65921416D01*
X211143653Y-65923386D01*
X211278131Y-65972598D01*
X211408655Y-66020363D01*
X211408659Y-66020364D01*
X211412610Y-66021810D01*
X211416724Y-66022707D01*
X211688316Y-66081924D01*
X211688320Y-66081925D01*
X211692436Y-66082822D01*
X211696640Y-66083153D01*
X211696641Y-66083153D01*
X211721037Y-66085073D01*
X211917053Y-66100500D01*
X212071992Y-66100500D01*
X212244449Y-66088743D01*
X212281528Y-66086215D01*
X212281529Y-66086215D01*
X212285737Y-66085928D01*
X212300736Y-66082822D01*
X212351913Y-66072224D01*
X212566186Y-66027850D01*
X212570154Y-66026445D01*
X212570157Y-66026444D01*
X212670428Y-65990936D01*
X212836158Y-65932248D01*
X212977122Y-65859491D01*
X213086902Y-65802830D01*
X213086906Y-65802827D01*
X213090658Y-65800891D01*
X213094114Y-65798462D01*
X213094119Y-65798459D01*
X213321519Y-65638639D01*
X213321522Y-65638636D01*
X213324976Y-65636209D01*
X213534776Y-65441251D01*
X213716177Y-65219623D01*
X213865820Y-64975427D01*
X213874421Y-64955835D01*
X213979241Y-64717047D01*
X213980938Y-64713182D01*
X214059400Y-64437739D01*
X214099754Y-64154196D01*
X214101253Y-63867800D01*
X214063871Y-63583851D01*
X213988298Y-63307602D01*
X213981165Y-63290877D01*
X213877589Y-63048050D01*
X213875932Y-63044165D01*
X213864394Y-63024886D01*
X213731021Y-62802035D01*
X213731018Y-62802030D01*
X213728854Y-62798415D01*
X213549785Y-62574900D01*
X213430897Y-62462080D01*
X213345103Y-62380663D01*
X213345098Y-62380659D01*
X213342038Y-62377755D01*
X213338612Y-62375293D01*
X213338607Y-62375289D01*
X213208331Y-62281677D01*
X213109457Y-62210629D01*
X213036785Y-62172151D01*
X212860072Y-62078586D01*
X212860069Y-62078584D01*
X212856347Y-62076614D01*
X212721869Y-62027402D01*
X212591345Y-61979637D01*
X212591341Y-61979636D01*
X212587390Y-61978190D01*
X212555771Y-61971296D01*
X212311684Y-61918076D01*
X212311680Y-61918075D01*
X212307564Y-61917178D01*
X212303360Y-61916847D01*
X212303359Y-61916847D01*
X212264452Y-61913785D01*
X212082947Y-61899500D01*
X211928008Y-61899500D01*
X211755551Y-61911257D01*
X211718472Y-61913785D01*
X211718471Y-61913785D01*
X211714263Y-61914072D01*
X211710135Y-61914927D01*
X211710134Y-61914927D01*
X211694928Y-61918076D01*
X211433814Y-61972150D01*
X211429846Y-61973555D01*
X211429843Y-61973556D01*
X211383249Y-61990056D01*
X211163842Y-62067752D01*
X211022878Y-62140509D01*
X210913098Y-62197170D01*
X210913094Y-62197173D01*
X210909342Y-62199109D01*
X210905886Y-62201538D01*
X210905881Y-62201541D01*
X210678481Y-62361361D01*
X210678478Y-62361364D01*
X210675024Y-62363791D01*
X210465224Y-62558749D01*
X210283823Y-62780377D01*
X210134180Y-63024573D01*
X210132485Y-63028434D01*
X210132483Y-63028438D01*
X210076621Y-63155696D01*
X210019062Y-63286818D01*
X209940600Y-63562261D01*
X209900246Y-63845804D01*
X209898747Y-64132200D01*
X124099869Y-64132200D01*
X124101253Y-63867800D01*
X124063871Y-63583851D01*
X123988298Y-63307602D01*
X123981165Y-63290877D01*
X123877589Y-63048050D01*
X123875932Y-63044165D01*
X123864394Y-63024886D01*
X123731021Y-62802035D01*
X123731018Y-62802030D01*
X123728854Y-62798415D01*
X123549785Y-62574900D01*
X123430897Y-62462080D01*
X123345103Y-62380663D01*
X123345098Y-62380659D01*
X123342038Y-62377755D01*
X123338612Y-62375293D01*
X123338607Y-62375289D01*
X123208331Y-62281677D01*
X123109457Y-62210629D01*
X123036785Y-62172151D01*
X122860072Y-62078586D01*
X122860069Y-62078584D01*
X122856347Y-62076614D01*
X122721869Y-62027402D01*
X122591345Y-61979637D01*
X122591341Y-61979636D01*
X122587390Y-61978190D01*
X122555771Y-61971296D01*
X122311684Y-61918076D01*
X122311680Y-61918075D01*
X122307564Y-61917178D01*
X122303360Y-61916847D01*
X122303359Y-61916847D01*
X122264452Y-61913785D01*
X122082947Y-61899500D01*
X121928008Y-61899500D01*
X121755551Y-61911257D01*
X121718472Y-61913785D01*
X121718471Y-61913785D01*
X121714263Y-61914072D01*
X121710135Y-61914927D01*
X121710134Y-61914927D01*
X121694928Y-61918076D01*
X121433814Y-61972150D01*
X121429846Y-61973555D01*
X121429843Y-61973556D01*
X121383249Y-61990056D01*
X121163842Y-62067752D01*
X121022878Y-62140509D01*
X120913098Y-62197170D01*
X120913094Y-62197173D01*
X120909342Y-62199109D01*
X120905886Y-62201538D01*
X120905881Y-62201541D01*
X120678481Y-62361361D01*
X120678478Y-62361364D01*
X120675024Y-62363791D01*
X120465224Y-62558749D01*
X120283823Y-62780377D01*
X120134180Y-63024573D01*
X120132485Y-63028434D01*
X120132483Y-63028438D01*
X120076621Y-63155696D01*
X120019062Y-63286818D01*
X119940600Y-63562261D01*
X119900246Y-63845804D01*
X119898747Y-64132200D01*
X117500500Y-64132200D01*
X117500500Y-63052405D01*
X117502219Y-63031832D01*
X117502790Y-63028438D01*
X117505496Y-63012354D01*
X117505647Y-63000000D01*
X117504968Y-62995255D01*
X117503502Y-62985017D01*
X117502399Y-62961358D01*
X117517052Y-62663072D01*
X117518245Y-62650961D01*
X117566850Y-62323297D01*
X117569220Y-62311382D01*
X117649709Y-61990049D01*
X117653240Y-61978411D01*
X117764830Y-61666540D01*
X117769486Y-61655298D01*
X117911115Y-61355849D01*
X117916852Y-61345117D01*
X118087138Y-61061011D01*
X118093898Y-61050893D01*
X118108399Y-61031341D01*
X118291232Y-60784819D01*
X118298927Y-60775443D01*
X118521396Y-60529986D01*
X118529986Y-60521396D01*
X118775443Y-60298927D01*
X118784819Y-60291232D01*
X119050893Y-60093898D01*
X119061011Y-60087138D01*
X119345117Y-59916852D01*
X119355849Y-59911115D01*
X119655298Y-59769486D01*
X119666540Y-59764830D01*
X119978411Y-59653240D01*
X119990049Y-59649709D01*
X120311382Y-59569220D01*
X120323297Y-59566850D01*
X120650964Y-59518245D01*
X120663069Y-59517052D01*
X120957717Y-59502577D01*
X120982877Y-59503905D01*
X120985091Y-59504250D01*
X120985095Y-59504250D01*
X120993823Y-59505609D01*
X121024887Y-59501547D01*
X121040964Y-59500500D01*
X212951413Y-59500500D01*
X212970489Y-59501976D01*
G37*
%TD.AperFunction*%
%TD*%
M02*
