%TF.GenerationSoftware,KiCad,Pcbnew,6.0.10-86aedd382b~118~ubuntu18.04.1*%
%TF.CreationDate,2024-06-09T23:27:39-03:00*%
%TF.ProjectId,salt_ihm,73616c74-5f69-4686-9d2e-6b696361645f,1.5*%
%TF.SameCoordinates,Original*%
%TF.FileFunction,Paste,Bot*%
%TF.FilePolarity,Positive*%
%FSLAX46Y46*%
G04 Gerber Fmt 4.6, Leading zero omitted, Abs format (unit mm)*
G04 Created by KiCad (PCBNEW 6.0.10-86aedd382b~118~ubuntu18.04.1) date 2024-06-09 23:27:39*
%MOMM*%
%LPD*%
G01*
G04 APERTURE LIST*
G04 Aperture macros list*
%AMRoundRect*
0 Rectangle with rounded corners*
0 $1 Rounding radius*
0 $2 $3 $4 $5 $6 $7 $8 $9 X,Y pos of 4 corners*
0 Add a 4 corners polygon primitive as box body*
4,1,4,$2,$3,$4,$5,$6,$7,$8,$9,$2,$3,0*
0 Add four circle primitives for the rounded corners*
1,1,$1+$1,$2,$3*
1,1,$1+$1,$4,$5*
1,1,$1+$1,$6,$7*
1,1,$1+$1,$8,$9*
0 Add four rect primitives between the rounded corners*
20,1,$1+$1,$2,$3,$4,$5,0*
20,1,$1+$1,$4,$5,$6,$7,0*
20,1,$1+$1,$6,$7,$8,$9,0*
20,1,$1+$1,$8,$9,$2,$3,0*%
G04 Aperture macros list end*
%ADD10R,0.435000X1.495000*%
%ADD11RoundRect,0.250000X0.475000X-0.337500X0.475000X0.337500X-0.475000X0.337500X-0.475000X-0.337500X0*%
%ADD12RoundRect,0.250000X-0.450000X0.350000X-0.450000X-0.350000X0.450000X-0.350000X0.450000X0.350000X0*%
%ADD13RoundRect,0.250000X0.450000X-0.350000X0.450000X0.350000X-0.450000X0.350000X-0.450000X-0.350000X0*%
%ADD14R,1.250000X0.600000*%
G04 APERTURE END LIST*
D10*
%TO.C,IC1*%
X141034000Y-94834000D03*
X141668000Y-94834000D03*
X142304000Y-94834000D03*
X142938000Y-94834000D03*
X143574000Y-94834000D03*
X144208000Y-94834000D03*
X144844000Y-94834000D03*
X145478000Y-94834000D03*
X146114000Y-94834000D03*
X146748000Y-94834000D03*
X147384000Y-94834000D03*
X148018000Y-94834000D03*
X148018000Y-100238000D03*
X147384000Y-100238000D03*
X146748000Y-100238000D03*
X146114000Y-100238000D03*
X145478000Y-100238000D03*
X144844000Y-100238000D03*
X144208000Y-100238000D03*
X143574000Y-100238000D03*
X142938000Y-100238000D03*
X142304000Y-100238000D03*
X141668000Y-100238000D03*
X141034000Y-100238000D03*
%TD*%
D11*
%TO.C,C1*%
X195326000Y-129815500D03*
X195326000Y-127740500D03*
%TD*%
D12*
%TO.C,R1*%
X195222000Y-119952000D03*
X195222000Y-121952000D03*
%TD*%
%TO.C,R2*%
X177300000Y-128300000D03*
X177300000Y-130300000D03*
%TD*%
D11*
%TO.C,C2*%
X135636000Y-98577500D03*
X135636000Y-96502500D03*
%TD*%
%TO.C,C3*%
X137890000Y-98573500D03*
X137890000Y-96498500D03*
%TD*%
D13*
%TO.C,R3*%
X177300000Y-134364000D03*
X177300000Y-132364000D03*
%TD*%
D12*
%TO.C,R5*%
X151070000Y-98680000D03*
X151070000Y-100680000D03*
%TD*%
D14*
%TO.C,Q1*%
X195377000Y-123807000D03*
X195377000Y-125717000D03*
X193277000Y-124762000D03*
%TD*%
D13*
%TO.C,R4*%
X175014000Y-134364000D03*
X175014000Y-132364000D03*
%TD*%
M02*
